<svg xmlns="http://www.w3.org/2000/svg" xmlns:xlink="http://www.w3.org/1999/xlink" width="480" height="46.336"><path fill="black" stroke="none" d="M31.33 37.47L31.33 37.47Q31.33 38.08 30.90 38.54Q30.46 39.01 29.82 39.01L29.82 39.01Q29.31 39.01 28.54 38.83Q27.78 38.66 27.04 38.38Q26.30 38.11 25.86 37.89L25.86 37.89Q25.06 37.44 24.26 36.94Q23.46 36.45 22.75 35.84L22.75 35.84Q20.93 34.27 19.57 32.30Q18.21 30.34 17.20 28.11Q16.19 25.89 15.39 23.68L15.39 23.68Q14.62 26.46 13.26 28.86Q11.90 31.26 10.02 33.44L10.02 33.44Q8.51 35.17 6.67 36.32Q4.83 37.47 2.72 38.30L2.72 38.30Q2.59 38.37 2.50 38.37L2.50 38.37Q2.46 38.40 2.42 38.42Q2.37 38.43 2.30 38.46L2.30 38.46Q2.05 38.53 1.89 38.53L1.89 38.53Q1.63 38.53 1.63 38.30L1.63 38.30Q1.63 38.08 1.92 37.92L1.92 37.92Q2.02 37.86 2.14 37.78Q2.27 37.70 2.34 37.66L2.34 37.66Q2.78 37.34 3.28 37.02Q3.78 36.70 4.19 36.35L4.19 36.35Q6.66 34.37 8.61 31.62Q10.56 28.86 11.62 25.89L11.62 25.89Q12.32 23.94 12.75 21.57Q13.18 19.20 13.39 16.77Q13.60 14.34 13.60 12.26L13.60 12.26L17.25 12.54Q17.22 13.41 17.17 14.27Q17.12 15.14 17.06 15.97L17.06 15.97Q17.02 16.38 17.01 16.78Q16.99 17.18 16.99 17.60L16.99 17.60Q16.99 17.79 17.06 18.03Q17.12 18.27 17.15 18.46L17.15 18.46Q17.47 20.10 17.94 21.68Q18.40 23.26 19.01 24.80L19.01 24.80Q19.78 26.75 20.64 28.64Q21.50 30.53 22.69 32.22L22.69 32.22Q23.55 33.44 24.35 34.38Q25.15 35.33 26.10 36.13Q27.04 36.93 28.29 37.76L28.29 37.76Q28.32 37.18 28.70 36.59Q29.09 36 29.79 36L29.79 36Q30.34 36 30.83 36.46Q31.33 36.93 31.33 37.47ZM58.37 28.58L58.37 19.01L51.01 19.01L51.01 22.37L55.04 22.37Q55.04 22.02 55.30 21.68Q55.55 21.34 55.97 21.34L55.97 21.34Q56.35 21.34 56.64 21.68Q56.93 22.02 56.93 22.37L56.93 22.37Q56.93 22.78 56.62 23.06Q56.32 23.33 55.87 23.30L55.87 23.30L51.01 23.30L51.01 26.56L55.04 26.56Q55.04 26.21 55.30 25.89Q55.55 25.57 55.97 25.57L55.97 25.57Q56.35 25.57 56.62 25.87Q56.90 26.18 56.90 26.53L56.90 26.53Q56.90 26.94 56.61 27.25Q56.32 27.55 55.87 27.52L55.87 27.52L51.01 27.52L51.01 31.23L55.65 31.23Q58.37 31.30 58.37 28.58L58.37 28.58ZM47.01 28.93L47.01 28.93Q47.01 29.44 46.62 29.76Q46.24 30.08 45.73 30.05L45.73 30.05L41.41 30.05Q41.15 32.16 40.03 33.94Q38.91 35.71 37.25 37.01Q35.58 38.30 33.63 39.01L33.63 39.01Q33.57 39.04 33.47 39.07Q33.38 39.10 33.28 39.10L33.28 39.10Q33.06 39.10 33.06 38.91L33.06 38.91Q33.06 38.75 33.25 38.62L33.25 38.62Q33.54 38.40 33.81 38.21Q34.08 38.02 34.34 37.82L34.34 37.82Q34.59 37.63 34.86 37.42Q35.14 37.22 35.36 36.99L35.36 36.99Q36.86 35.58 37.84 33.84Q38.82 32.10 39.14 30.05L39.14 30.05L33.92 30.05L33.92 29.06L39.26 29.06Q39.33 28.35 39.34 27.63Q39.36 26.91 39.39 26.14L39.39 26.14L41.86 26.46Q41.82 27.10 41.76 27.76Q41.70 28.42 41.63 29.06L41.63 29.06L44.67 29.06Q44.67 28.58 44.98 28.16Q45.28 27.74 45.86 27.74L45.86 27.74Q46.30 27.74 46.66 28.11Q47.01 28.48 47.01 28.93ZM45.70 36.45L45.70 36.45Q45.70 36.58 45.58 36.64Q45.47 36.70 45.34 36.70L45.34 36.70Q45.12 36.70 44.96 36.61L44.96 36.61Q43.94 35.97 42.93 34.80Q41.92 33.63 41.25 32.64L41.25 32.64L43.23 31.55Q43.78 32.80 44.35 33.98Q44.93 35.17 45.63 36.29L45.63 36.29Q45.66 36.32 45.66 36.34Q45.66 36.35 45.66 36.35L45.66 36.35Q45.70 36.38 45.70 36.45ZM53.09 34.91L53.06 34.94Q52.74 35.14 52.45 35.38Q52.16 35.62 51.84 35.81L51.84 35.81Q50.18 36.90 48.18 38Q46.18 39.10 44.19 39.49L44.19 39.49Q44.13 39.52 44.10 39.54Q44.06 39.55 44 39.55L44 39.55Q43.87 39.55 43.76 39.47Q43.65 39.39 43.65 39.26L43.65 39.26Q43.65 39.14 43.81 39.04L43.81 39.04Q43.84 39.04 43.84 39.02Q43.84 39.01 43.87 39.01L43.87 39.01Q44.13 38.85 44.38 38.72Q44.64 38.59 44.86 38.46L44.86 38.46Q45.57 38.05 46.24 37.55Q46.91 37.06 47.52 36.54L47.52 36.54Q49.34 34.98 50.85 33.09L50.85 33.09Q51.01 33.22 51.36 33.46Q51.71 33.70 52.10 33.98L52.10 33.98Q52.48 34.27 52.77 34.53Q53.06 34.78 53.09 34.91L53.09 34.91ZM47.10 17.89L47.10 17.89Q47.10 18.34 46.75 18.67Q46.40 19.01 45.92 18.98L45.92 18.98L42.02 18.98L42.02 25.02L39.68 25.02L39.68 20.99Q38.30 22.94 36.66 24.45Q35.01 25.95 32.86 26.98L32.86 26.98Q32.74 27.01 32.58 27.01L32.58 27.01Q32.32 27.01 32.32 26.82L32.32 26.82Q32.32 26.72 32.45 26.59L32.45 26.59Q33.57 25.57 34.40 24.74Q35.23 23.90 36.10 22.62L36.10 22.62Q36.67 21.79 37.22 20.86Q37.76 19.94 38.18 18.98L38.18 18.98L33.95 18.98L33.95 18.08L39.68 18.08L39.68 10.94L42.02 10.94L42.02 18.08L44.90 18.08Q44.90 17.63 45.14 17.17Q45.38 16.70 45.98 16.70L45.98 16.70Q46.46 16.70 46.78 17.07Q47.10 17.44 47.10 17.89ZM38.46 16.74L38.46 16.74Q38.46 16.83 38.40 16.96Q38.34 17.09 38.18 17.09L38.18 17.09Q38.05 17.09 37.98 17.02L37.98 17.02Q37.95 16.99 37.95 16.99Q37.95 16.99 37.92 16.96L37.92 16.96Q37.12 16.19 36.34 15.38Q35.55 14.56 34.72 13.82L34.72 13.82Q34.69 13.82 34.62 13.76L34.62 13.76Q34.59 13.73 34.59 13.63L34.59 13.63Q34.59 13.54 34.91 13.34Q35.23 13.15 35.62 12.96L35.62 12.96Q36 12.77 36.37 12.59Q36.74 12.42 36.86 12.35L36.86 12.35Q37.02 12.67 37.28 13.26Q37.54 13.86 37.81 14.54Q38.08 15.23 38.27 15.84Q38.46 16.45 38.46 16.74ZM47.10 24.96L47.10 24.96Q47.10 25.22 46.75 25.22L46.75 25.22Q46.40 25.22 45.78 24.78Q45.15 24.35 44.46 23.73Q43.78 23.10 43.20 22.53Q42.62 21.95 42.37 21.70L42.37 21.70L44.29 20.58Q44.83 21.76 45.55 22.75Q46.27 23.74 47.01 24.77L47.01 24.77Q47.10 24.86 47.10 24.96ZM63.49 38.27L63.49 38.27Q63.49 38.75 63.10 39.15Q62.72 39.55 62.21 39.55L62.21 39.55Q61.28 39.55 60.35 39.07Q59.42 38.59 58.56 37.86Q57.70 37.12 56.98 36.30Q56.26 35.49 55.71 34.85L55.71 34.85Q55.65 34.75 55.55 34.64Q55.46 34.53 55.46 34.40L55.46 34.40Q55.46 34.30 55.94 34.02Q56.42 33.73 56.96 33.42Q57.50 33.12 57.63 33.06L57.63 33.06Q58.34 34.56 59.14 35.84Q59.94 37.12 61.02 38.37L61.02 38.37Q61.06 37.92 61.39 37.46Q61.73 36.99 62.24 36.99L62.24 36.99Q62.75 36.99 63.12 37.39Q63.49 37.79 63.49 38.27ZM46.53 13.60L46.53 13.60Q46.53 13.76 46.10 14.26Q45.66 14.75 45.07 15.33Q44.48 15.90 43.95 16.32Q43.42 16.74 43.26 16.74L43.26 16.74Q43.07 16.74 43.07 16.51L43.07 16.51Q43.07 16.42 43.30 15.90L43.30 15.90Q43.39 15.68 43.47 15.49Q43.55 15.30 43.58 15.23L43.58 15.23Q43.84 14.59 44.05 13.95Q44.26 13.31 44.45 12.61L44.45 12.61Q44.67 12.67 45.17 12.88Q45.66 13.09 46.10 13.28Q46.53 13.47 46.53 13.60ZM63.17 12.32L63.17 12.32Q63.17 12.86 62.80 13.23Q62.43 13.60 61.86 13.57L61.86 13.57L56.38 13.57Q56.35 13.66 56.29 13.76Q56.22 13.86 56.16 13.95L56.16 13.95Q55.52 15.04 54.69 16.02Q53.86 16.99 53.06 17.95L53.06 17.95L60.93 17.95Q60.93 20.51 60.94 23.04Q60.96 25.57 60.96 28.10L60.96 28.10Q60.96 30.34 59.54 31.31Q58.11 32.29 56.03 32.29L56.03 32.29L48.77 32.29L48.77 17.95L52.10 17.95Q52.38 16.90 52.61 15.78Q52.83 14.66 53.09 13.57L53.09 13.57L47.52 13.57L47.52 12.51L60.48 12.51Q60.48 11.97 60.86 11.44Q61.25 10.91 61.89 10.91L61.89 10.91Q62.40 10.91 62.78 11.39Q63.17 11.87 63.17 12.32ZM66.40 16.96L77.15 16.96Q76.93 18.18 76.24 19.52Q75.55 20.86 74.69 22.11Q73.82 23.36 73.02 24.32L73.02 24.32L73.02 39.17L70.50 39.17L70.50 26.62Q69.89 27.04 69.25 27.50Q68.61 27.97 67.94 28.42L67.94 28.42Q67.23 28.83 66.53 29.18Q65.82 29.54 65.09 29.70L65.09 29.70Q65.06 29.73 64.96 29.73L64.96 29.73L64.93 29.73Q64.70 29.73 64.70 29.57L64.70 29.57Q64.70 29.44 64.83 29.38L64.83 29.38Q66.08 28.38 67.26 27.36Q68.45 26.34 69.44 25.12L69.44 25.12Q70.66 23.65 71.87 21.73Q73.09 19.81 73.70 18.02L73.70 18.02L66.40 18.02L66.40 16.96ZM78.69 29.57L78.69 29.57Q78.69 29.82 78.43 29.82L78.43 29.82Q78.34 29.82 77.68 29.38Q77.02 28.93 76.29 28.42L76.29 28.42Q75.49 27.87 74.80 27.36Q74.11 26.85 73.92 26.72L73.92 26.72Q74.43 26.34 74.91 25.92Q75.39 25.50 75.87 25.09L75.87 25.09Q76.16 25.38 76.62 25.97Q77.09 26.56 77.57 27.26Q78.05 27.97 78.37 28.59Q78.69 29.22 78.69 29.57ZM74.91 11.39L74.91 11.39Q74.91 11.68 74.56 12.34Q74.21 12.99 73.70 13.76Q73.18 14.53 72.70 15.17Q72.22 15.81 72 16.03L72 16.03Q71.90 16.13 71.78 16.21Q71.65 16.29 71.49 16.29L71.49 16.29Q71.23 16.29 71.23 15.97L71.23 15.97Q71.23 14.62 71.28 13.28Q71.33 11.94 71.36 10.59L71.36 10.59Q72.10 10.66 72.83 10.77Q73.57 10.88 74.27 10.98L74.27 10.98Q74.53 11.04 74.69 11.10L74.69 11.10Q74.91 11.17 74.91 11.39ZM94.66 36.06L94.66 36.06Q94.66 37.06 94.14 37.38Q93.63 37.70 92.74 37.70L92.74 37.70L76.16 37.70L76.16 36.54L83.49 36.54L83.49 23.01L77.63 23.01L77.63 21.82L83.49 21.82L83.49 12.35L86.24 12.35L86.24 21.82L89.98 21.82Q89.98 20.99 90.40 20.50Q90.82 20.00 91.52 20.00L91.52 20.00Q92.10 20.00 92.50 20.48Q92.90 20.96 92.90 21.47L92.90 21.47Q92.90 22.21 92.42 22.61Q91.94 23.01 91.23 23.01L91.23 23.01L86.24 23.01L86.24 36.54L91.62 36.54Q91.62 35.84 92 35.20Q92.38 34.56 93.22 34.56L93.22 34.56Q93.86 34.56 94.26 35.02Q94.66 35.49 94.66 36.06ZM124.13 27.52L124.13 27.52Q124.13 28.10 123.58 28.53Q123.04 28.96 122.50 28.96L122.50 28.96L112.32 28.96Q111.58 30.21 110.42 31.62Q109.25 33.02 107.94 34.29Q106.62 35.55 105.44 36.42L105.44 36.42Q106.66 36.35 108.35 36.21Q110.05 36.06 111.87 35.82Q113.70 35.58 115.30 35.20Q116.90 34.82 117.92 34.27L117.92 34.27Q117.31 33.89 116.72 33.49Q116.13 33.09 115.49 32.74L115.49 32.74L117.76 31.26Q118.40 31.74 119.31 32.59Q120.22 33.44 121.10 34.45Q121.98 35.46 122.58 36.46Q123.17 37.47 123.17 38.30L123.17 38.30Q123.17 39.01 122.77 39.55Q122.37 40.10 121.60 40.10L121.60 40.10Q120.99 40.10 120.50 39.70Q120 39.30 120 38.69L120 38.69Q120 38.11 120.43 37.70Q120.86 37.28 121.47 37.25L121.47 37.25Q120.83 36.48 119.98 35.81Q119.14 35.14 118.27 34.53L118.27 34.53Q117.18 35.81 116.02 36.46Q114.85 37.12 113.25 37.57L113.25 37.57Q110.59 38.27 107.82 38.64Q105.06 39.01 102.30 39.23L102.30 39.23L101.44 36.38Q101.79 36.38 102.11 36.38Q102.43 36.38 102.75 36.38L102.75 36.38Q103.10 36.35 103.41 36.34Q103.71 36.32 104.03 36.29L104.03 36.29Q104.90 35.33 105.76 34.08Q106.62 32.83 107.39 31.49Q108.16 30.14 108.67 28.96L108.67 28.96L99.14 28.96L99.14 27.81L121.15 27.81Q121.09 27.68 121.09 27.52L121.09 27.52Q121.09 26.91 121.54 26.43Q121.98 25.95 122.62 25.95L122.62 25.95Q123.26 25.95 123.70 26.45Q124.13 26.94 124.13 27.52ZM117.54 22.11L117.54 22.11Q117.54 22.78 117.10 23.09Q116.67 23.39 116.03 23.39L116.03 23.39L104.58 23.39L104.58 22.21L114.85 22.21Q114.85 21.76 115.25 21.25Q115.65 20.74 116.19 20.74L116.19 20.74Q116.74 20.74 117.14 21.17Q117.54 21.60 117.54 22.11ZM127.39 22.75L127.39 22.75Q127.39 23.36 126.98 23.74Q126.56 24.13 125.92 24.13L125.92 24.13Q124.54 24.13 123.17 23.60Q121.79 23.07 120.54 22.24Q119.30 21.41 118.27 20.58L118.27 20.58Q117.28 19.74 116.29 18.59Q115.30 17.44 114.43 16.18Q113.57 14.91 112.86 13.82L112.86 13.82Q112.51 13.98 111.86 14.32Q111.20 14.66 110.58 14.99Q109.95 15.33 109.66 15.55L109.66 15.55Q109.41 15.78 109.18 16.00Q108.96 16.22 108.74 16.48L108.74 16.48Q108.51 16.74 108.29 16.99Q108.06 17.25 107.84 17.50L107.84 17.50Q106.75 18.66 105.36 19.92Q103.97 21.18 102.50 22.34Q101.02 23.49 99.65 24.32L99.65 24.32Q99.55 24.38 99.15 24.58Q98.75 24.77 98.38 24.94Q98.02 25.12 97.89 25.12L97.89 25.12Q97.76 25.12 97.65 25.07Q97.54 25.02 97.54 24.90L97.54 24.90Q97.54 24.83 97.66 24.70L97.66 24.70Q98.11 24.35 98.56 24.00Q99.01 23.65 99.42 23.23L99.42 23.23Q101.12 21.50 102.90 19.30Q104.67 17.09 106.18 14.72Q107.68 12.35 108.58 10.14L108.58 10.14L111.78 11.07Q112.06 11.17 112.06 11.42L112.06 11.42Q112.06 11.58 111.81 11.98Q111.55 12.38 111.18 12.86Q110.82 13.34 110.48 13.78Q110.14 14.21 109.95 14.43L109.95 14.43Q110.30 14.24 111.06 13.81Q111.81 13.38 112.66 12.93Q113.50 12.48 114.18 12.16Q114.85 11.84 115.04 11.84L115.04 11.84Q115.36 11.84 115.49 12.03L115.49 12.03Q115.55 12.10 115.62 12.22L115.62 12.22Q115.65 12.29 115.71 12.48L115.71 12.48Q117.22 15.78 119.47 18.56Q121.73 21.34 124.80 23.33L124.80 23.33Q124.67 23.07 124.67 22.69L124.67 22.69Q124.67 22.14 125.07 21.78Q125.47 21.41 126.02 21.41L126.02 21.41Q126.56 21.41 126.98 21.81Q127.39 22.21 127.39 22.75ZM154.75 24.99L154.75 24.99Q154.75 28.26 153.31 30.66Q151.87 33.06 149.09 34.72L149.09 34.72Q148.51 35.07 147.57 35.52Q146.62 35.97 145.65 36.29Q144.67 36.61 144 36.61L144 36.61Q143.90 36.61 143.74 36.54Q143.58 36.48 143.58 36.35L143.58 36.35Q143.58 36.26 143.66 36.18Q143.74 36.10 143.81 36.06L143.81 36.06Q143.87 36 143.97 35.97Q144.06 35.94 144.16 35.90L144.16 35.90Q145.12 35.46 146.08 34.93Q147.04 34.40 147.84 33.70L147.84 33.70Q149.76 32.10 150.70 29.78Q151.65 27.46 151.65 24.99L151.65 24.99Q151.65 22.72 150.69 20.99Q149.73 19.26 148.02 18.30Q146.30 17.34 144.03 17.34L144.03 17.34Q142.21 17.34 140.58 18.13Q138.94 18.91 137.66 20.24Q136.38 21.57 135.66 23.25Q134.94 24.93 134.94 26.72L134.94 26.72Q134.94 27.10 134.98 27.73Q135.01 28.35 135.17 28.96Q135.33 29.57 135.65 29.98Q135.97 30.40 136.54 30.40L136.54 30.40Q137.18 30.40 137.94 29.70Q138.69 28.99 139.44 27.89Q140.19 26.78 140.86 25.57Q141.54 24.35 142.03 23.30Q142.53 22.24 142.75 21.70L142.75 21.70L145.44 23.42Q145.02 24.22 144.24 25.38Q143.46 26.53 142.46 27.74Q141.47 28.96 140.35 30.00Q139.23 31.04 138.13 31.70Q137.02 32.35 136.03 32.35L136.03 32.35Q135.14 32.35 134.46 31.81Q133.79 31.26 133.38 30.43Q132.96 29.60 132.75 28.69Q132.54 27.78 132.54 27.04L132.54 27.04Q132.54 24.64 133.60 22.61Q134.66 20.58 136.42 19.09Q138.18 17.60 140.37 16.78Q142.56 15.97 144.83 15.97L144.83 15.97Q147.62 15.97 149.87 16.99Q152.13 18.02 153.44 20.03Q154.75 22.05 154.75 24.99ZM187.94 16.86L187.94 16.86Q187.94 17.57 187.36 18.05Q186.78 18.53 186.14 18.56L186.14 18.56L179.23 18.72L179.14 24.16Q179.52 25.09 179.65 26.11Q179.78 27.14 179.78 28.16L179.78 28.16Q179.78 31.30 178.54 33.33Q177.31 35.36 175.17 36.61Q173.02 37.86 170.24 38.69L170.24 38.69Q169.73 38.82 169.01 38.99Q168.29 39.17 167.78 39.17L167.78 39.17Q167.65 39.17 167.54 39.09Q167.42 39.01 167.42 38.88L167.42 38.88Q167.42 38.72 167.60 38.64Q167.78 38.56 167.87 38.53L167.87 38.53Q168.51 38.34 169.10 38.14Q169.70 37.95 170.27 37.66L170.27 37.66Q172.26 36.64 173.78 35.33Q175.30 34.02 176.16 32.24Q177.02 30.46 177.02 28.16L177.02 28.16Q177.02 27.42 176.90 26.35Q176.77 25.28 176.51 24.64L176.51 24.64Q176.19 23.90 175.58 23.41Q174.98 22.91 174.14 22.91L174.14 22.91Q173.28 22.91 172.72 23.39Q172.16 23.87 171.89 24.62Q171.62 25.38 171.62 26.14L171.62 26.14Q171.62 26.82 171.78 27.63Q171.94 28.45 172.38 29.04Q172.83 29.63 173.70 29.63L173.70 29.63Q174.24 29.63 174.62 29.28Q175.01 28.93 175.23 28.58Q175.46 28.22 175.55 28.22L175.55 28.22Q175.78 28.22 175.78 28.38L175.78 28.38Q175.78 29.02 175.49 29.70Q175.20 30.37 174.67 30.83Q174.14 31.30 173.41 31.30L173.41 31.30Q172.13 31.30 171.17 30.58Q170.21 29.86 169.70 28.74Q169.18 27.62 169.18 26.43L169.18 26.43Q169.18 24.35 170.37 23.07Q171.55 21.79 173.66 21.79L173.66 21.79Q174.30 21.79 175.14 22.03Q175.97 22.27 176.48 22.66L176.48 22.66L176.45 18.75L163.62 19.01L163.62 17.73L176.42 17.44L176.38 12.90L179.33 12.93L179.30 17.47L184.54 17.38Q184.51 17.25 184.50 17.15Q184.48 17.06 184.48 16.93L184.48 16.93Q184.48 16.26 184.98 15.73Q185.47 15.20 186.18 15.20L186.18 15.20Q186.88 15.20 187.41 15.66Q187.94 16.13 187.94 16.86ZM222.24 31.87L222.24 31.87Q222.24 32.22 221.74 32.66Q221.25 33.09 220.66 33.39Q220.06 33.70 219.74 33.70L219.74 33.70Q219.39 33.70 219.04 33.57Q218.69 33.44 218.37 33.28L218.37 33.28Q215.65 31.94 213.54 30.27Q211.42 28.61 209.55 26.67Q207.68 24.74 205.63 22.59L205.63 22.59Q205.34 22.27 205.01 22.00Q204.67 21.73 204.22 21.73L204.22 21.73Q203.78 21.73 203.12 22.30Q202.46 22.88 201.73 23.78Q200.99 24.67 200.22 25.68Q199.46 26.69 198.77 27.58Q198.08 28.48 197.54 29.06Q196.99 29.63 196.67 29.63L196.67 29.63Q196.45 29.63 196.05 29.34Q195.65 29.06 195.23 28.64Q194.82 28.22 194.53 27.82Q194.24 27.42 194.24 27.20L194.24 27.20Q194.24 26.85 194.54 26.70Q194.85 26.56 195.10 26.43L195.10 26.43Q196.70 25.73 197.97 24.69Q199.23 23.65 200.38 22.46Q201.54 21.28 202.82 20.19L202.82 20.19Q203.26 19.81 203.70 19.62Q204.13 19.42 204.74 19.42L204.74 19.42Q205.34 19.42 205.95 19.54Q206.56 19.65 207.07 20.00L207.07 20.00Q207.55 20.32 207.95 20.82Q208.35 21.31 208.70 21.76L208.70 21.76Q209.54 22.78 210.45 23.79Q211.36 24.80 212.32 25.73L212.32 25.73Q213.12 26.50 214.18 27.38Q215.23 28.26 216.35 29.04Q217.47 29.82 218.43 30.30L218.43 30.30Q219.23 30.69 220.08 30.85Q220.93 31.01 221.73 31.36L221.73 31.36Q221.89 31.42 222.06 31.54Q222.24 31.65 222.24 31.87ZM213.22 14.62L213.22 14.62Q213.22 14.88 213.06 15.58Q212.90 16.29 212.64 17.10Q212.38 17.92 212.08 18.50Q211.78 19.07 211.52 19.07L211.52 19.07Q211.36 19.07 211.26 18.91L211.26 18.91Q211.26 18.91 211.18 18.29Q211.10 17.66 211.01 16.82Q210.91 15.97 210.83 15.28Q210.75 14.59 210.75 14.50L210.75 14.50Q210.75 14.34 211.10 14.27Q211.46 14.21 211.86 14.19Q212.26 14.18 212.35 14.18L212.35 14.18Q212.67 14.18 212.94 14.18Q213.22 14.18 213.22 14.62ZM217.02 14.08L217.02 14.08Q217.02 14.34 216.86 15.04Q216.70 15.74 216.45 16.56Q216.19 17.38 215.90 17.97Q215.62 18.56 215.36 18.56L215.36 18.56Q215.17 18.56 215.07 18.37L215.07 18.37Q214.94 17.41 214.88 16.38L214.88 16.38Q214.82 15.81 214.80 15.20Q214.78 14.59 214.62 14.05L214.62 14.05Q214.62 14.02 214.61 14.00Q214.59 13.98 214.59 13.95L214.59 13.95Q214.59 13.76 215.04 13.71Q215.49 13.66 215.98 13.66Q216.48 13.66 216.64 13.66L216.64 13.66Q217.02 13.66 217.02 14.08ZM250.85 36.19L250.85 36.19Q250.85 36.42 250.56 36.58Q250.27 36.74 250.11 36.80L250.11 36.80Q249.12 37.22 248.03 37.39Q246.94 37.57 245.89 37.57L245.89 37.57Q244.13 37.57 242.22 37.17Q240.32 36.77 238.70 35.87Q237.09 34.98 236.08 33.52Q235.07 32.06 235.07 29.92L235.07 29.92Q235.07 28.51 235.66 26.96Q236.26 25.41 237.15 23.95Q238.05 22.50 238.91 21.44L238.91 21.44Q239.74 20.45 240.64 19.44Q241.54 18.43 242.46 17.54L242.46 17.54Q238.98 18.21 235.52 18.86Q232.06 19.52 228.54 20.03L228.54 20.03Q228.42 19.58 228.26 19.14Q228.10 18.69 227.97 18.24L227.97 18.24Q231.33 17.98 234.69 17.52Q238.05 17.06 241.38 16.58L241.38 16.58Q241.79 16.51 242.19 16.43Q242.59 16.35 243.01 16.26L243.01 16.26Q243.78 16.10 244.56 15.81Q245.34 15.52 246.05 15.20L246.05 15.20Q246.11 15.17 246.19 15.14Q246.27 15.10 246.34 15.10L246.34 15.10Q246.59 15.10 246.99 15.54Q247.39 15.97 247.71 16.48Q248.03 16.99 248.03 17.18L248.03 17.18Q248.03 17.44 247.86 17.52Q247.68 17.60 247.49 17.70L247.49 17.70Q246.46 18.11 245.34 18.90Q244.22 19.68 243.20 20.59Q242.18 21.50 241.38 22.34L241.38 22.34Q240.51 23.23 239.74 24.35Q238.98 25.47 238.48 26.74Q237.98 28.00 237.98 29.28L237.98 29.28Q237.98 31.01 238.78 32.29Q239.58 33.57 240.88 34.40Q242.18 35.23 243.73 35.63Q245.28 36.03 246.82 36.03L246.82 36.03Q247.39 36.03 248 36Q248.61 35.97 249.18 35.84L249.18 35.84Q249.50 35.78 249.79 35.66Q250.08 35.55 250.40 35.55L250.40 35.55Q250.56 35.55 250.70 35.79Q250.85 36.03 250.85 36.19ZM271.94 18.62L271.94 18.62Q271.94 18.43 271.78 18.30Q271.62 18.18 271.42 18.18L271.42 18.18Q270.94 18.18 270.94 18.62L270.94 18.62Q270.94 19.07 271.42 19.07L271.42 19.07Q271.62 19.07 271.78 18.94Q271.94 18.82 271.94 18.62ZM276.29 31.26L276.29 31.26Q276.29 31.68 275.87 31.68L275.87 31.68Q275.26 31.68 274.77 31.42Q274.27 31.17 273.79 30.85L273.79 30.85Q273.63 31.42 273.63 31.90L273.63 31.90Q273.63 33.09 274.30 33.95L274.30 33.95Q274.34 34.14 274.08 34.14L274.08 34.14Q273.66 34.14 273.31 33.87Q272.96 33.60 272.45 33.60L272.45 33.60Q272.03 33.60 271.47 33.95Q270.91 34.30 270.94 34.82L270.94 34.82Q270.85 34.98 270.78 35.06Q270.72 35.14 270.50 35.14L270.50 35.14Q270.37 35.14 270.30 34.94Q270.24 34.75 270.24 34.66L270.24 34.66Q270.24 34.24 270.64 33.97Q271.04 33.70 271.58 33.34Q272.13 32.99 272.53 32.38Q272.93 31.78 272.93 30.72L272.93 30.72Q272.93 30.24 272.86 30.02Q272.80 29.79 272.66 29.60Q272.51 29.41 272.32 29.06L272.32 29.06Q271.87 28.22 271.66 27.28Q271.46 26.34 271.46 25.41L271.46 25.41Q271.46 24.90 271.54 24.42Q271.62 23.94 271.62 23.42L271.62 23.42Q271.62 22.78 271.14 22.46L271.14 22.46L271.01 22.46Q270.30 22.43 269.82 22.96Q269.34 23.49 269.04 24.29Q268.74 25.09 268.61 25.89Q268.48 26.69 268.48 27.23L268.48 27.23Q268.48 28.67 269.06 30.27Q269.63 31.87 270.66 32.90L270.66 32.90Q270.66 32.93 270.66 32.98Q270.66 33.02 270.66 33.09L270.66 33.09L270.62 33.15Q270.46 33.28 270.26 33.31Q270.05 33.34 269.82 33.34L269.82 33.34Q269.47 33.34 269.12 33.30Q268.77 33.25 268.42 33.18L268.42 33.18Q268.35 33.12 268.29 33.04Q268.22 32.96 268.22 32.83L268.22 32.83Q268.22 32.77 268.24 32.66Q268.26 32.54 268.35 32.54L268.35 32.54Q268.61 32.54 269.07 32.67Q269.54 32.80 269.82 32.86L269.82 32.86Q269.89 32.74 269.89 32.67L269.89 32.67Q269.89 32.48 269.73 32.32Q269.57 32.16 269.47 32.03L269.47 32.03Q268.99 31.36 268.70 30.53Q268.42 29.70 268.26 28.90L268.26 28.90L268.13 28.90Q267.87 28.86 267.62 29.01Q267.36 29.15 267.07 29.15L267.07 29.15Q266.78 29.15 266.62 28.96L266.62 28.96L266.66 28.77Q267.20 28.38 267.49 27.86Q267.78 27.33 267.97 26.72L267.97 26.72Q268.19 26.11 268.34 25.50Q268.48 24.90 268.70 24.29L268.70 24.29Q268.96 23.68 269.30 23.17Q269.63 22.66 270.02 22.14L270.02 22.14Q270.21 21.86 270.50 21.47Q270.78 21.09 270.91 20.77L270.91 20.77Q271.04 20.45 271.04 20.10L271.04 20.10Q271.04 19.58 270.69 19.33Q270.34 19.07 269.86 18.99Q269.38 18.91 268.99 18.91L268.99 18.91Q268.67 18.91 268.37 18.93Q268.06 18.94 267.74 18.94L267.74 18.94L267.71 18.88Q267.81 18.72 268.02 18.58Q268.22 18.43 268.42 18.43L268.42 18.43Q268.70 18.43 268.98 18.50Q269.25 18.56 269.54 18.56L269.54 18.56Q270.08 18.56 270.30 18.32Q270.53 18.08 270.75 17.84Q270.98 17.60 271.52 17.60L271.52 17.60Q272.29 17.60 272.85 18.08Q273.41 18.56 273.41 19.36L273.41 19.36Q273.41 19.90 273.22 20.42Q273.02 20.93 273.02 21.47L273.02 21.47Q273.02 21.98 273.38 22.38Q273.73 22.78 273.92 23.23L273.92 23.23Q274.27 24.03 274.45 24.90Q274.62 25.76 274.62 26.62L274.62 26.62Q274.62 26.88 274.59 27.14Q274.56 27.39 274.56 27.65L274.56 27.65Q274.56 28.48 274.96 29.28Q275.36 30.08 275.97 30.66L275.97 30.66Q276.10 30.78 276.19 30.93Q276.29 31.07 276.29 31.26ZM303.17 28.74L303.17 28.74Q302.37 28.10 301.97 27.18Q301.57 26.27 301.42 25.23Q301.28 24.19 301.28 23.26L301.28 23.26Q299.74 24.00 298.45 25.25Q297.15 26.50 296.37 28.10Q295.58 29.70 295.58 31.49L295.58 31.49Q295.58 32.10 295.97 32.66Q296.35 33.22 297.02 33.22L297.02 33.22Q297.63 33.22 298.50 32.70Q299.36 32.19 300.27 31.42Q301.18 30.66 301.97 29.92Q302.75 29.18 303.17 28.74ZM315.36 28.29L315.36 28.29Q315.36 30.88 314.37 32.77Q313.38 34.66 311.63 35.94Q309.89 37.22 307.55 38.05L307.55 38.05Q307.17 38.18 306.43 38.38Q305.70 38.59 304.96 38.77Q304.22 38.94 303.84 38.94L303.84 38.94Q303.74 38.94 303.62 38.90Q303.49 38.85 303.49 38.72L303.49 38.72Q303.49 38.59 303.62 38.51Q303.74 38.43 303.84 38.40L303.84 38.40Q304.61 38.05 305.39 37.76Q306.18 37.47 306.88 37.06L306.88 37.06Q309.44 35.62 310.88 33.47Q312.32 31.33 312.32 28.32L312.32 28.32Q312.32 26.72 311.36 25.36Q310.40 24.00 308.93 23.39L308.93 23.39Q308.13 23.04 307.23 22.88Q306.34 22.72 305.47 22.72L305.47 22.72Q305.02 22.72 304.56 22.77Q304.10 22.82 303.65 22.88L303.65 22.88Q303.55 24.35 303.55 25.89L303.55 25.89Q303.55 26.40 303.62 26.94Q303.68 27.49 303.90 28.00L303.90 28.00Q304.45 27.39 304.91 26.75Q305.38 26.11 305.79 25.44L305.79 25.44L308.10 26.88Q304.16 31.42 298.69 34.08L298.69 34.08Q298.02 34.40 297.28 34.64Q296.54 34.88 295.78 34.88L295.78 34.88Q294.56 34.88 293.84 33.92Q293.12 32.96 293.12 31.84L293.12 31.84Q293.12 29.44 294.29 27.54Q295.46 25.63 297.31 24.29Q299.17 22.94 301.28 22.24L301.28 22.24Q301.28 21.15 301.26 20.06Q301.25 18.98 301.28 17.89L301.28 17.89L294.53 18.05L294.53 16.80L301.28 16.64Q301.28 15.71 301.28 14.78Q301.28 13.86 301.31 12.96L301.31 12.96L304.22 12.96Q304.13 13.86 304.08 14.75Q304.03 15.65 303.97 16.58L303.97 16.58L308.22 16.45Q308.19 16.32 308.18 16.22Q308.16 16.13 308.16 16.00L308.16 16.00Q308.16 15.36 308.64 14.85Q309.12 14.34 309.79 14.34L309.79 14.34Q310.46 14.34 310.98 14.78Q311.49 15.23 311.49 15.94L311.49 15.94Q311.49 16.86 310.83 17.25Q310.18 17.63 309.30 17.70Q308.42 17.76 307.74 17.76L307.74 17.76L304.54 17.76Q304.38 17.76 304.22 17.76Q304.06 17.76 303.90 17.79L303.90 17.79Q303.87 18.78 303.81 19.79Q303.74 20.80 303.68 21.82L303.68 21.82Q304.32 21.66 304.98 21.62Q305.63 21.57 306.27 21.57L306.27 21.57Q307.39 21.57 308.48 21.68Q309.57 21.79 310.62 22.14L310.62 22.14Q312.64 22.85 314 24.46Q315.36 26.08 315.36 28.29ZM346.56 29.82L346.56 29.82Q346.56 29.92 346.50 30.14Q346.43 30.37 346.37 30.59L346.37 30.59Q346.18 31.04 346.02 31.33L346.02 31.33Q345.63 32.22 344.98 33.15Q344.32 34.08 343.68 34.62L343.68 34.62Q342.91 35.26 342.02 35.71Q341.12 36.16 340.19 36.16L340.19 36.16Q339.30 36.16 338.14 35.81Q336.99 35.46 336.13 34.56L336.13 34.56Q335.39 33.79 334.85 32.62Q334.30 31.46 333.97 30.11Q333.63 28.77 333.42 27.47Q333.22 26.18 333.15 25.12L333.15 25.12Q333.02 23.42 332.88 21.73Q332.74 20.03 332.67 18.43L332.67 18.43L335.84 18.24Q335.90 20.86 336 23.52Q336.10 26.18 336.48 28.80L336.48 28.80Q336.58 29.57 336.82 30.43Q337.06 31.30 337.52 32.06Q337.98 32.83 338.75 33.31Q339.52 33.79 340.67 33.79L340.67 33.79Q341.70 33.79 342.58 33.34Q343.46 32.90 344.19 32.21Q344.93 31.52 345.41 30.88L345.41 30.88Q345.57 30.66 345.79 30.32Q346.02 29.98 346.14 29.76L346.14 29.76Q346.30 29.57 346.43 29.57L346.43 29.57Q346.56 29.57 346.56 29.82ZM356.67 27.52L356.67 27.52Q356.67 28.96 355.20 29.50L355.20 29.50Q354.94 29.63 354.61 29.74Q354.27 29.86 353.89 30.02L353.89 30.02Q353.60 30.11 353.36 30.18Q353.12 30.24 352.99 30.24L352.99 30.24Q352.77 30.24 352.77 30.05L352.77 30.05Q352.77 29.89 352.93 29.82L352.93 29.82Q353.09 29.73 353.22 29.63Q353.34 29.54 353.47 29.47L353.47 29.47Q354.02 29.09 354.34 28.69Q354.66 28.29 354.66 27.78L354.66 27.78Q354.66 27.17 354.16 26.38Q353.66 25.60 352.86 24.77Q352.06 23.94 351.17 23.17Q350.27 22.40 349.47 21.81Q348.67 21.22 348.19 20.90L348.19 20.90Q348.16 20.83 348.10 20.80Q348.03 20.77 347.97 20.74L347.97 20.74Q347.90 20.67 347.90 20.51L347.90 20.51Q347.90 20.45 348.06 20.35L348.06 20.35Q348.16 20.19 348.26 20.19L348.26 20.19Q348.83 19.68 349.31 19.30Q349.79 18.91 350.40 18.46L350.40 18.46Q351.71 19.52 353.04 20.99Q354.37 22.46 355.17 23.68L355.17 23.68Q355.81 24.64 356.24 25.58Q356.67 26.53 356.67 27.52ZM391.71 27.14L391.71 27.14Q391.71 29.38 390.67 31.36Q389.63 33.34 388.10 34.88L388.10 34.88Q386.62 36.35 385.07 37.15Q383.52 37.95 381.60 38.69L381.60 38.69Q381.34 38.78 380.83 38.98Q380.32 39.17 379.82 39.31Q379.33 39.46 379.07 39.46L379.07 39.46Q378.85 39.46 378.85 39.17L378.85 39.17Q378.85 39.04 378.94 38.96Q379.04 38.88 379.14 38.85L379.14 38.85Q379.78 38.50 380.40 38.21Q381.02 37.92 381.63 37.54L381.63 37.54Q383.49 36.42 385.06 34.83Q386.62 33.25 387.58 31.26Q388.54 29.28 388.54 27.04L388.54 27.04Q388.54 25.73 388.11 24.58Q387.68 23.42 386.77 22.67Q385.86 21.92 384.38 21.89L384.38 21.89Q383.78 21.86 382.82 22.11Q381.86 22.37 380.80 22.78Q379.74 23.20 378.82 23.68L378.82 23.68Q378.24 24.00 377.70 24.35Q377.15 24.70 376.74 24.96L376.74 24.96Q376.61 25.06 376.43 25.09Q376.26 25.12 376.19 24.80L376.19 24.80Q376.13 24.26 375.97 23.54Q375.81 22.82 375.71 22.53L375.71 22.53Q377.15 22.02 378.78 21.52Q380.42 21.02 382.08 20.69Q383.74 20.35 385.25 20.38L385.25 20.38Q388.38 20.48 390.05 22.26Q391.71 24.03 391.71 27.14ZM387.36 17.12L387.36 17.12Q387.36 17.34 386.90 17.39Q386.43 17.44 386.27 17.44L386.27 17.44Q385.76 17.44 385.28 17.38Q384.80 17.31 384.32 17.22L384.32 17.22Q384.03 17.15 383.22 16.94Q382.40 16.74 381.47 16.43Q380.54 16.13 379.87 15.78Q379.20 15.42 379.20 15.10L379.20 15.10Q379.20 14.98 379.46 14.56Q379.71 14.14 380.06 13.65Q380.42 13.15 380.72 12.78Q381.02 12.42 381.12 12.42L381.12 12.42Q381.22 12.42 381.42 12.59Q381.63 12.77 381.70 12.83L381.70 12.83Q381.86 12.96 381.98 13.10Q382.11 13.25 382.24 13.41L382.24 13.41Q382.78 13.95 383.55 14.56Q384.32 15.17 385.17 15.68Q386.02 16.19 386.69 16.51L386.69 16.51Q386.91 16.61 387.14 16.72Q387.36 16.83 387.36 17.12ZM436.61 32.48L436.61 32.48Q436.61 32.74 436.54 33.04Q436.48 33.34 436.42 33.60L436.42 33.60Q436.10 34.91 435.23 35.89Q434.37 36.86 433.17 37.49Q431.97 38.11 430.64 38.42Q429.31 38.72 428.10 38.72L428.10 38.72Q427.07 38.72 426 38.46Q424.93 38.21 424 37.65Q423.07 37.09 422.51 36.22Q421.95 35.36 421.95 34.18L421.95 34.18Q421.95 32.19 422.82 30.40L422.82 30.40Q421.92 30.56 421.07 30.98Q420.22 31.39 419.42 31.84L419.42 31.84Q418.72 32.26 418.11 32.85Q417.50 33.44 416.99 34.02L416.99 34.02Q416.64 34.43 416.35 34.77Q416.06 35.10 415.78 35.58L415.78 35.58Q415.58 35.90 415.34 36.21Q415.10 36.51 414.66 36.51L414.66 36.51Q414.50 36.51 414.16 36.11Q413.82 35.71 413.54 35.23Q413.25 34.75 413.25 34.59L413.25 34.59Q413.25 34.43 413.41 34.29Q413.57 34.14 413.66 34.05L413.66 34.05Q414.02 33.73 414.91 32.78Q415.81 31.84 417.04 30.53Q418.27 29.22 419.55 27.81Q420.83 26.40 421.94 25.14Q423.04 23.87 423.73 22.98Q424.42 22.08 424.42 21.86L424.42 21.86Q424.42 21.73 424.32 21.73L424.32 21.73Q424.29 21.73 424.21 21.74Q424.13 21.76 424.06 21.76L424.06 21.76Q423.71 21.82 422.66 22.03Q421.60 22.24 420.27 22.48Q418.94 22.72 417.74 22.96Q416.54 23.20 415.87 23.36L415.87 23.36Q415.84 23.36 415.81 23.38Q415.78 23.39 415.71 23.39L415.71 23.39Q415.46 23.39 415.34 23.09Q415.23 22.78 415.22 22.42Q415.20 22.05 415.20 21.89L415.20 21.89Q415.20 21.15 415.46 21.17Q415.71 21.18 416.22 21.18L416.22 21.18Q417.15 21.18 418.46 21.07Q419.78 20.96 421.15 20.78Q422.53 20.61 423.68 20.40Q424.83 20.19 425.47 20.00L425.47 20.00Q425.92 19.87 426.35 19.71Q426.78 19.55 427.04 19.55L427.04 19.55Q427.23 19.55 427.66 19.78Q428.10 20.00 428.53 20.27Q428.96 20.54 429.09 20.67L429.09 20.67Q429.25 20.90 429.25 21.09L429.25 21.09Q429.25 21.41 429.06 21.62Q428.86 21.82 428.61 21.98L428.61 21.98Q427.87 22.43 426.82 23.22Q425.76 24.00 424.66 24.91Q423.55 25.82 422.66 26.69L422.66 26.69Q421.95 27.39 421.26 28.08Q420.58 28.77 419.87 29.50L419.87 29.50Q419.49 29.92 419.09 30.35Q418.69 30.78 418.34 31.23L418.34 31.23Q419.01 30.88 419.94 30.51Q420.86 30.14 421.86 29.79Q422.85 29.44 423.73 29.23Q424.61 29.02 425.15 29.02L425.15 29.02Q425.47 29.02 425.47 29.50L425.47 29.50Q425.47 29.92 425.15 30.43L425.15 30.43Q424.86 30.94 424.46 31.79Q424.06 32.64 424.06 33.38L424.06 33.38Q424.06 34.53 424.59 35.18Q425.12 35.84 426 36.13Q426.88 36.42 427.87 36.42L427.87 36.42Q429.76 36.42 431.74 35.78Q433.73 35.14 435.10 33.79L435.10 33.79Q435.46 33.44 435.76 33.10Q436.06 32.77 436.38 32.38L436.38 32.38Q436.45 32.32 436.48 32.32L436.48 32.32Q436.61 32.32 436.61 32.48ZM427.04 16.83L427.04 16.83Q427.04 17.09 426.59 17.17Q426.14 17.25 425.95 17.25L425.95 17.25Q425.63 17.25 424.90 17.15Q424.16 17.06 423.26 16.88Q422.37 16.70 421.52 16.46Q420.67 16.22 420.13 15.90Q419.58 15.58 419.58 15.20L419.58 15.20Q419.58 15.07 419.76 14.67Q419.94 14.27 420.19 13.81Q420.45 13.34 420.66 13.01Q420.86 12.67 420.96 12.67L420.96 12.67Q421.12 12.67 421.22 12.75Q421.31 12.83 421.41 12.90L421.41 12.90Q421.63 13.12 421.82 13.31Q422.02 13.50 422.21 13.70L422.21 13.70Q423.07 14.59 424.18 15.15Q425.28 15.71 426.37 16.26L426.37 16.26Q426.53 16.32 426.78 16.48Q427.04 16.64 427.04 16.83ZM458.82 31.36L458.82 26.05Q456.96 27.17 455.70 28.74Q454.43 30.30 454.43 31.87L454.43 31.87Q454.43 32.32 454.51 32.78Q454.59 33.25 454.75 33.63L454.75 33.63Q454.98 34.11 455.60 34.51Q456.22 34.91 456.77 34.91L456.77 34.91Q457.44 34.91 457.95 34.53Q458.46 34.14 458.62 33.57L458.62 33.57Q458.78 33.02 458.80 32.42Q458.82 31.81 458.82 31.36L458.82 31.36ZM472.96 30.02L472.96 30.02Q472.96 33.66 470.14 35.90L470.14 35.90Q469.09 36.70 467.79 37.25Q466.50 37.79 465.47 38.05L465.47 38.05Q465.31 38.08 465.04 38.16Q464.77 38.24 464.42 38.34L464.42 38.34Q464.16 38.37 464.03 38.42Q463.90 38.46 463.78 38.46L463.78 38.46Q463.74 38.46 463.65 38.42Q463.55 38.37 463.55 38.27L463.55 38.27Q463.55 38.18 463.66 38.11Q463.78 38.05 463.84 38.02L463.84 38.02Q464.13 37.92 464.67 37.66Q465.22 37.41 465.76 37.14Q466.30 36.86 466.59 36.67L466.59 36.67Q468.48 35.39 469.23 33.70Q469.98 32.00 469.98 29.89L469.98 29.89Q469.98 27.74 468.62 26.32Q467.26 24.90 464.70 24.90L464.70 24.90Q463.81 24.90 462.98 25.04Q462.14 25.18 461.41 25.44L461.41 25.44L461.41 31.01Q461.41 32.48 460.85 33.74Q460.29 35.01 459.25 35.76Q458.21 36.51 456.70 36.51L456.70 36.51Q455.71 36.51 454.70 36Q453.70 35.49 453.02 34.50Q452.35 33.50 452.35 32.06L452.35 32.06Q452.35 30.82 452.94 29.73Q453.54 28.64 454.51 27.74Q455.49 26.85 456.61 26.16Q457.73 25.47 458.78 25.06L458.78 25.06L458.78 19.74L452.45 19.94L452.45 18.72L458.75 18.56L458.75 13.50L461.41 13.50L461.41 18.50L464.58 18.37Q464.54 18.21 464.53 18.11Q464.51 18.02 464.51 17.89L464.51 17.89Q464.51 17.34 464.93 16.93Q465.34 16.51 465.95 16.51L465.95 16.51Q466.62 16.51 467.02 16.93Q467.42 17.34 467.42 17.98L467.42 17.98Q467.42 18.88 466.85 19.18Q466.27 19.49 465.66 19.55L465.66 19.55Q465.22 19.58 464.74 19.58Q464.26 19.58 463.78 19.62L463.78 19.62Q463.30 19.62 462.75 19.62Q462.21 19.62 461.41 19.65L461.41 19.65L461.41 24.32Q462.69 24.06 463.47 23.95Q464.26 23.84 464.96 23.84L464.96 23.84Q466.30 23.84 467.71 24.14Q469.12 24.45 470.30 25.15Q471.49 25.86 472.22 27.04Q472.96 28.22 472.96 30.02ZM478.66 21.09L478.66 21.09Q478.66 21.60 478.32 22.00Q477.98 22.40 477.41 22.66L477.41 22.66Q477.25 22.72 476.80 22.94Q476.35 23.17 475.97 23.33L475.97 23.33Q475.87 23.39 475.71 23.39L475.71 23.39Q475.55 23.33 475.55 23.23L475.55 23.23Q475.55 23.20 475.62 23.07L475.62 23.07Q475.87 22.78 476.16 22.35Q476.45 21.92 476.58 21.70L476.58 21.70Q476.74 21.41 476.74 21.18L476.74 21.18Q476.74 20.93 476.38 20.64L476.38 20.64Q476.06 20.38 475.42 20.05Q474.78 19.71 474.34 19.58L474.34 19.58Q473.25 19.20 472.53 18.99Q471.81 18.78 471.07 18.66L471.07 18.66Q470.82 18.66 470.82 18.50L470.82 18.50Q470.82 18.37 471.15 17.92Q471.49 17.47 471.87 16.99Q472.26 16.51 472.42 16.32L472.42 16.32Q472.58 16.16 472.70 16.16L472.70 16.16Q472.90 16.16 473.26 16.32Q473.63 16.48 474.05 16.67L474.05 16.67Q474.53 16.90 474.99 17.17Q475.46 17.44 475.78 17.63L475.78 17.63Q476.32 17.92 476.99 18.48Q477.66 19.04 478.16 19.71Q478.66 20.38 478.66 21.09Z"/></svg>