<svg xmlns="http://www.w3.org/2000/svg" xmlns:xlink="http://www.w3.org/1999/xlink" width="492.15999999999997" height="46.336"><path fill="black" stroke="none" d="M17.18 13.57L17.18 13.57L17.18 13.54Q17.18 13.25 16.83 12.99Q16.48 12.74 16.03 12.59Q15.58 12.45 15.26 12.45L15.26 12.45Q14.94 12.45 14.94 12.67L14.94 12.67Q14.94 12.70 14.96 12.74Q14.98 12.77 14.98 12.80L14.98 12.80Q15.10 13.12 15.15 13.54Q15.20 13.95 15.20 14.24L15.20 14.24Q15.04 18.85 13.87 22.51Q12.70 26.18 10.88 29.01Q9.06 31.84 6.82 34.02Q4.58 36.19 2.27 37.86L2.27 37.86Q1.54 38.40 1.54 38.75L1.54 38.75Q1.54 38.98 1.86 38.98L1.86 38.98Q2.24 38.98 2.82 38.62L2.82 38.62Q5.47 37.06 7.87 34.93Q10.27 32.80 12.21 29.95Q14.14 27.10 15.39 23.33L15.39 23.33Q16.96 26.40 18.78 28.86Q20.61 31.33 22.42 33.18Q24.22 35.04 25.76 36.27Q27.30 37.50 28.29 38.11Q29.28 38.72 29.47 38.72L29.47 38.72Q29.63 38.72 29.90 38.58Q30.18 38.43 30.69 38.05L30.69 38.05Q31.07 37.79 31.07 37.63L31.07 37.63Q31.07 37.44 30.62 37.25L30.62 37.25Q28.54 36.32 26.48 34.72Q24.42 33.12 22.50 31.01Q20.58 28.90 18.91 26.42Q17.25 23.94 16 21.31L16 21.31Q16.45 19.58 16.75 17.65Q17.06 15.71 17.18 13.57ZM42.34 22.02L42.34 20.67L47.55 20.38Q47.97 20.32 47.97 20.03L47.97 20.03Q47.97 19.84 47.62 19.46Q47.26 19.07 46.69 19.07L46.69 19.07Q46.59 19.07 46.53 19.10L46.53 19.10Q46.24 19.20 45.97 19.23Q45.70 19.26 45.34 19.30L45.34 19.30L42.37 19.46L42.43 12.83Q42.43 12.51 42.14 12.30Q41.86 12.10 41.49 11.97Q41.12 11.84 40.93 11.84L40.93 11.84Q40.74 11.84 40.74 12.00L40.74 12.00Q40.74 12.00 40.80 12.19L40.80 12.19Q41.09 12.90 41.09 13.86L41.09 13.86L41.06 19.55L36.45 19.81L36.19 19.81Q35.94 19.81 35.60 19.78Q35.26 19.74 34.91 19.65L34.91 19.65Q34.88 19.65 34.85 19.63Q34.82 19.62 34.78 19.62L34.78 19.62Q34.66 19.62 34.66 19.74L34.66 19.74Q34.66 19.84 34.69 19.90L34.69 19.90Q34.98 20.67 35.41 20.85Q35.84 21.02 36.26 21.02L36.26 21.02Q36.38 21.02 36.54 21.01Q36.70 20.99 36.86 20.99L36.86 20.99L40.38 20.77Q39.10 22.69 37.73 24.10Q36.35 25.50 34.78 26.82L34.78 26.82Q34.27 27.23 34.27 27.52L34.27 27.52Q34.27 27.71 34.50 27.71L34.50 27.71Q34.91 27.71 35.97 26.98Q37.02 26.24 38.40 24.93Q39.78 23.62 41.09 21.95L41.09 21.95L41.02 23.68Q40.99 24.10 40.98 24.53Q40.96 24.96 40.86 25.63L40.86 25.63Q40.86 25.73 40.85 25.81Q40.83 25.89 40.83 25.95L40.83 25.95Q40.83 26.27 41.09 26.48Q41.34 26.69 41.62 26.78Q41.89 26.88 41.92 26.88L41.92 26.88Q42.18 26.88 42.22 26.70Q42.27 26.53 42.27 26.40L42.27 26.40L42.30 22.72Q43.33 23.39 44.48 24.30Q45.63 25.22 46.56 26.08L46.56 26.08Q46.85 26.30 46.98 26.30L46.98 26.30Q47.36 26.30 47.58 25.89Q47.81 25.47 47.81 25.38L47.81 25.38Q47.81 25.02 47.55 24.86L47.55 24.86Q46.46 24.03 45.36 23.25Q44.26 22.46 43.23 21.82L43.23 21.82Q43.14 21.76 43.04 21.73Q42.94 21.70 42.85 21.70L42.85 21.70Q42.72 21.70 42.59 21.76Q42.46 21.82 42.34 22.02L42.34 22.02ZM51.65 32.93L51.65 32.35L60.29 32.06Q60.48 32.06 60.64 31.98Q60.80 31.90 60.80 31.68L60.80 31.68Q60.80 31.52 60.66 31.28Q60.51 31.04 60.13 30.72L60.13 30.72L60.51 19.94Q60.51 19.78 60.58 19.63Q60.64 19.49 60.64 19.33L60.64 19.33Q60.64 19.01 60.27 18.74Q59.90 18.46 59.46 18.46L59.46 18.46L59.20 18.46L54.08 18.82Q54.62 18.11 55.12 17.36Q55.62 16.61 56.03 15.81L56.03 15.81Q56.06 15.78 56.06 15.68L56.06 15.68Q56.06 15.36 55.58 15.04L55.58 15.04L61.82 14.66Q62.27 14.59 62.27 14.24L62.27 14.24Q62.27 13.82 61.74 13.47Q61.22 13.12 60.96 13.12L60.96 13.12Q60.86 13.12 60.74 13.18L60.74 13.18Q60.22 13.41 59.52 13.47L59.52 13.47L49.63 14.08L49.31 14.08Q49.06 14.08 48.72 14.05Q48.38 14.02 48.10 13.98L48.10 13.98L48 13.98Q47.84 13.98 47.84 14.08L47.84 14.08Q47.84 14.18 47.87 14.24L47.87 14.24Q48.10 15.10 48.59 15.26Q49.09 15.42 49.41 15.42L49.41 15.42Q49.57 15.42 49.76 15.41Q49.95 15.39 50.11 15.39L50.11 15.39L54.27 15.14Q54.27 15.23 54.21 15.65Q54.14 16.06 53.78 16.85Q53.41 17.63 52.54 18.91L52.54 18.91L51.39 19.01Q50.78 18.66 50.38 18.53Q49.98 18.40 49.79 18.40L49.79 18.40Q49.54 18.40 49.54 18.62L49.54 18.62Q49.54 18.72 49.58 18.83Q49.63 18.94 49.66 19.10L49.66 19.10Q49.89 19.74 49.89 20.70L49.89 20.70L50.05 30.53Q50.05 30.82 50.02 31.23Q49.98 31.65 49.92 32.13L49.92 32.13L49.92 32.29Q49.92 32.51 50.10 32.75Q50.27 32.99 50.78 33.25L50.78 33.25Q50.91 33.28 51.01 33.33Q51.10 33.38 51.17 33.38L51.17 33.38Q51.42 33.38 51.54 33.23Q51.65 33.09 51.65 32.93L51.65 32.93ZM43.46 18.75L43.46 18.75Q43.81 18.75 44.42 18.21Q45.02 17.66 45.66 16.94Q46.30 16.22 46.75 15.62Q47.20 15.01 47.20 14.88L47.20 14.88Q47.20 14.72 46.98 14.43Q46.75 14.14 46.46 13.89Q46.18 13.63 45.92 13.63L45.92 13.63Q45.70 13.63 45.70 14.02L45.70 14.02Q45.70 14.56 45.41 15.18Q45.12 15.81 44.72 16.37Q44.32 16.93 43.97 17.33Q43.62 17.73 43.52 17.86L43.52 17.86Q43.17 18.27 43.17 18.50L43.17 18.50Q43.17 18.75 43.46 18.75ZM40.03 18.05L40.03 18.05Q40.03 17.86 39.60 17.30Q39.17 16.74 38.56 16.08Q37.95 15.42 37.39 14.94Q36.83 14.46 36.58 14.46L36.58 14.46Q36.38 14.46 36.16 14.69L36.16 14.69Q35.94 14.98 35.94 15.17L35.94 15.17Q35.94 15.36 36.19 15.62L36.19 15.62Q36.83 16.16 37.49 16.93Q38.14 17.70 38.69 18.50L38.69 18.50Q38.94 18.85 39.20 18.85L39.20 18.85Q39.46 18.85 39.74 18.51Q40.03 18.18 40.03 18.05ZM51.39 20.35L58.91 19.87L58.85 22.56L51.46 22.88L51.39 20.35ZM51.46 24.16L58.78 23.81L58.72 26.46L51.52 26.78L51.46 24.16ZM42.11 31.17L48.42 30.85L48.51 30.85Q48.96 30.78 48.96 30.50L48.96 30.50Q48.96 30.21 48.51 29.79Q48.06 29.38 47.58 29.38L47.58 29.38L47.49 29.38Q47.23 29.44 46.90 29.49Q46.56 29.54 46.21 29.57L46.21 29.57L42.34 29.76Q42.40 29.31 42.42 28.86Q42.43 28.42 42.46 27.94L42.46 27.94Q42.46 27.65 42.16 27.46Q41.86 27.26 41.49 27.15Q41.12 27.04 40.86 27.04L40.86 27.04Q40.54 27.04 40.54 27.23L40.54 27.23Q40.54 27.26 40.61 27.39L40.61 27.39Q40.74 27.68 40.82 28.00Q40.90 28.32 40.90 28.67L40.90 28.67L40.90 28.93L40.80 29.86L36.35 30.08L36.16 30.08Q35.84 30.08 35.49 30.03Q35.14 29.98 34.82 29.86L34.82 29.86Q34.78 29.86 34.75 29.84Q34.72 29.82 34.69 29.82L34.69 29.82Q34.56 29.82 34.56 29.95L34.56 29.95Q34.56 30.05 34.75 30.56L34.75 30.56Q35.07 31.07 35.38 31.26Q35.68 31.46 36.48 31.46L36.48 31.46L36.74 31.46L40.54 31.26Q39.94 33.89 38.46 35.57Q36.99 37.25 34.53 38.56L34.53 38.56Q33.82 38.94 33.82 39.26L33.82 39.26Q33.82 39.49 34.18 39.49L34.18 39.49Q34.27 39.49 35.14 39.18Q36 38.88 37.22 38.19Q38.43 37.50 39.60 36.34Q40.77 35.17 41.44 33.44L41.44 33.44Q42.62 34.34 43.89 35.44Q45.15 36.54 46.46 37.76L46.46 37.76Q46.69 37.98 46.91 37.98L46.91 37.98Q47.26 37.98 47.52 37.60Q47.78 37.22 47.78 37.02L47.78 37.02Q47.78 36.70 47.42 36.42L47.42 36.42Q44.70 34.05 41.89 32.16L41.89 32.16L42.11 31.17ZM51.55 28.03L58.69 27.71L58.59 30.75L51.62 31.04L51.55 28.03ZM54.02 34.85L54.02 34.85Q54.24 34.62 54.24 34.43L54.24 34.43Q54.24 34.11 53.90 33.74Q53.57 33.38 53.18 33.12Q52.80 32.86 52.70 32.86L52.70 32.86Q52.48 32.86 52.42 33.34L52.42 33.34Q52.38 33.86 51.92 34.58Q51.46 35.30 50.75 36.11Q50.05 36.93 49.26 37.70Q48.48 38.46 47.74 39.04L47.74 39.04Q47.26 39.46 47.26 39.74L47.26 39.74Q47.26 39.94 47.52 39.94L47.52 39.94Q47.71 39.94 48.61 39.46Q49.50 38.98 50.93 37.87Q52.35 36.77 54.02 34.85ZM62.05 39.36L62.05 39.36Q62.34 39.07 62.34 38.78L62.34 38.78Q62.34 38.53 61.82 37.86Q61.31 37.18 60.56 36.37Q59.81 35.55 59.01 34.77Q58.21 33.98 57.62 33.49Q57.02 32.99 56.90 32.99L56.90 32.99Q56.77 32.99 56.42 33.22Q56.06 33.44 56.06 33.82L56.06 33.82Q56.06 34.11 56.42 34.40L56.42 34.40Q57.63 35.52 58.72 36.75Q59.81 37.98 60.90 39.39L60.90 39.39Q61.18 39.78 61.41 39.78L61.41 39.78Q61.63 39.78 62.05 39.36ZM75.39 17.25L75.39 17.25Q75.65 16.90 75.65 16.67L75.65 16.67Q75.65 16.42 75.23 15.95Q74.82 15.49 74.16 14.91Q73.50 14.34 72.83 13.82Q72.16 13.31 71.62 12.98Q71.07 12.64 70.88 12.64L70.88 12.64Q70.53 12.64 70.35 12.98Q70.18 13.31 70.18 13.44L70.18 13.44Q70.18 13.66 70.43 13.86L70.43 13.86Q71.36 14.56 72.40 15.50Q73.44 16.45 74.21 17.28L74.21 17.28Q74.56 17.70 74.78 17.70L74.78 17.70Q75.01 17.70 75.39 17.25ZM77.12 37.22L77.63 37.22L93.95 36.80Q94.53 36.74 94.53 36.35L94.53 36.35Q94.53 36.10 94.06 35.62Q93.60 35.14 93.15 35.14L93.15 35.14Q93.09 35.14 92.90 35.20L92.90 35.20Q92.32 35.39 91.62 35.39L91.62 35.39L85.66 35.55L85.70 25.28L91.58 24.96Q92.10 24.93 92.10 24.54L92.10 24.54Q92.10 24.22 91.81 23.97Q91.52 23.71 91.22 23.57Q90.91 23.42 90.85 23.42L90.85 23.42Q90.78 23.42 90.72 23.44Q90.66 23.46 90.59 23.49L90.59 23.49Q90.30 23.58 90.03 23.62Q89.76 23.65 89.38 23.68L89.38 23.68L85.70 23.87L85.73 14.11Q85.73 13.66 85.15 13.44Q84.58 13.22 84.03 13.22L84.03 13.22Q83.68 13.22 83.68 13.41L83.68 13.41Q83.68 13.47 83.71 13.54L83.71 13.54Q84.10 14.34 84.10 15.20L84.10 15.20L84.10 23.97L79.58 24.19L79.42 24.19Q79.10 24.19 78.77 24.13Q78.43 24.06 78.08 24.00L78.08 24.00Q78.05 23.97 77.95 23.97L77.95 23.97Q77.82 23.97 77.82 24.13L77.82 24.13Q77.82 24.16 77.84 24.19Q77.86 24.22 77.86 24.29L77.86 24.29Q77.86 24.32 78 24.64Q78.14 24.96 78.46 25.28Q78.78 25.60 79.36 25.60L79.36 25.60Q79.49 25.60 79.63 25.58Q79.78 25.57 79.97 25.57L79.97 25.57L84.10 25.34L84.10 35.58L77.28 35.74Q76.58 35.74 75.74 35.49L75.74 35.49Q75.71 35.49 75.68 35.47Q75.65 35.46 75.62 35.46L75.62 35.46Q75.49 35.46 75.49 35.62L75.49 35.62Q75.49 35.81 75.68 36.26Q75.87 36.70 76.13 36.96L76.13 36.96Q76.32 37.12 76.56 37.17Q76.80 37.22 77.12 37.22L77.12 37.22ZM71.87 38.34L71.87 38.34L71.87 38.53Q71.87 38.88 72.16 39.14Q72.45 39.39 72.75 39.54Q73.06 39.68 73.12 39.68L73.12 39.68Q73.63 39.68 73.63 39.20L73.63 39.20L73.54 26.91Q74.66 27.71 75.68 28.59Q76.70 29.47 77.57 30.21L77.57 30.21Q77.79 30.43 77.98 30.43L77.98 30.43Q78.21 30.43 78.56 29.89L78.56 29.89Q78.72 29.57 78.72 29.38L78.72 29.38Q78.72 29.06 78.37 28.80L78.37 28.80Q77.31 27.97 76.16 27.10Q75.01 26.24 73.50 25.34L73.50 25.34L73.50 25.22Q74.08 24.48 74.72 23.50Q75.36 22.53 75.92 21.62Q76.48 20.70 76.83 20.05Q77.18 19.39 77.18 19.26L77.18 19.26Q77.18 19.04 76.83 18.75Q76.48 18.46 76.03 18.46L76.03 18.46L75.84 18.46L68.64 19.26Q68.42 19.30 68.16 19.31Q67.90 19.33 67.68 19.33L67.68 19.33Q67.49 19.33 67.30 19.31Q67.10 19.30 66.94 19.26L66.94 19.26Q66.91 19.26 66.88 19.25Q66.85 19.23 66.82 19.23L66.82 19.23Q66.62 19.23 66.62 19.39L66.62 19.39Q66.62 19.39 66.69 19.58L66.69 19.58Q66.85 19.94 67.20 20.42Q67.55 20.90 68.06 20.90L68.06 20.90Q68.29 20.90 68.56 20.83Q68.83 20.77 69.25 20.74L69.25 20.74L74.94 20.00Q73.22 23.33 70.96 26.21Q68.70 29.09 66.08 31.33L66.08 31.33Q65.38 31.94 65.38 32.35L65.38 32.35Q65.38 32.58 65.60 32.58L65.60 32.58Q65.89 32.58 66.62 32.06Q67.36 31.55 68.30 30.74Q69.25 29.92 70.24 28.94Q71.23 27.97 72.03 27.04L72.03 27.04L72 36.51Q72 37.12 71.97 37.50Q71.94 37.89 71.87 38.34ZM111.30 15.10L111.30 15.10Q113.15 16.86 115.09 18.42Q117.02 19.97 118.85 21.22Q120.67 22.46 122.16 23.38Q123.65 24.29 124.56 24.78Q125.47 25.28 125.60 25.28L125.60 25.28Q125.86 25.28 126.19 25.01Q126.53 24.74 126.77 24.45Q127.01 24.16 127.01 24.13L127.01 24.13Q127.01 23.94 126.62 23.78L126.62 23.78Q124 22.50 121.58 21.09Q119.17 19.68 116.86 17.95Q114.56 16.22 112.19 13.98L112.19 13.98Q112.48 13.57 112.78 13.15Q113.09 12.74 113.38 12.32L113.38 12.32Q113.44 12.19 113.44 12.13L113.44 12.13Q113.44 11.84 113.10 11.55Q112.77 11.26 112.38 11.06Q112 10.85 111.78 10.85L111.78 10.85Q111.52 10.85 111.52 11.10L111.52 11.10Q111.52 11.39 111.44 11.66Q111.36 11.94 111.30 12.03L111.30 12.03Q109.70 14.75 107.47 17.17Q105.25 19.58 102.72 21.65Q100.19 23.71 97.60 25.41L97.60 25.41Q96.77 25.95 96.77 26.34L96.77 26.34Q96.77 26.56 97.06 26.56L97.06 26.56Q97.41 26.56 97.92 26.27L97.92 26.27Q101.73 24.19 105.06 21.49Q108.38 18.78 111.30 15.10ZM107.68 23.94L107.68 23.94L117.09 23.36Q117.50 23.30 117.50 22.94L117.50 22.94Q117.50 22.62 117.02 22.21Q116.54 21.79 116.13 21.79L116.13 21.79Q116.03 21.79 115.95 21.81Q115.87 21.82 115.78 21.86L115.78 21.86Q115.14 22.14 114.02 22.18L114.02 22.18L107.49 22.53Q107.36 22.53 107.22 22.54Q107.07 22.56 106.91 22.56L106.91 22.56Q106.62 22.56 106.32 22.53Q106.02 22.50 105.66 22.43L105.66 22.43Q105.63 22.43 105.60 22.42Q105.57 22.40 105.54 22.40L105.54 22.40Q105.34 22.40 105.34 22.56L105.34 22.56Q105.34 22.62 105.49 22.98Q105.63 23.33 105.98 23.65Q106.34 23.97 106.91 23.97L106.91 23.97Q107.07 23.97 107.26 23.97Q107.46 23.97 107.68 23.94ZM111.01 29.02L111.01 29.02L123.14 28.54Q123.55 28.48 123.55 28.13L123.55 28.13Q123.55 27.87 123.28 27.58Q123.01 27.30 122.67 27.09Q122.34 26.88 122.08 26.88L122.08 26.88Q121.95 26.88 121.82 26.94L121.82 26.94Q121.38 27.07 120.94 27.12Q120.51 27.17 120 27.20L120 27.20L102.05 28.00L101.66 28.00Q101.34 28.00 101.01 27.97Q100.67 27.94 100.32 27.87L100.32 27.87Q100.29 27.87 100.26 27.86Q100.22 27.84 100.16 27.84L100.16 27.84Q100 27.84 100 28.00L100 28.00Q100 28.10 100.03 28.16L100.03 28.16Q100.29 28.83 100.74 29.18L100.74 29.18Q100.90 29.31 101.09 29.36Q101.28 29.41 101.54 29.41L101.54 29.41Q101.70 29.41 101.90 29.39Q102.11 29.38 102.34 29.38L102.34 29.38L108.96 29.12Q107.90 31.07 106.77 33.01Q105.63 34.94 104.51 36.58L104.51 36.58Q103.46 36.70 102.94 36.75Q102.43 36.80 102.21 36.80L102.21 36.80Q101.98 36.80 101.79 36.78Q101.60 36.77 101.41 36.74L101.41 36.74L101.31 36.74Q101.12 36.74 101.12 36.90L101.12 36.90Q101.12 36.93 101.14 36.96Q101.15 36.99 101.15 37.02L101.15 37.02Q101.44 37.98 101.86 38.18Q102.27 38.37 102.59 38.37L102.59 38.37Q102.88 38.37 103.92 38.24Q104.96 38.11 106.48 37.89Q108 37.66 109.71 37.41Q111.42 37.15 113.09 36.90Q114.75 36.64 116.11 36.43Q117.47 36.22 118.24 36.10L118.24 36.10Q118.88 36.90 119.49 37.73Q120.10 38.56 120.67 39.39L120.67 39.39Q120.93 39.74 121.22 39.74L121.22 39.74Q121.47 39.74 121.86 39.46L121.86 39.46Q122.24 39.17 122.24 38.78L122.24 38.78Q122.24 38.40 121.98 38.11L121.98 38.11Q120.45 36.16 118.85 34.32Q117.25 32.48 115.62 30.72L115.62 30.72Q115.36 30.46 115.10 30.46L115.10 30.46Q114.91 30.46 114.59 30.66Q114.27 30.85 114.27 31.20L114.27 31.20Q114.27 31.42 114.56 31.71L114.56 31.71Q115.26 32.45 115.95 33.26Q116.64 34.08 117.34 34.94L117.34 34.94Q115.78 35.17 113.89 35.42Q112 35.68 110.05 35.92Q108.10 36.16 106.34 36.38L106.34 36.38Q107.36 34.98 108.53 33.12Q109.70 31.26 111.01 29.02ZM145.38 17.09L145.38 17.09L145.50 17.09Q147.78 17.09 149.33 17.76Q150.88 18.43 151.82 19.57Q152.77 20.70 153.18 22.13Q153.60 23.55 153.60 25.09L153.60 25.09Q153.60 25.34 153.60 25.60Q153.60 25.86 153.57 26.11L153.57 26.11Q153.41 27.97 152.46 29.55Q151.52 31.14 150.13 32.42Q148.74 33.70 147.20 34.67Q145.66 35.65 144.32 36.29L144.32 36.29Q143.49 36.67 143.49 37.02L143.49 37.02Q143.49 37.28 143.97 37.28L143.97 37.28Q144.26 37.28 145.18 36.98Q146.11 36.67 147.39 36.05Q148.67 35.42 150.05 34.45Q151.42 33.47 152.62 32.11Q153.82 30.75 154.58 29.01Q155.33 27.26 155.33 25.09L155.33 25.09Q155.33 22.56 154.30 20.40Q153.28 18.24 151.12 16.93Q148.96 15.62 145.54 15.62L145.54 15.62L145.25 15.62Q143.36 15.65 141.50 16.29Q139.65 16.93 138.03 18.05Q136.42 19.17 135.18 20.58Q133.95 21.98 133.25 23.58Q132.54 25.18 132.54 26.78L132.54 26.78Q132.54 28.45 133.33 30.14Q134.11 31.84 135.78 33.31L135.78 33.31Q136.35 33.82 137.18 33.82L137.18 33.82Q137.54 33.82 137.89 33.68Q138.24 33.54 138.50 33.22L138.50 33.22Q139.87 31.58 140.88 29.58Q141.89 27.58 142.58 25.57Q143.26 23.55 143.70 21.84Q144.13 20.13 144.32 19.04Q144.51 17.95 144.51 17.82L144.51 17.82Q144.51 17.44 144.22 17.15L144.22 17.15Q144.48 17.12 144.77 17.10Q145.06 17.09 145.38 17.09ZM142.62 17.41L142.62 17.41Q142.62 17.41 142.78 17.66Q142.94 17.92 142.94 18.08L142.94 18.08Q142.91 18.37 142.72 19.41Q142.53 20.45 142.14 21.94Q141.76 23.42 141.15 25.14Q140.54 26.85 139.71 28.54Q138.88 30.24 137.82 31.65L137.82 31.65Q137.47 32.10 137.12 32.10L137.12 32.10Q136.80 32.10 136.58 31.87L136.58 31.87Q136.26 31.62 135.65 30.91Q135.04 30.21 134.54 29.14Q134.05 28.06 134.05 26.78L134.05 26.78Q134.05 25.73 134.61 24.34Q135.17 22.94 136.26 21.54Q137.34 20.13 138.94 19.02Q140.54 17.92 142.62 17.41ZM188.61 17.92L188.61 17.92L188.61 17.86Q188.61 17.47 188.16 17.26Q187.71 17.06 187.17 16.96L187.17 16.96L187.01 16.96Q186.69 16.96 186.43 17.10Q186.18 17.25 185.86 17.28L185.86 17.28Q184.38 17.31 182.67 17.46Q180.96 17.60 179.07 17.76L179.07 17.76L179.07 13.98Q179.07 13.63 179.06 13.46Q179.04 13.28 178.91 13.15L178.91 13.15Q178.78 12.99 178.22 12.82Q177.66 12.64 177.22 12.64L177.22 12.64Q176.86 12.64 176.86 12.96L176.86 12.96Q176.86 13.12 177.09 13.31L177.09 13.31Q177.44 13.54 177.49 13.92Q177.54 14.30 177.54 15.46L177.54 15.46L177.54 17.92Q174.59 18.24 171.52 18.69Q168.45 19.14 165.73 19.65L165.73 19.65Q165.60 19.68 165.47 19.68Q165.34 19.68 165.25 19.68L165.25 19.68Q164.93 19.68 164.69 19.63Q164.45 19.58 164.22 19.58L164.22 19.58Q164.10 19.58 163.95 19.62Q163.81 19.65 163.81 19.84L163.81 19.84Q163.81 20.10 164.27 20.64Q164.74 21.18 165.47 21.18L165.47 21.18Q165.70 21.18 165.95 21.14Q166.21 21.09 166.46 21.06L166.46 21.06Q168.96 20.51 171.79 20.10Q174.62 19.68 177.54 19.36L177.54 19.36L177.60 22.75Q176.80 22.27 175.78 22.27L175.78 22.27Q174.91 22.27 174.19 22.83Q173.47 23.39 173.04 24.34Q172.61 25.28 172.61 26.46L172.61 26.46Q172.61 28.06 173.23 29.06Q173.86 30.05 174.75 30.50Q175.65 30.94 176.51 30.94L176.51 30.94Q176.96 30.94 177.34 30.85L177.34 30.85Q176.86 32.48 176 33.90Q175.14 35.33 174.18 36.46Q173.22 37.60 172.42 38.40L172.42 38.40Q172.19 38.62 171.98 38.83Q171.78 39.04 171.78 39.23L171.78 39.23Q171.78 39.30 171.84 39.36L171.84 39.36Q171.94 39.46 172.10 39.46L172.10 39.46Q172.48 39.46 173.38 38.78Q174.27 38.11 175.36 36.93Q176.45 35.74 177.47 34.19Q178.50 32.64 179.15 30.85Q179.81 29.06 179.81 27.20L179.81 27.20Q179.81 26.50 179.66 25.78Q179.52 25.06 179.14 24.35L179.14 24.35Q179.10 23.71 179.09 22.26Q179.07 20.80 179.07 19.20L179.07 19.20Q181.28 18.98 183.39 18.83Q185.50 18.69 187.46 18.62L187.46 18.62Q188.61 18.59 188.61 17.92ZM174.11 26.75L174.11 26.75L174.11 26.66Q174.11 25.47 174.43 24.83Q174.75 24.19 175.14 23.92Q175.52 23.65 175.74 23.65L175.74 23.65L175.84 23.65Q176.58 23.65 177.09 24.21Q177.60 24.77 177.87 25.58Q178.14 26.40 178.14 27.14L178.14 27.14Q178.14 28.16 177.71 28.77Q177.28 29.38 176.45 29.38L176.45 29.38Q175.62 29.38 174.88 28.67Q174.14 27.97 174.11 26.75ZM217.02 19.78L217.02 19.78Q217.02 19.55 216.53 19.06Q216.03 18.56 215.34 18.00Q214.66 17.44 214.06 17.04Q213.47 16.64 213.28 16.64L213.28 16.64Q212.99 16.64 212.78 16.85Q212.58 17.06 212.58 17.31L212.58 17.31Q212.58 17.57 212.80 17.70L212.80 17.70Q213.18 17.95 213.74 18.48Q214.30 19.01 214.85 19.55Q215.39 20.10 215.68 20.45L215.68 20.45Q215.87 20.67 216.13 20.67L216.13 20.67Q216.48 20.67 216.75 20.38Q217.02 20.10 217.02 19.78ZM213.92 22.50L213.92 22.50Q214.24 22.50 214.50 22.21Q214.75 21.92 214.75 21.60L214.75 21.60Q214.75 21.31 214.30 20.83Q213.86 20.35 213.23 19.82Q212.61 19.30 212.10 18.91Q211.58 18.53 211.46 18.43L211.46 18.43Q211.26 18.34 211.10 18.34L211.10 18.34Q210.82 18.34 210.62 18.54Q210.43 18.75 210.43 19.01L210.43 19.01Q210.43 19.26 210.62 19.42L210.62 19.42Q210.98 19.71 211.55 20.27Q212.13 20.83 212.67 21.39Q213.22 21.95 213.44 22.24L213.44 22.24Q213.63 22.50 213.92 22.50ZM219.10 31.07L219.10 31.07Q217.63 30.27 215.62 28.78Q213.60 27.30 211.33 25.38Q209.06 23.46 206.75 21.44L206.75 21.44Q206.21 20.93 205.68 20.62Q205.15 20.32 204.61 20.32L204.61 20.32Q204.10 20.32 203.47 20.66Q202.85 20.99 202.05 21.73L202.05 21.73Q200.74 22.94 199.26 24.30Q197.79 25.66 196.26 26.59L196.26 26.59Q195.74 26.91 195.39 26.83Q195.04 26.75 194.88 27.01L194.88 27.01Q194.85 27.04 194.85 27.14L194.85 27.14Q194.85 27.26 195.09 27.55Q195.33 27.84 195.66 28.06Q196 28.29 196.32 28.29L196.32 28.29Q196.61 28.29 197.12 28.03L197.12 28.03Q198.82 27.01 200.32 25.47Q201.82 23.94 203.39 22.56L203.39 22.56Q204.13 21.92 204.58 21.92L204.58 21.92Q204.83 21.92 205.10 22.08Q205.38 22.24 205.79 22.56L205.79 22.56Q206.46 23.10 207.74 24.26Q209.02 25.41 210.77 26.91Q212.51 28.42 214.59 30.02Q216.67 31.62 218.91 33.09L218.91 33.09Q219.36 33.38 219.74 33.38L219.74 33.38Q219.81 33.38 220.11 33.26Q220.42 33.15 220.42 32.64L220.42 32.64Q220.42 32.29 220.27 31.94Q220.13 31.58 220 31.46L220 31.46Q219.78 31.26 219.55 31.22Q219.33 31.17 219.10 31.07ZM249.70 16.32L249.70 16.32L249.70 16.26Q249.66 15.90 249.14 15.68Q248.61 15.46 248.22 15.46L248.22 15.46L248.03 15.46Q247.78 15.49 247.50 15.62Q247.23 15.74 246.91 15.81L246.91 15.81Q245.02 16.06 242.21 16.59Q239.39 17.12 236.08 17.89Q232.77 18.66 229.28 19.68L229.28 19.68Q228.90 19.78 228.70 19.78L228.70 19.78Q228.45 19.78 228.30 19.71Q228.16 19.65 228.03 19.65L228.03 19.65Q228.03 19.65 227.87 19.68Q227.71 19.71 227.71 19.90L227.71 19.90Q227.71 20.06 227.97 20.40Q228.22 20.74 228.59 21.02Q228.96 21.31 229.34 21.31L229.34 21.31Q229.50 21.31 229.71 21.25Q229.92 21.18 230.18 21.09L230.18 21.09Q232.58 20.22 235.04 19.62Q237.50 19.01 239.70 18.58Q241.89 18.14 243.42 17.82L243.42 17.82Q242.56 18.43 241.49 19.55Q240.42 20.67 239.42 22.11Q238.43 23.55 237.79 25.12Q237.15 26.69 237.15 28.19L237.15 28.19Q237.15 30.46 238 32.06Q238.85 33.66 240.14 34.69Q241.44 35.71 242.82 36.29Q244.19 36.86 245.28 37.09Q246.37 37.31 246.75 37.31L246.75 37.31Q247.36 37.31 247.62 37.10Q247.87 36.90 247.87 36.61L247.87 36.61Q247.87 36.22 247.49 35.86Q247.10 35.49 246.50 35.49L246.50 35.49Q246.27 35.49 245.41 35.31Q244.54 35.14 243.42 34.69Q242.30 34.24 241.23 33.41Q240.16 32.58 239.46 31.26Q238.75 29.95 238.75 28.06L238.75 28.06Q238.75 26.53 239.41 24.96Q240.06 23.39 241.15 21.95Q242.24 20.51 243.52 19.39Q244.80 18.27 246.02 17.60L246.02 17.60Q246.46 17.34 247.22 17.30Q247.97 17.25 248.67 17.15L248.67 17.15Q249.12 17.09 249.41 16.90Q249.70 16.70 249.70 16.32ZM258.56 8.96L258.56 40.96L284.16 40.96L284.16 8.96L258.56 8.96ZM261.34 10.56L281.38 10.56L271.36 23.58L261.34 10.56ZM260.16 11.84L270.27 24.99L260.16 38.14L260.16 11.84ZM272.45 24.99L282.56 11.84L282.56 38.14L272.45 24.99ZM261.38 39.36L271.36 26.40L281.34 39.36L261.38 39.36ZM307.49 23.39L307.49 23.39Q309.44 23.46 310.64 24.16Q311.84 24.86 312.40 25.98Q312.96 27.10 312.96 28.38L312.96 28.38Q312.96 30.14 312.13 31.62Q311.30 33.09 309.98 34.29Q308.67 35.49 307.18 36.40Q305.70 37.31 304.37 37.94Q303.04 38.56 302.24 38.88L302.24 38.88Q301.86 39.04 301.86 39.33L301.86 39.33Q301.86 39.68 302.30 39.68L302.30 39.68Q302.43 39.68 303.30 39.41Q304.16 39.14 305.47 38.61Q306.78 38.08 308.26 37.28Q309.73 36.48 311.07 35.41Q312.42 34.34 313.36 32.98Q314.30 31.62 314.53 29.98L314.53 29.98Q314.62 29.31 314.62 28.70L314.62 28.70Q314.62 26.59 313.74 25.15Q312.86 23.71 311.38 22.93Q309.89 22.14 308 22.08L308 22.08Q308.19 21.41 308.22 21.15Q308.26 20.90 308.26 20.86L308.26 20.86Q308.26 20.77 308.24 20.69Q308.22 20.61 308.19 20.48L308.19 20.48Q308.16 20.32 307.86 20.10Q307.55 19.87 307.22 19.70Q306.88 19.52 306.66 19.52L306.66 19.52Q306.56 19.52 306.53 19.55L306.53 19.55Q306.40 19.65 306.40 19.81L306.40 19.81Q306.40 19.87 306.42 19.94Q306.43 20.00 306.46 20.06L306.46 20.06Q306.53 20.19 306.58 20.37Q306.62 20.54 306.62 20.70L306.62 20.70Q306.62 20.74 306.61 20.78Q306.59 20.83 306.59 20.90L306.59 20.90Q306.56 21.18 306.50 21.47Q306.43 21.76 306.34 22.05L306.34 22.05Q304.99 22.05 303.54 22.45Q302.08 22.85 301.12 23.33L301.12 23.33Q301.25 22.21 301.44 21.07Q301.63 19.94 301.82 18.78L301.82 18.78Q303.90 18.43 305.92 17.97Q307.94 17.50 309.60 17.06L309.60 17.06Q310.30 16.86 310.30 16.42L310.30 16.42Q310.30 16.26 310.21 16.16L310.21 16.16Q310.08 15.97 309.78 15.82Q309.47 15.68 309.06 15.68L309.06 15.68Q308.99 15.68 308.91 15.70Q308.83 15.71 308.77 15.71L308.77 15.71Q308.58 15.74 308.43 15.84Q308.29 15.94 308.13 16.00L308.13 16.00Q307.23 16.38 305.60 16.74Q303.97 17.09 302.08 17.41L302.08 17.41Q302.34 16.00 302.58 14.93Q302.82 13.86 302.91 13.47L302.91 13.47Q302.94 13.41 302.94 13.31L302.94 13.31Q302.94 12.93 302.58 12.69Q302.21 12.45 301.82 12.35Q301.44 12.26 301.34 12.26L301.34 12.26Q301.15 12.26 301.06 12.38L301.06 12.38Q301.02 12.45 301.02 12.61L301.02 12.61Q301.02 12.80 301.12 12.96L301.12 12.96Q301.22 13.15 301.22 13.38L301.22 13.38Q301.22 13.54 301.18 13.63L301.18 13.63Q301.15 13.79 300.98 14.93Q300.80 16.06 300.54 17.66L300.54 17.66Q299.14 17.82 297.81 17.95Q296.48 18.08 295.46 18.14L295.46 18.14Q295.23 18.14 295.01 18.13Q294.78 18.11 294.59 18.08L294.59 18.08Q294.46 18.05 294.35 18.03Q294.24 18.02 294.18 18.02L294.18 18.02Q293.82 18.02 293.82 18.24L293.82 18.24Q293.82 18.46 294.16 18.88Q294.50 19.30 294.75 19.46L294.75 19.46Q294.94 19.52 295.04 19.52L295.04 19.52Q295.17 19.52 295.28 19.50Q295.39 19.49 295.52 19.49L295.52 19.49Q296.61 19.42 297.82 19.31Q299.04 19.20 300.32 19.04L300.32 19.04Q300.13 20.29 299.95 21.57Q299.78 22.85 299.62 23.94L299.62 23.94Q298.75 24.35 297.70 25.18Q296.64 26.02 295.63 27.02Q294.62 28.03 293.84 29.04Q293.06 30.05 292.74 30.85L292.74 30.85Q292.54 31.33 292.54 32.00L292.54 32.00Q292.54 32.51 292.69 33.23Q292.83 33.95 293.10 34.61Q293.38 35.26 293.79 35.71Q294.21 36.16 294.75 36.16L294.75 36.16Q295.14 36.16 295.86 35.74Q296.58 35.33 297.41 34.72Q298.24 34.11 298.94 33.57Q299.65 33.02 299.97 32.77L299.97 32.77Q300.19 33.92 300.34 34.46Q300.48 35.01 300.64 35.17Q300.80 35.33 300.99 35.33L300.99 35.33Q301.18 35.33 301.25 35.30L301.25 35.30Q301.60 35.20 301.79 34.85Q301.98 34.50 301.98 34.18L301.98 34.18Q301.98 34.11 301.97 34.08Q301.95 34.05 301.95 34.02L301.95 34.02Q301.92 33.92 301.87 33.79Q301.82 33.66 301.79 33.60L301.79 33.60Q301.70 33.34 301.52 32.78Q301.34 32.22 301.25 31.62L301.25 31.62Q303.23 29.73 304.91 27.57Q306.59 25.41 307.49 23.39ZM305.79 23.42L305.79 23.42Q305.02 25.09 303.71 26.77Q302.40 28.45 300.96 29.86L300.96 29.86Q300.93 29.31 300.86 28.64Q300.80 27.97 300.80 27.17L300.80 27.17Q300.80 26.62 300.83 26.03Q300.86 25.44 300.93 24.74L300.93 24.74Q302.24 24.10 303.49 23.81Q304.74 23.52 305.79 23.42ZM299.65 31.14L299.65 31.14Q298.72 31.97 297.70 32.75Q296.67 33.54 295.90 34.05Q295.14 34.56 294.94 34.56L294.94 34.56Q294.72 34.56 294.54 34.22Q294.37 33.89 294.24 33.42Q294.11 32.96 294.06 32.58Q294.02 32.19 294.02 32.13L294.02 32.13Q294.02 31.33 294.51 30.46Q295.01 29.60 295.76 28.75Q296.51 27.90 297.30 27.22Q298.08 26.53 298.69 26.06Q299.30 25.60 299.46 25.47L299.46 25.47Q299.42 26.05 299.41 26.56Q299.39 27.07 299.39 27.55L299.39 27.55Q299.39 28.58 299.46 29.44Q299.52 30.30 299.65 31.14ZM337.70 18.53L337.70 18.53L337.70 18.34Q337.70 18.11 337.65 17.94Q337.60 17.76 337.44 17.63L337.44 17.63Q337.12 17.38 336.67 17.22Q336.22 17.06 335.94 17.06L335.94 17.06Q335.62 17.06 335.55 17.25L335.55 17.25L335.55 17.34Q335.55 17.57 335.79 17.76Q336.03 17.95 336.06 18.53L336.06 18.53Q336.19 22.62 336.62 25.47Q337.06 28.32 337.66 30.16Q338.27 32.00 338.94 33.06Q339.62 34.11 340.24 34.59Q340.86 35.07 341.31 35.20Q341.76 35.33 341.92 35.33L341.92 35.33Q342.18 35.33 342.35 35.17Q342.53 35.01 342.69 34.30L342.69 34.30Q342.78 33.86 343.02 32.98Q343.26 32.10 343.55 31.10Q343.84 30.11 344.08 29.33Q344.32 28.54 344.42 28.26L344.42 28.26Q344.45 28.16 344.45 28.00L344.45 28.00Q344.45 27.55 344.13 27.55L344.13 27.55Q343.81 27.55 343.68 27.90L343.68 27.90Q343.52 28.29 343.10 29.18Q342.69 30.08 342.21 31.10Q341.73 32.13 341.31 32.99L341.31 32.99Q340.42 32.42 339.79 31.20Q339.17 29.98 338.77 28.42Q338.37 26.85 338.16 25.18Q337.95 23.52 337.84 22.08Q337.73 20.64 337.71 19.66Q337.70 18.69 337.70 18.53ZM358.91 28.90L358.91 28.90L358.91 28.80Q358.88 28.06 358.40 26.90Q357.92 25.73 357.22 24.42Q356.51 23.10 355.70 21.95Q354.88 20.80 354.14 20.06Q353.41 19.33 352.90 19.33L352.90 19.33Q352.58 19.33 352.38 19.52Q352.19 19.71 352.19 19.97L352.19 19.97Q352.19 20.22 352.45 20.48L352.45 20.48Q353.15 21.09 353.94 22.21Q354.72 23.33 355.44 24.67Q356.16 26.02 356.67 27.28Q357.18 28.54 357.31 29.47L357.31 29.47Q357.41 29.98 357.89 29.98L357.89 29.98Q358.24 29.98 358.58 29.68Q358.91 29.38 358.91 28.90ZM386.40 13.18L386.40 13.18L386.27 13.18Q385.86 13.18 385.63 13.76L385.63 13.76Q385.60 13.86 385.58 13.92Q385.57 13.98 385.57 14.05L385.57 14.05Q385.57 14.43 386.11 14.53L386.11 14.53Q387.39 14.72 388.67 15.12Q389.95 15.52 391.07 15.98Q392.19 16.45 392.96 16.86L392.96 16.86Q393.15 16.96 393.31 16.96L393.31 16.96Q393.76 16.96 393.87 16.54Q393.98 16.13 393.98 15.94L393.98 15.94Q393.98 15.55 393.54 15.30L393.54 15.30Q393.06 15.01 392.18 14.70Q391.30 14.40 390.26 14.10Q389.22 13.79 388.19 13.55Q387.17 13.31 386.40 13.18ZM383.04 21.98L383.04 21.98L382.59 21.98Q382.37 21.98 382.16 22.02Q381.95 22.05 381.95 22.30L381.95 22.30Q381.95 22.53 382.26 22.82Q382.56 23.10 383.01 23.33Q383.46 23.55 383.81 23.55L383.81 23.55Q384.16 23.55 384.38 23.42L384.38 23.42Q386.24 22.50 388.05 21.79Q389.86 21.09 391.74 21.09L391.74 21.09Q392.13 21.09 392.67 21.23Q393.22 21.38 393.73 21.87Q394.24 22.37 394.58 23.47Q394.91 24.58 394.91 26.50L394.91 26.50Q394.91 28.86 394.05 30.66Q393.18 32.45 391.76 33.81Q390.34 35.17 388.64 36.21Q386.94 37.25 385.31 38.11L385.31 38.11Q384.83 38.34 384.83 38.66L384.83 38.66Q384.83 39.01 385.31 39.01L385.31 39.01Q385.38 39.01 385.47 38.99Q385.57 38.98 385.66 38.94L385.66 38.94Q387.68 38.18 389.63 37.10Q391.58 36.03 393.17 34.54Q394.75 33.06 395.70 31.02Q396.64 28.99 396.64 26.34L396.64 26.34Q396.64 24.32 396.22 23.04Q395.81 21.76 395.17 21.06Q394.53 20.35 393.82 20.05Q393.12 19.74 392.54 19.68Q391.97 19.62 391.68 19.62L391.68 19.62Q391.46 19.62 391.25 19.63Q391.04 19.65 390.82 19.68L390.82 19.68Q388.70 19.94 386.90 20.67Q385.09 21.41 383.39 21.95L383.39 21.95Q383.30 21.98 383.04 21.98ZM436.13 17.57L436.13 17.57Q436.45 17.57 436.67 17.30Q436.90 17.02 436.90 16.70L436.90 16.70Q436.90 16.19 436.38 15.97L436.38 15.97Q435.90 15.74 434.96 15.38Q434.02 15.01 432.96 14.64Q431.90 14.27 431.04 14.00Q430.18 13.73 429.82 13.66L429.82 13.66Q429.79 13.66 429.74 13.65Q429.70 13.63 429.63 13.63L429.63 13.63Q429.28 13.63 429.07 13.84Q428.86 14.05 428.86 14.30L428.86 14.30Q428.86 14.78 429.44 14.94L429.44 14.94Q430.14 15.14 431.09 15.49Q432.03 15.84 432.99 16.26Q433.95 16.67 434.72 17.01Q435.49 17.34 435.81 17.50L435.81 17.50Q435.90 17.57 436.13 17.57ZM436.03 20.06L436.03 20.06L435.90 20.06Q435.81 20.10 434.98 20.30Q434.14 20.51 432.93 20.83Q431.71 21.15 430.42 21.47Q429.12 21.79 428.06 22.05Q427.01 22.30 426.56 22.40L426.56 22.40Q425.98 22.50 425.66 22.50L425.66 22.50Q425.47 22.50 425.33 22.48Q425.18 22.46 425.09 22.46L425.09 22.46Q424.90 22.46 424.80 22.62L424.80 22.62Q424.77 22.66 424.77 22.78L424.77 22.78Q424.77 23.04 425.09 23.33Q425.41 23.62 425.79 23.79Q426.18 23.97 426.34 23.97L426.34 23.97Q426.50 23.97 426.66 23.90Q426.82 23.84 427.04 23.81L427.04 23.81Q428.45 23.42 429.94 23.02Q431.42 22.62 432.74 22.26Q434.05 21.89 434.88 21.70L434.88 21.70Q434.88 21.70 434.29 22.38Q433.70 23.07 432.72 24.24Q431.74 25.41 430.54 26.83Q429.34 28.26 428.10 29.73Q426.85 31.20 425.74 32.51Q424.64 33.82 423.82 34.75Q423.01 35.68 422.69 36.03L422.69 36.03Q422.46 36.26 422.46 36.54L422.46 36.54Q422.46 36.86 422.70 37.09Q422.94 37.31 423.17 37.41L423.17 37.41Q423.36 37.47 423.46 37.47L423.46 37.47Q423.74 37.47 424.02 37.25Q424.29 37.02 424.51 36.80L424.51 36.80Q425.34 35.74 426.13 34.77Q426.91 33.79 427.90 32.91Q428.90 32.03 430.34 31.26L430.34 31.26Q430.82 30.98 431.20 30.98L431.20 30.98Q431.65 30.98 431.97 31.62L431.97 31.62Q432.32 32.35 432.58 33.34Q432.83 34.34 433.09 35.17L433.09 35.17Q433.57 36.51 434.27 37.09Q434.98 37.66 435.73 37.78Q436.48 37.89 437.06 37.89L437.06 37.89Q438.46 37.89 440.05 37.74Q441.63 37.60 442.91 37.47L442.91 37.47Q443.97 37.34 443.97 36.77L443.97 36.77Q443.97 36.58 443.65 36.18Q443.33 35.78 442.50 35.78L442.50 35.78Q442.27 35.78 442.08 35.84Q441.89 35.90 441.63 36L441.63 36Q441.47 36.03 440.67 36.13Q439.87 36.22 438.85 36.29Q437.82 36.35 437.02 36.35L437.02 36.35Q436.22 36.35 435.60 36.13Q434.98 35.90 434.56 35.04L434.56 35.04Q434.11 34.02 433.87 33.14Q433.63 32.26 433.47 31.84L433.47 31.84Q433.15 30.88 432.70 30.35Q432.26 29.82 431.42 29.82L431.42 29.82Q430.69 29.82 430.06 30.22Q429.44 30.62 428.42 31.33L428.42 31.33Q429.47 30.11 430.72 28.67Q431.97 27.23 433.17 25.87Q434.37 24.51 435.33 23.44Q436.29 22.37 436.77 21.89L436.77 21.89Q437.02 21.63 437.20 21.42Q437.38 21.22 437.38 21.02L437.38 21.02Q437.38 20.86 437.28 20.74L437.28 20.74Q437.15 20.45 436.75 20.26Q436.35 20.06 436.03 20.06ZM481.25 36.80L481.25 36.80L481.57 36.80Q482.88 36.74 484.05 35.98Q485.22 35.23 485.98 34.03Q486.75 32.83 486.82 31.49L486.82 31.49L486.82 31.26Q486.82 29.28 485.20 28.00Q483.58 26.72 480.45 26.72L480.45 26.72Q480.29 26.72 480.10 26.74Q479.90 26.75 479.74 26.75L479.74 26.75Q477.98 26.85 476.21 27.50Q474.43 28.16 472.45 29.22L472.45 29.22Q472.48 27.42 472.48 25.57Q472.48 23.71 472.48 21.86L472.48 21.86Q473.82 21.50 475.15 21.12Q476.48 20.74 477.79 20.32L477.79 20.32Q478.18 20.19 478.32 20.00Q478.46 19.81 478.46 19.65L478.46 19.65Q478.46 19.49 478.34 19.30L478.34 19.30Q478.21 19.14 477.89 19.02Q477.57 18.91 477.28 18.91L477.28 18.91Q477.12 18.91 477.06 18.94L477.06 18.94Q476.74 19.01 476.51 19.17L476.51 19.17Q475.97 19.46 474.86 19.78Q473.76 20.10 472.51 20.42L472.51 20.42L472.51 14.50Q472.51 14.02 472.21 13.81Q471.90 13.60 471.55 13.55Q471.20 13.50 471.10 13.50L471.10 13.50Q470.75 13.50 470.66 13.70L470.66 13.70L470.66 13.73Q470.66 13.82 470.72 13.95Q470.78 14.08 470.82 14.18L470.82 14.18Q470.91 14.34 470.93 14.53Q470.94 14.72 470.94 14.94L470.94 14.94L470.94 20.77Q469.31 21.12 468.48 21.28Q467.65 21.44 467.26 21.49Q466.88 21.54 466.59 21.54L466.59 21.54Q466.37 21.54 466.21 21.52Q466.05 21.50 465.89 21.50L465.89 21.50Q465.70 21.50 465.60 21.60L465.60 21.60Q465.54 21.73 465.54 21.79L465.54 21.79Q465.54 22.14 466.03 22.56Q466.53 22.98 466.94 22.98L466.94 22.98Q467.14 22.98 467.23 22.94L467.23 22.94Q468.16 22.78 469.10 22.62Q470.05 22.46 470.94 22.24L470.94 22.24L470.94 29.92Q469.12 31.10 468.06 31.92Q467.01 32.74 466.50 33.26Q465.98 33.79 465.82 34.13Q465.66 34.46 465.66 34.72L465.66 34.72Q465.66 35.39 466.24 35.74L466.24 35.74Q466.43 35.90 467.09 36.22Q467.74 36.54 468.54 36.90Q469.34 37.25 470.03 37.49Q470.72 37.73 471.04 37.73L471.04 37.73Q471.74 37.73 472.03 37.10Q472.32 36.48 472.38 34.98Q472.45 33.47 472.45 30.82L472.45 30.82Q474.50 29.66 476.00 29.12Q477.50 28.58 478.58 28.42Q479.65 28.26 480.35 28.26L480.35 28.26Q482.53 28.26 483.82 28.98Q485.12 29.70 485.12 31.42L485.12 31.42L485.12 31.65Q485.09 32.51 484.51 33.33Q483.94 34.14 483.12 34.69Q482.30 35.23 481.50 35.36L481.50 35.36Q481.38 35.36 481.26 35.38Q481.15 35.39 480.99 35.39L480.99 35.39Q479.97 35.39 478.48 35.14Q476.99 34.88 475.87 34.46L475.87 34.46Q475.74 34.40 475.65 34.40Q475.55 34.40 475.49 34.40L475.49 34.40Q475.10 34.40 475.10 34.66L475.10 34.66Q475.10 34.88 475.52 35.20L475.52 35.20Q475.94 35.46 476.91 35.84Q477.89 36.22 479.07 36.51Q480.26 36.80 481.25 36.80ZM481.82 17.18L481.82 17.18L481.73 17.18Q481.47 17.18 481.22 17.36Q480.96 17.54 480.90 17.76L480.90 17.76Q480.90 17.79 480.88 17.81Q480.86 17.82 480.86 17.86L480.86 17.86Q480.86 18.02 481.04 18.14Q481.22 18.27 481.34 18.37L481.34 18.37Q482.21 18.75 483.18 19.38Q484.16 20.00 484.99 20.59Q485.82 21.18 486.18 21.54L486.18 21.54Q486.53 21.82 486.78 21.82L486.78 21.82Q487.14 21.82 487.38 21.50Q487.62 21.18 487.62 20.90L487.62 20.90Q487.62 20.83 487.62 20.74Q487.62 20.64 487.55 20.58L487.55 20.58Q487.46 20.32 486.72 19.81Q485.98 19.30 484.99 18.72Q484.00 18.14 483.12 17.71Q482.24 17.28 481.82 17.18ZM470.94 31.58L470.94 31.58Q470.94 33.09 470.93 33.94Q470.91 34.78 470.86 35.23Q470.82 35.68 470.72 36.03L470.72 36.03Q470.69 36.10 470.62 36.10L470.62 36.10Q470.37 36.03 469.86 35.87Q469.34 35.71 468.78 35.50Q468.22 35.30 467.81 35.12Q467.39 34.94 467.33 34.91L467.33 34.91Q467.26 34.78 467.26 34.72L467.26 34.72Q467.26 34.50 467.98 33.78Q468.70 33.06 470.94 31.58Z"/></svg>