<svg xmlns="http://www.w3.org/2000/svg" xmlns:xlink="http://www.w3.org/1999/xlink" width="492.1600000000001" height="46.336"><path fill="black" stroke="none" d="M25.41 39.52L14.59 22.78L3.07 39.58L2.75 39.33L14.85 11.26L21.15 13.25L15.07 22.14L29.41 34.08L25.41 39.52ZM45.57 26.18L42.94 20.58L42.53 25.70L39.14 25.70L39.07 23.07L33.86 27.58L33.60 27.20L35.84 20.74L39.04 22.30L38.98 19.87L34.21 20.67L34.21 16.35L38.91 16.93L38.85 14.40L35.90 16.26L34.40 11.90L34.66 11.71L38.82 14.02L38.75 11.01L43.68 11.01L43.17 17.47L47.42 17.98L47.42 18.43L43.04 19.17L42.98 19.94L47.62 21.95L45.57 26.18ZM60.42 33.38L57.09 33.38L57.09 30.72L48.19 33.70L47.71 16.74L52.51 16.74L52.35 19.10L54.53 18.24L53.76 14.59L48.26 15.65L48.26 14.02L44.10 16.77L43.84 16.58L45.25 11.84L48.26 13.54L48.26 11.26L62.62 12.48L62.62 12.86L54.56 14.43L59.26 14.91L55.71 17.76L61.66 15.39L60.42 33.38ZM57.02 21.47L57.02 19.65L52.35 19.52L52.26 20.80L57.02 21.47ZM57.06 25.50L57.02 22.14L52.10 23.62L52 24.96L57.06 25.50ZM44.61 38.62L42.43 33.28L35.01 39.52L34.69 39.20L38.98 32.06L34.53 32.90L34.53 28.26L39.36 28.86L39.55 25.98L44.54 26.88L43.81 29.41L47.87 29.92L47.87 30.37L43.26 31.23L42.88 32.58L47.81 34.69L44.61 38.62ZM57.09 29.95L57.06 26.21L51.81 27.78L51.71 29.50L57.09 29.95ZM55.10 36.54L46.91 39.58L46.72 39.20L52.22 32.64L55.10 36.54ZM60.10 39.58L54.78 33.60L54.98 33.22L61.89 34.88L60.10 39.58ZM73.89 39.52L70.21 39.52L69.66 25.31L65.28 28.83L65.12 28.38L74.46 16.03L66.24 19.36L66.24 14.50L70.02 14.98L69.60 10.72L74.72 10.72L73.98 15.49L74.59 15.58L75.49 13.86L79.84 17.09L71.68 23.68L74.78 23.68L74.72 24.58L80.77 26.88L78.14 31.42L74.69 25.25L73.89 39.52ZM95.36 35.68L77.63 38.85L77.63 33.44L84.93 34.24L84.58 22.72L78.72 24.03L78.72 18.59L84.48 19.17L84.22 11.04L89.66 11.04L89.41 19.68L94.34 20.19L94.34 20.51L89.34 21.63L88.93 34.66L95.36 35.36L95.36 35.68ZM124.54 22.66L113.60 13.89L97.79 22.59L97.54 22.21L109.38 10.88L117.31 11.84L114.59 13.34L126.46 17.34L124.54 22.66ZM121.34 21.66L103.39 24.58L103.39 19.84L121.34 21.25L121.34 21.66ZM124.99 35.87L120.58 39.36L118.53 34.24L101.44 39.36L100.22 34.18L104.16 34.05L106.82 29.50L99.20 30.21L99.20 25.41L125.57 27.33L125.57 27.71L108.51 29.31L112.90 30.85L105.98 33.98L118.27 33.54L116.99 30.30L117.31 30.05L124.99 35.87ZM147.87 36.51L147.58 36.16Q149.60 34.18 150.85 32.27Q152.10 30.37 152.66 28.78Q153.22 27.20 153.22 26.18L153.22 26.18Q153.22 24.77 152.67 23.39Q152.13 22.02 150.75 20.90L150.75 20.90Q148.51 23.46 146.64 25.50Q144.77 27.55 142.90 29.28Q141.02 31.01 138.75 32.67L138.75 32.67Q136.77 34.11 135.28 34.80Q133.79 35.49 132.74 35.49L132.74 35.49Q131.46 35.49 130.85 34.51Q130.24 33.54 130.24 31.68L130.24 31.68Q130.24 29.89 130.82 27.30L130.82 27.30Q131.17 25.63 132.10 23.98Q133.02 22.34 134.32 20.85Q135.62 19.36 137.09 18.21Q138.56 17.06 140.03 16.40Q141.50 15.74 142.75 15.74L142.75 15.74Q145.09 15.74 147.34 16.32Q149.60 16.90 151.58 17.90Q153.57 18.91 155.07 20.26Q156.58 21.60 157.42 23.15Q158.27 24.70 158.27 26.34L158.27 26.34Q158.27 27.23 157.79 28.45Q157.31 29.66 156.16 31.04Q155.01 32.42 152.98 33.82Q150.94 35.23 147.87 36.51L147.87 36.51ZM150.53 20.70L150.53 20.70Q148.86 19.39 146.78 18.59Q144.70 17.79 142.78 17.79L142.78 17.79Q141.63 17.79 140.35 18.70Q139.07 19.62 137.89 21.12Q136.70 22.62 135.86 24.38Q135.01 26.14 134.75 27.87L134.75 27.87Q134.66 28.48 134.66 28.90L134.66 28.90Q134.66 30.05 135.46 30.05L135.46 30.05Q136 30.05 137.15 29.50L137.15 29.50Q139.94 28.16 143.36 25.94Q146.78 23.71 150.53 20.70ZM175.71 40.06L175.49 39.84Q175.97 38.24 176.34 36.46Q176.70 34.69 176.96 33.10Q177.22 31.52 177.34 30.56L177.34 30.56Q176.51 31.94 175.52 32.56Q174.53 33.18 173.47 33.18L173.47 33.18Q171.90 33.18 170.26 31.95Q168.61 30.72 167.04 28.54L167.04 28.54Q166.11 27.23 166.11 26.14L166.11 26.14Q166.11 24.51 167.98 23.46Q169.86 22.40 173.41 22.40L173.41 22.40Q174.08 22.40 175.07 22.46Q176.06 22.53 176.64 22.59L176.64 22.59L176.32 18.91L162.50 20.67L162.21 15.55L176.06 16.13L175.65 11.62L181.18 11.58L181.12 16.35L190.82 16.74L190.85 17.06L181.09 18.30L180.99 23.90Q182.02 24.74 182.56 25.60Q183.10 26.46 183.10 27.42L183.10 27.42Q183.10 27.74 183.02 28.11Q182.94 28.48 182.78 28.86L182.78 28.86Q181.60 31.78 179.78 34.72Q177.95 37.66 175.71 40.06L175.71 40.06ZM176.93 26.34L176.93 26.34Q176.35 25.50 175.47 25.06Q174.59 24.61 173.70 24.61L173.70 24.61Q172.32 24.61 171.71 24.93Q171.10 25.25 171.10 25.89L171.10 25.89Q171.10 26.30 171.36 26.86Q171.62 27.42 172.03 28.13L172.03 28.13Q173.63 30.66 174.78 30.66L174.78 30.66Q175.52 30.66 176.06 29.62Q176.61 28.58 176.93 26.34ZM219.68 16.93L216.22 18.85L216.22 15.07L219.68 16.93ZM216.16 18.91L212.35 21.02L212.35 16.86L216.16 18.91ZM220.19 33.89L204.16 20.86L196.13 30.50L192.61 25.89L204.13 18.05L223.74 28.93L220.19 33.89ZM249.02 33.86L246.34 38.94Q242.50 36.96 240.02 35.63Q237.54 34.30 236.16 33.33Q234.78 32.35 234.22 31.49Q233.66 30.62 233.66 29.57L233.66 29.57Q233.66 28.54 234.62 27.26Q235.58 25.98 237.23 24.58Q238.88 23.17 240.93 21.76Q242.98 20.35 245.15 19.04L245.15 19.04L226.05 18.66L225.98 18.27L252.51 13.79L254.30 18.94Q245.76 22.05 241.41 24.69Q237.06 27.33 237.06 29.31L237.06 29.31Q237.06 29.70 237.55 30.11Q238.05 30.53 239.34 31.04Q240.64 31.55 242.99 32.22Q245.34 32.90 249.02 33.86L249.02 33.86ZM284.80 40.96L259.20 40.93L259.20 8.96L284.80 8.96L284.80 40.96ZM272 23.58L282.02 10.56L261.98 10.56L272 23.58ZM283.20 38.14L283.20 11.84L273.09 24.99L283.20 38.14ZM260.80 38.11L270.91 24.99L260.80 11.84L260.80 38.11ZM281.98 39.36L272 26.40L262.02 39.33L281.98 39.36ZM307.62 38.85L307.33 38.50Q309.34 36.51 310.58 35.09Q311.81 33.66 312.35 32.54Q312.90 31.42 312.90 30.40L312.90 30.40Q312.90 29.70 312.61 28.98Q312.32 28.26 311.81 27.55L311.81 27.55Q309.25 29.50 307.26 30.93Q305.28 32.35 303.39 33.57L303.39 33.57Q303.36 34.59 303.33 35.66Q303.30 36.74 303.28 37.44Q303.26 38.14 303.26 38.14L303.26 38.14L299.68 38.14L299.62 35.81Q299.30 35.97 298.99 36.16Q298.69 36.35 298.34 36.51L298.34 36.51Q294.59 38.46 292.48 38.46L292.48 38.46Q290.05 38.46 290.05 36.03L290.05 36.03Q290.05 35.14 290.37 33.94Q290.69 32.74 291.39 31.20L291.39 31.20Q292.19 29.41 293.47 27.73Q294.75 26.05 296.26 24.67Q297.76 23.30 299.23 22.46L299.23 22.46L299.10 18.66L291.81 19.78L291.52 14.69L299.01 14.98L298.91 11.42L304.03 11.42L303.94 15.17L316.45 15.68L316.42 16.03L303.84 17.95L303.74 21.41Q306.37 21.60 308.90 22.40Q311.42 23.20 313.46 24.46Q315.49 25.73 316.69 27.30Q317.89 28.86 317.89 30.56L317.89 30.56Q317.89 31.46 317.47 32.37Q317.06 33.28 315.97 34.27Q314.88 35.26 312.86 36.38Q310.85 37.50 307.62 38.85L307.62 38.85ZM303.71 22.85L303.49 30.91Q305.25 30.18 307.23 29.23Q309.22 28.29 311.49 27.14L311.49 27.14Q310.62 26.11 309.38 25.22Q308.13 24.32 306.67 23.68Q305.22 23.04 303.71 22.85L303.71 22.85ZM299.52 32.45L299.30 24.83Q298.14 26.14 297.15 28.02Q296.16 29.89 295.52 31.78L295.52 31.78Q295.39 32.19 295.30 32.50Q295.20 32.80 295.20 33.02L295.20 33.02Q295.20 33.47 295.71 33.47L295.71 33.47Q295.97 33.47 296.37 33.38Q296.77 33.28 297.34 33.12L297.34 33.12Q297.89 32.96 298.42 32.80Q298.94 32.64 299.52 32.45L299.52 32.45ZM348.99 29.12L336.64 37.98L334.62 15.71L340.06 15.58L340.38 30.43L348.96 28.86L348.99 29.12ZM361.50 29.95L355.71 32.45L353.25 17.31L353.57 17.15L361.50 29.95ZM393.92 18.11L384.96 12.32L384.99 12.00L396.19 12.93L393.92 18.11ZM386.98 39.68L386.75 39.39Q389.50 36.96 391.41 34.77Q393.31 32.58 394.43 30.91L394.43 30.91Q396.06 28.48 396.86 26.90Q397.66 25.31 397.66 24.38L397.66 24.38Q397.66 23.33 396.70 22.94Q395.74 22.56 393.86 22.56L393.86 22.56Q392.64 22.56 390.75 23.10Q388.86 23.65 386.62 24.69Q384.38 25.73 382.08 27.23L382.08 27.23L379.52 22.11Q382.14 21.57 384.51 21.17Q386.88 20.77 388.82 20.53Q390.75 20.29 392.00 20.29L392.00 20.29Q396.90 20.29 399.49 21.73Q402.08 23.17 402.08 25.63L402.08 25.63Q402.08 27.20 400.98 29.06Q399.87 30.91 397.60 32.99L397.60 32.99Q395.81 34.62 393.34 36.19Q390.88 37.76 386.98 39.68L386.98 39.68ZM437.38 18.27L427.33 12.77L427.30 12.54L439.26 13.31L437.38 18.27ZM423.30 38.85L419.62 35.01L434.11 22.62L422.05 24.22L421.98 19.10L440.48 20.42L423.30 38.85ZM439.07 38.91L431.97 29.79L436.45 27.49L439.84 33.44L446.94 30.62L447.07 30.82L439.07 38.91ZM481.31 38.62L481.09 38.37Q481.66 36.90 482.03 35.90Q482.40 34.91 482.64 34.11Q482.88 33.31 483.01 32.48L483.01 32.48Q483.20 31.26 483.31 30.35Q483.42 29.44 483.42 28.77L483.42 28.77Q483.42 27.62 483.07 27.12Q482.72 26.62 481.89 26.62L481.89 26.62Q480.51 26.62 478.54 27.07Q476.58 27.52 474.08 28.74L474.08 28.74L473.76 39.52L466.37 35.62L466.34 35.30L470.37 34.82L470.21 30.91Q468.99 31.71 467.66 32.67Q466.34 33.63 464.93 34.82L464.93 34.82L462.30 30.59Q464.32 29.54 466.27 28.69Q468.22 27.84 470.08 27.20L470.08 27.20L469.82 20.70L464.54 22.11L463.94 16.80L469.70 17.06L469.47 11.26L474.66 11.26L474.46 17.28L480.51 17.57L480.48 17.89L474.40 19.49L474.18 25.92Q476.70 25.25 478.75 24.94Q480.80 24.64 482.18 24.64L482.18 24.64Q485.50 24.64 487.06 25.79Q488.61 26.94 488.61 28.67L488.61 28.67Q488.61 30.46 487.14 32.51L487.14 32.51Q486.18 33.86 485.36 34.83Q484.54 35.81 483.60 36.67Q482.66 37.54 481.31 38.62L481.31 38.62ZM487.17 24.19L482.50 15.87L482.75 15.62L491.17 20.10L487.17 24.19Z"/></svg>