<svg xmlns="http://www.w3.org/2000/svg" xmlns:xlink="http://www.w3.org/1999/xlink" width="464" height="46.336"><path fill="black" stroke="none" d="M30.94 35.81L30.94 35.81Q31.01 36.13 30.98 36.34Q30.94 36.54 30.72 36.70L30.72 36.70Q30.02 37.02 29.33 37.46Q28.64 37.89 27.74 37.95L27.74 37.95Q26.11 38.08 24.54 37.39Q22.98 36.70 22.05 35.81L22.05 35.81Q22.08 35.42 21.92 35.31Q21.76 35.20 21.54 35.14L21.54 35.14Q21.50 35.14 21.50 35.14L21.50 35.14Q21.38 34.69 21.18 34.27Q20.99 33.86 20.51 33.76L20.51 33.76Q19.68 32.00 18.53 30.54Q17.38 29.09 16.21 27.68Q15.04 26.27 14.05 24.67L14.05 24.67Q13.54 25.09 13.38 25.92L13.38 25.92Q12.80 26.46 12.37 27.17Q11.94 27.87 11.50 28.58Q11.07 29.28 10.43 29.79L10.43 29.79Q10.34 30.40 9.92 30.86Q9.50 31.33 9.09 31.78Q8.67 32.22 8.58 32.86L8.58 32.86Q7.84 33.79 7.10 34.75Q6.37 35.71 5.52 36.53Q4.67 37.34 3.52 37.86L3.52 37.86Q3.52 37.60 3.42 37.63Q3.33 37.66 3.30 37.50L3.30 37.50Q2.75 37.66 2.30 37.57Q1.86 37.47 1.44 37.31L1.44 37.31Q1.22 37.22 1.09 37.18L1.09 37.18Q1.22 37.09 1.36 36.94Q1.50 36.80 1.63 36.67L1.63 36.67Q1.98 36.32 2.35 36.02Q2.72 35.71 3.07 35.81L3.07 35.81Q3.74 34.66 4.74 33.57Q5.73 32.48 6.62 31.33Q7.52 30.18 7.90 28.90L7.90 28.90Q8.67 28.48 9.02 27.66Q9.38 26.85 9.76 26.05L9.76 26.05Q10.88 24.70 11.65 23.20Q12.42 21.70 13.18 20.00L13.18 20.00Q13.34 19.97 13.42 19.89Q13.50 19.81 13.60 19.81L13.60 19.81Q13.63 19.58 13.38 19.58L13.38 19.58Q13.54 19.14 13.71 18.74Q13.89 18.34 14.08 17.98L14.08 17.98Q14.37 17.41 14.58 16.88Q14.78 16.35 14.69 15.71L14.69 15.71Q14.62 15.36 14.46 15.02Q14.30 14.69 14.11 14.37L14.11 14.37Q13.86 13.92 13.65 13.46Q13.44 12.99 13.50 12.42L13.50 12.42Q14.62 12.45 15.39 12.59Q16.16 12.74 16.80 13.14Q17.44 13.54 18.11 14.34L18.11 14.34Q18.14 15.65 17.68 17.07Q17.22 18.50 16.51 19.87Q15.81 21.25 15.17 22.43L15.17 22.43Q15.10 22.56 15.04 22.67Q14.98 22.78 14.91 22.88L14.91 22.88Q17.15 25.44 19.78 27.68Q22.40 29.92 25.12 31.71L25.12 31.71Q25.18 31.71 25.25 31.62L25.25 31.62Q25.31 31.46 25.44 31.49L25.44 31.49Q26.43 32.13 27.55 32.69Q28.67 33.25 29.62 33.97Q30.56 34.69 30.94 35.81ZM62.62 21.02L62.62 21.02Q62.34 21.41 61.87 21.63Q61.41 21.86 60.91 22.05Q60.42 22.24 60.03 22.56L60.03 22.56Q60.13 25.22 60.14 27.79Q60.16 30.37 59.90 33.02L59.90 33.02Q59.55 33.31 58.99 33.23Q58.43 33.15 57.86 32.91Q57.28 32.67 56.86 32.45L56.86 32.45Q57.02 33.15 57.63 33.34Q58.24 33.54 58.75 33.86L58.75 33.86Q59.49 34.30 60.06 35.15Q60.64 36 60.96 36.99Q61.28 37.98 61.22 38.91L61.22 38.91Q60.99 39.07 60.83 39.07Q60.67 39.07 60.48 39.01L60.48 39.01Q60.35 38.98 60.19 38.94Q60.03 38.91 59.81 39.01L59.81 39.01Q59.01 38.75 58.24 37.78Q57.47 36.80 56.86 35.84L56.86 35.84Q56.74 34.85 56.32 34.16Q55.90 33.47 55.33 32.67L55.33 32.67Q55.14 32.74 54.86 32.74Q54.59 32.74 54.27 32.74L54.27 32.74Q53.86 32.74 53.39 32.77Q52.93 32.80 52.51 32.90L52.51 32.90Q52.77 33.12 52.99 33.50L52.99 33.50Q52.70 34.30 52.14 35.22Q51.58 36.13 50.83 36.90Q50.08 37.66 49.20 38.08Q48.32 38.50 47.46 38.30L47.46 38.30Q47.26 38.11 47.28 37.97Q47.30 37.82 47.36 37.63L47.36 37.63Q47.39 37.47 47.42 37.30Q47.46 37.12 47.46 36.90L47.46 36.90Q48.10 36.74 48.66 36.14Q49.22 35.55 49.66 34.85Q50.11 34.14 50.40 33.73L50.40 33.73Q50.34 33.34 50.11 33.34Q49.89 33.34 49.63 33.44L49.63 33.44Q49.50 33.47 49.41 33.49Q49.31 33.50 49.22 33.50L49.22 33.50Q48.61 33.34 48.08 32.94Q47.55 32.54 47.20 32.10L47.20 32.10Q46.82 32.19 46.38 32.19Q45.95 32.19 45.47 32.19L45.47 32.19Q44.96 32.16 44.40 32.18Q43.84 32.19 43.23 32.32L43.23 32.32Q43.49 32.67 43.84 32.99Q44.19 33.31 44.54 33.63L44.54 33.63Q45.28 34.24 45.87 34.93Q46.46 35.62 46.40 36.67L46.40 36.67Q46.72 37.02 46.75 37.38Q46.78 37.73 46.78 38.24L46.78 38.24Q46.75 38.34 46.75 38.45Q46.75 38.56 46.75 38.66L46.75 38.66Q46.18 38.88 45.79 38.43L45.79 38.43Q45.70 38.46 45.70 38.72L45.70 38.72Q45.70 38.85 45.70 38.91L45.70 38.91Q44.90 38.46 44.34 37.60Q43.78 36.74 43.30 35.74L43.30 35.74Q43.14 35.39 42.88 34.88Q42.62 34.37 42.45 33.98Q42.27 33.60 42.27 33.60L42.27 33.60Q42.14 34.05 41.66 34.67Q41.18 35.30 40.61 35.95Q40.03 36.61 39.58 37.15L39.58 37.15Q39.55 37.18 39.58 37.31L39.58 37.31Q39.62 37.47 39.58 37.50L39.58 37.50Q39.39 37.63 39.15 37.62Q38.91 37.60 38.75 37.73L38.75 37.73Q38.46 37.95 38.22 38.37Q37.98 38.78 37.34 38.78L37.34 38.78Q37.15 38.78 36.96 38.72Q36.77 38.66 36.58 38.56L36.58 38.56Q36.19 38.40 35.76 38.32Q35.33 38.24 34.75 38.56L34.75 38.56Q34.75 38.56 35.07 38.29Q35.39 38.02 35.82 37.76Q36.26 37.50 36.51 37.60L36.51 37.60Q37.66 36.38 38.61 35.25Q39.55 34.11 40.16 32.54L40.16 32.54Q39.36 32.48 38.69 32.67Q38.02 32.86 37.38 33.12L37.38 33.12Q37.06 33.25 36.72 33.38Q36.38 33.50 36.03 33.60L36.03 33.60Q35.26 33.22 34.86 32.50Q34.46 31.78 33.82 31.26L33.82 31.26Q33.73 31.10 33.76 31.04Q33.79 30.98 33.82 30.88L33.82 30.88Q33.89 30.82 33.92 30.72Q33.95 30.62 33.92 30.43L33.92 30.43Q34.18 30.27 34.38 30.35Q34.59 30.43 34.82 30.56L34.82 30.56Q34.94 30.62 35.07 30.69Q35.20 30.75 35.33 30.78L35.33 30.78Q35.94 30.88 36.59 30.83Q37.25 30.78 37.95 30.72L37.95 30.72Q38.59 30.62 39.23 30.58Q39.87 30.53 40.51 30.56L40.51 30.56Q40.29 30.02 39.95 29.55Q39.62 29.09 39.23 28.67L39.23 28.67Q39.46 28.45 39.73 28.46Q40 28.48 40.22 28.54L40.22 28.54Q40.42 28.61 40.59 28.62Q40.77 28.64 40.86 28.54L40.86 28.54Q40.58 28.00 40.58 27.33Q40.58 26.66 40.64 25.60L40.64 25.60Q40.64 25.54 40.64 25.50L40.64 25.50Q39.74 25.79 39.12 26.24Q38.50 26.69 37.94 27.18Q37.38 27.68 36.72 28.11Q36.06 28.54 35.10 28.80L35.10 28.80Q34.85 28.54 34.48 28.53Q34.11 28.51 33.82 28.43Q33.54 28.35 33.44 27.97L33.44 27.97Q34.37 27.39 35.17 26.64Q35.97 25.89 36.99 25.38L36.99 25.38Q37.47 24.51 38.29 23.98Q39.10 23.46 39.81 22.78L39.81 22.78Q39.39 22.46 38.75 22.69L38.75 22.69Q38.34 22.82 37.97 23.07Q37.60 23.33 37.34 23.49L37.34 23.49Q36.26 23.07 35.58 22.24Q34.91 21.41 34.05 20.80L34.05 20.80Q34.34 20.51 34.62 20.80L34.62 20.80Q34.72 20.64 34.77 20.40Q34.82 20.16 34.88 19.97L34.88 19.97Q35.36 20.38 36.10 20.53Q36.83 20.67 37.63 20.67L37.63 20.67Q38.53 20.67 39.30 20.58Q40.06 20.48 40.38 20.45L40.38 20.45Q40.51 18.66 40.35 16.78Q40.19 14.91 39.46 13.38L39.46 13.38Q39.68 13.22 39.79 12.96Q39.90 12.70 39.94 12.58L39.94 12.58Q40.22 12.38 40.45 12.62Q40.67 12.86 40.80 13.09L40.80 13.09Q40.86 13.12 40.86 13.15L40.86 13.15Q41.54 13.63 42.21 14.10Q42.88 14.56 43.46 15.14L43.46 15.14Q43.01 16.26 42.93 17.49Q42.85 18.72 42.85 19.58L42.85 19.58Q42.85 19.74 42.85 19.90Q42.85 20.06 42.85 20.19L42.85 20.19Q42.98 20.19 43.36 20.22Q43.74 20.26 44.11 20.18Q44.48 20.10 44.51 19.84L44.51 19.84Q45.12 19.81 45.70 20.08Q46.27 20.35 46.82 20.64L46.82 20.64Q47.07 20.80 47.31 20.93Q47.55 21.06 47.81 21.15L47.81 21.15Q47.65 21.38 47.68 21.73L47.68 21.73Q46.56 21.98 45.38 22.10Q44.19 22.21 42.75 22.34L42.75 22.34Q43.30 22.98 44.35 23.42Q45.41 23.87 46.40 24.32L46.40 24.32Q46.53 24.70 46.78 25.04Q47.04 25.38 47.33 25.70L47.33 25.70Q47.62 26.02 47.82 26.32Q48.03 26.62 48.03 26.91L48.03 26.91Q47.52 27.55 46.96 27.60Q46.40 27.65 45.86 27.36L45.86 27.36Q45.02 26.91 44.26 25.98Q43.49 25.06 42.85 24.54L42.85 24.54Q42.62 25.15 42.62 26.32Q42.62 27.49 42.50 28.45L42.50 28.45Q42.43 28.67 42.18 28.72Q41.92 28.77 41.70 28.90L41.70 28.90Q42.14 29.18 42.51 29.50Q42.88 29.82 42.98 30.43L42.98 30.43Q43.10 30.43 43.25 30.37Q43.39 30.30 43.55 30.24L43.55 30.24Q43.78 30.18 44.02 30.10Q44.26 30.02 44.48 30.02L44.48 30.02Q45.34 30.05 46.18 30.46Q47.01 30.88 47.58 31.26L47.58 31.26Q47.90 31.14 48.19 31.14Q48.48 31.14 48.77 31.17L48.77 31.17Q49.02 31.20 49.26 31.22Q49.50 31.23 49.70 31.14L49.70 31.14Q49.18 30.66 48.78 30.08Q48.38 29.50 48.03 28.90L48.03 28.90Q48.16 28.80 48.29 28.72Q48.42 28.64 48.64 28.67L48.64 28.67Q48.77 27.33 48.82 26.32Q48.86 25.31 48.88 24.30Q48.90 23.30 48.86 21.98L48.86 21.98Q48.67 21.54 48.27 21.30Q47.87 21.06 47.81 20.45L47.81 20.45Q47.81 20.38 47.90 20.38L47.90 20.38Q48.06 20.35 48.03 20.19L48.03 20.19Q48.10 20.19 48.22 20.19L48.22 20.19Q48.70 20.19 49.12 20.13Q49.54 20.06 49.57 19.62L49.57 19.62Q50.43 19.49 50.90 18.98Q51.36 18.46 51.71 17.82Q52.06 17.18 52.51 16.67L52.51 16.67Q52.48 16.61 52.13 16.58Q51.78 16.54 51.55 16.58L51.55 16.58Q51.39 16.61 51.42 16.78Q51.46 16.96 51.33 17.02L51.33 17.02Q51.14 17.02 50.93 16.96Q50.72 16.90 50.53 16.83L50.53 16.83Q50.27 16.77 50.06 16.70Q49.86 16.64 49.70 16.67L49.70 16.67Q49.57 16.42 49.38 16.18Q49.18 15.94 48.96 15.68L48.96 15.68Q48.58 15.20 48.26 14.70Q47.94 14.21 47.94 13.63L47.94 13.63Q48.06 13.60 48.22 13.70L48.22 13.70Q48.32 13.76 48.42 13.78Q48.51 13.79 48.64 13.63L48.64 13.63Q49.57 14.14 50.75 14.32Q51.94 14.50 53.18 14.50Q54.43 14.50 55.55 14.43L55.55 14.43Q56.13 14.37 56.67 14.13Q57.22 13.89 57.57 13.63L57.57 13.63Q58.78 13.86 59.66 14.45Q60.54 15.04 61.44 15.62L61.44 15.62Q60.61 16.16 59.62 16.24Q58.62 16.32 57.60 16.32L57.60 16.32Q56.99 16.29 56.38 16.30Q55.78 16.32 55.20 16.45L55.20 16.45Q55.10 17.12 54.74 17.54Q54.37 17.95 53.97 18.32Q53.57 18.69 53.34 19.26L53.34 19.26Q53.38 19.26 53.44 19.30L53.44 19.30Q53.70 19.33 54.10 19.36Q54.50 19.39 54.98 19.14L54.98 19.14Q55.81 19.39 56.26 19.23Q56.70 19.07 56.99 18.69L56.99 18.69Q58.02 19.07 59.10 19.26Q60.19 19.46 61.14 19.79Q62.08 20.13 62.62 21.02ZM57.09 31.04L57.09 31.04Q57.22 29.54 57.22 27.68Q57.22 25.82 57.15 24.00Q57.09 22.18 56.99 20.80L56.99 20.80Q55.71 20.58 54.59 20.75Q53.47 20.93 52.26 21.22L52.26 21.22Q52.10 21.25 51.92 21.30Q51.74 21.34 51.55 21.38L51.55 21.38Q51.33 21.73 51.31 22.50Q51.30 23.26 51.46 23.74L51.46 23.74Q52.10 23.58 52.86 23.46Q53.63 23.33 54.34 23.36L54.34 23.36Q55.14 23.39 55.76 23.74Q56.38 24.10 56.61 25.02L56.61 25.02Q55.14 25.22 53.62 25.30Q52.10 25.38 51.20 25.73L51.20 25.73L51.20 27.39Q51.49 27.46 51.76 27.41Q52.03 27.36 52.29 27.30L52.29 27.30Q52.64 27.20 52.99 27.18Q53.34 27.17 53.70 27.39L53.70 27.39Q53.76 27.30 53.73 27.22Q53.70 27.14 53.63 27.07L53.63 27.07Q53.57 26.91 53.70 26.91L53.70 26.91L53.70 26.91Q54.37 27.04 55.06 27.20Q55.74 27.36 56.19 27.71Q56.64 28.06 56.61 28.67L56.61 28.67Q56.10 28.67 55.54 28.74Q54.98 28.80 54.40 28.86L54.40 28.86Q53.57 28.99 52.75 29.07Q51.94 29.15 51.20 29.02L51.20 29.02Q51.20 29.15 51.18 29.25Q51.17 29.34 51.14 29.47L51.14 29.47Q51.10 29.86 51.09 30.22Q51.07 30.59 51.20 31.04L51.20 31.04Q52.38 31.23 53.52 31.17Q54.66 31.10 55.46 30.69L55.46 30.69Q55.65 30.72 55.79 30.78Q55.94 30.85 56.06 30.91L56.06 30.91Q56.29 31.04 56.51 31.10Q56.74 31.17 57.09 31.04ZM48.38 16.32L48.38 16.32Q48.42 16.45 48.32 16.61L48.32 16.61Q48.29 16.67 48.27 16.74Q48.26 16.80 48.29 16.93L48.29 16.93Q47.58 17.18 47.17 17.76Q46.75 18.34 46.30 18.86Q45.86 19.39 45.09 19.62L45.09 19.62Q45.02 19.58 44.90 19.52L44.90 19.52Q44.61 19.36 44.30 19.28Q44 19.20 43.46 19.39L43.46 19.39Q43.68 18.46 44.34 17.44Q44.99 16.42 45.44 15.49L45.44 15.49Q45.41 15.14 45.23 14.94Q45.06 14.75 44.99 14.43L44.99 14.43Q45.57 14.05 46.18 14.32Q46.78 14.59 47.31 15.14Q47.84 15.68 48.22 16.16L48.22 16.16Q48.35 16.26 48.38 16.32ZM39.10 16.93L39.10 16.93Q39.46 17.31 39.55 18.03Q39.65 18.75 39.44 19.33Q39.23 19.90 38.62 19.97L38.62 19.97Q38.30 20.00 37.71 19.54Q37.12 19.07 36.56 18.43Q36 17.79 35.81 17.38L35.81 17.38Q35.55 16.83 35.57 16.19Q35.58 15.55 35.23 15.14L35.23 15.14Q35.23 15.14 35.70 15.26Q36.16 15.39 36.83 15.65Q37.50 15.90 38.14 16.22Q38.78 16.54 39.10 16.93ZM95.90 36.74L95.90 36.74Q95.62 36.83 95.31 36.86Q95.01 36.90 94.72 36.90L94.72 36.90Q93.73 36.90 92.72 36.64Q91.71 36.38 90.69 36.29L90.69 36.29Q89.92 36.22 89.14 36.21Q88.35 36.19 87.58 36.19L87.58 36.19Q85.41 36.19 82.99 36.50Q80.58 36.80 78.53 37.63L78.53 37.63Q77.34 37.18 76.56 36.54Q75.78 35.90 75.14 34.82L75.14 34.82Q77.02 34.53 78.91 34.35Q80.80 34.18 82.69 34.18L82.69 34.18Q83.20 34.18 83.71 34.18Q84.22 34.18 84.74 34.24L84.74 34.24Q84.83 32.35 84.83 30.56L84.83 30.56Q84.83 29.41 84.80 28.18Q84.77 26.94 84.51 25.79L84.51 25.79L84.13 25.79Q83.23 25.79 82.35 26.03Q81.47 26.27 80.54 26.27L80.54 26.27Q79.94 26.27 79.74 26.14Q79.55 26.02 79.46 25.81Q79.36 25.60 79.01 25.38L79.01 25.38Q78.82 25.54 78.56 25.44L78.56 25.44Q78.53 25.31 78.51 25.18Q78.50 25.06 78.50 24.93L78.50 24.93Q78.43 24.83 78.32 24.78Q78.21 24.74 78.08 24.67L78.08 24.67Q77.89 24.61 77.73 24.50Q77.57 24.38 77.57 24.10L77.57 24.10Q78.50 23.84 79.44 23.82Q80.38 23.81 81.34 23.84L81.34 23.84Q81.60 23.84 81.87 23.84Q82.14 23.84 82.40 23.84L82.40 23.84Q82.94 23.84 83.50 23.81Q84.06 23.78 84.61 23.68L84.61 23.68Q84.58 21.70 84.48 19.34Q84.38 16.99 83.81 14.88L83.81 14.88Q83.42 13.38 82.75 12.26L82.75 12.26Q84.26 12.38 85.47 13.18Q86.69 13.98 87.84 14.91L87.84 14.91Q87.36 16.96 87.30 19.10Q87.23 21.25 87.14 23.33L87.14 23.33Q87.90 23.20 88.67 23.12Q89.44 23.04 90.24 23.04L90.24 23.04Q91.36 23.04 92.37 23.38Q93.38 23.71 94.08 24.67L94.08 24.67Q93.66 25.06 92.78 25.22Q91.90 25.38 90.85 25.42Q89.79 25.47 88.82 25.54Q87.84 25.60 87.20 25.79L87.20 25.79Q87.04 27.87 86.96 29.97Q86.88 32.06 86.62 34.14L86.62 34.14L86.98 34.14Q87.52 34.14 88.05 34.21Q88.58 34.27 89.09 34.27L89.09 34.27Q89.60 34.27 90.06 34.13Q90.53 33.98 90.88 33.60L90.88 33.60Q92 33.82 93.02 34.22Q94.05 34.62 95.10 34.94L95.10 34.94Q95.17 35.10 95.28 35.23Q95.39 35.36 95.49 35.49L95.49 35.49Q95.71 35.74 95.89 36.03Q96.06 36.32 95.90 36.74ZM80.29 19.78L80.29 19.78Q79.26 19.52 78.48 19.94Q77.70 20.35 77.06 21.09L77.06 21.09Q76.42 21.86 75.87 22.75Q75.33 23.65 74.75 24.29L74.75 24.29Q74.78 24.45 74.86 24.59Q74.94 24.74 74.94 24.90L74.94 24.90Q74.94 24.93 74.91 24.99Q74.88 25.06 74.85 25.12L74.85 25.12Q75.87 25.82 76.88 26.78Q77.89 27.74 78.59 28.80L78.59 28.80Q78.46 29.28 78.50 29.79L78.50 29.79Q78.08 30.08 77.66 30.08L77.66 30.08Q77.09 30.08 76.61 29.58Q76.13 29.09 75.70 28.50Q75.26 27.90 74.82 27.58L74.82 27.58Q74.75 28.58 74.74 29.60Q74.72 30.62 74.72 31.65L74.72 31.65Q74.72 33.12 74.80 34.56Q74.88 36 74.88 37.47L74.88 37.47Q74.88 38.08 74.80 38.70Q74.72 39.33 74.24 39.78L74.24 39.78Q73.86 39.97 73.47 39.63Q73.09 39.30 72.78 38.74Q72.48 38.18 72.30 37.63Q72.13 37.09 72.13 36.80L72.13 36.80Q72.13 36.16 72.30 35.54Q72.48 34.91 72.54 34.30L72.54 34.30Q72.67 33.28 72.70 32.22Q72.74 31.17 72.74 30.14L72.74 30.14Q72.74 28.29 72.64 26.46L72.64 26.46Q72.61 26.50 72.53 26.59Q72.45 26.69 72.32 26.69L72.32 26.69Q72.29 26.91 72.13 27.14Q71.97 27.36 71.78 27.46L71.78 27.46Q71.71 27.46 71.68 27.33L71.68 27.33Q71.68 27.17 71.58 27.20L71.58 27.20Q71.36 27.58 71.02 28.10Q70.69 28.61 70.30 28.83L70.30 28.83Q70.30 29.06 70.56 29.12L70.56 29.12Q70.40 29.25 70.29 29.23Q70.18 29.22 70.08 29.15L70.08 29.15Q69.92 29.12 69.82 29.09L69.82 29.09Q69.73 29.25 69.86 29.28Q69.98 29.31 70.11 29.25L70.11 29.25Q70.11 29.54 69.89 29.63Q69.66 29.73 69.42 29.82Q69.18 29.92 69.12 30.27L69.12 30.27L68.93 30.11Q68.48 30.66 68.18 30.99Q67.87 31.33 67.26 31.55L67.26 31.55L67.46 31.62Q67.04 31.94 66.58 32.14Q66.11 32.35 65.57 32.42L65.57 32.42L65.79 32.13Q65.66 32.10 65.31 32.19L65.31 32.19Q65.06 32.26 64.77 32.32Q64.48 32.38 64.19 32.26L64.19 32.26Q64.48 31.90 64.06 31.97L64.06 31.97Q64.06 31.68 64.16 31.58Q64.26 31.49 64.38 31.42L64.38 31.42Q64.48 31.36 64.56 31.31Q64.64 31.26 64.67 31.10L64.67 31.10Q65.12 31.17 65.38 31.12Q65.63 31.07 65.95 30.94L65.95 30.94Q66.05 30.91 66.16 30.88Q66.27 30.85 66.40 30.82L66.40 30.82Q66.40 30.75 66.26 30.75Q66.11 30.75 65.98 30.78L65.98 30.78Q65.70 30.82 65.70 30.78L65.70 30.78Q65.70 30.62 65.98 30.53Q66.27 30.43 66.50 30.43L66.50 30.43Q66.59 29.98 66.85 29.76Q67.10 29.54 67.36 29.34L67.36 29.34Q67.58 29.18 67.78 28.99Q67.97 28.80 68.03 28.42L68.03 28.42L68.51 28.42Q68.51 28.42 68.51 28.38L68.51 28.38Q68.51 28.19 68.38 28.19L68.38 28.19Q68.48 27.94 68.59 27.94Q68.70 27.94 68.86 28.00L68.86 28.00Q69.02 28.06 69.09 28.06L69.09 28.06Q69.15 28.03 69.22 27.94Q69.28 27.84 69.22 27.78L69.22 27.78Q69.15 27.81 69.09 27.89Q69.02 27.97 68.93 27.97L68.93 27.97Q68.86 27.90 68.85 27.81Q68.83 27.71 68.83 27.65L68.83 27.65Q68.96 27.68 69.15 27.62L69.15 27.62Q69.31 27.55 69.38 27.68L69.38 27.68Q69.54 27.30 69.15 27.30L69.15 27.30Q69.31 27.17 69.41 27.17Q69.50 27.17 69.63 27.23L69.63 27.23Q69.60 26.88 69.81 26.72Q70.02 26.56 70.24 26.56L70.24 26.56Q70.27 26.05 70.66 25.60Q71.04 25.15 71.46 24.67L71.46 24.67Q71.81 24.22 72.05 23.74Q72.29 23.26 72.13 22.66L72.13 22.66Q72.51 22.69 72.67 22.51Q72.83 22.34 72.96 22.14L72.96 22.14Q73.02 21.98 73.10 21.87Q73.18 21.76 73.34 21.73L73.34 21.73Q73.41 21.28 73.84 20.56Q74.27 19.84 74.66 19.58L74.66 19.58Q74.18 19.46 73.60 19.46L73.60 19.46Q73.44 19.46 73.28 19.46Q73.12 19.46 72.96 19.46L72.96 19.46Q72.16 19.42 71.38 19.49Q70.59 19.55 70.08 20.06L70.08 20.06Q70.05 20.10 70.08 20.19L70.08 20.19Q70.11 20.32 70.02 20.38L70.02 20.38Q69.63 20.42 69.26 20.54Q68.90 20.67 68.54 20.83L68.54 20.83Q68.16 20.99 67.78 21.12Q67.39 21.25 67.01 21.25L67.01 21.25Q66.78 20.80 66.56 20.38Q66.34 19.97 65.89 19.74L65.89 19.74Q65.98 19.42 65.84 19.22Q65.70 19.01 65.50 18.82L65.50 18.82Q65.31 18.62 65.15 18.42Q64.99 18.21 64.96 17.89L64.96 17.89Q65.15 17.89 65.23 17.84Q65.31 17.79 65.28 17.57L65.28 17.57Q66.21 17.79 67.14 17.90Q68.06 18.02 68.99 18.02L68.99 18.02Q70.75 18.02 72.50 17.76Q74.24 17.50 75.97 17.28L75.97 17.28L76.06 16.61Q77.06 16.77 78 17.01Q78.94 17.25 79.68 17.95L79.68 17.95Q79.42 18.30 79.57 18.59Q79.71 18.88 79.90 19.17L79.90 19.17Q80.03 19.30 80.13 19.46Q80.22 19.62 80.29 19.78ZM77.28 14.05L77.25 14.43Q76.80 14.72 76.62 15.25Q76.45 15.78 76.18 16.24Q75.90 16.70 75.17 16.83L75.17 16.83Q75.14 16.61 75.15 16.35Q75.17 16.10 75.20 15.84L75.20 15.84Q75.23 15.39 75.23 14.94Q75.23 14.50 75.07 14.11L75.07 14.11Q74.30 13.73 73.55 13.33Q72.80 12.93 72.10 12.45L72.10 12.45Q72.74 12.10 73.42 11.90Q74.11 11.71 74.82 11.71L74.82 11.71Q75.94 11.71 76.66 12.29Q77.38 12.86 77.28 14.05L77.28 14.05ZM74.02 21.06L73.44 21.76Q73.50 21.86 73.42 21.97Q73.34 22.08 73.25 22.21L73.25 22.21Q73.15 22.34 73.06 22.46Q72.96 22.59 72.93 22.72L72.93 22.72Q73.28 22.62 73.52 22.29Q73.76 21.95 73.89 21.58Q74.02 21.22 74.02 21.06L74.02 21.06ZM68.70 28.74L68.99 28.32Q68.93 28.26 68.70 28.48L68.70 28.48Q68.58 28.61 68.51 28.61L68.51 28.61Q68.29 28.77 68.11 29.01Q67.94 29.25 67.65 29.60L67.65 29.60Q67.71 29.63 67.89 29.47Q68.06 29.31 68.26 29.12L68.26 29.12Q68.42 28.96 68.53 28.85Q68.64 28.74 68.70 28.74L68.70 28.74ZM127.20 28.64L127.20 28.64Q126.85 28.58 126.70 28.74Q126.56 28.90 126.46 29.09L126.46 29.09Q125.18 29.47 123.94 29.14Q122.69 28.80 121.65 28.05Q120.61 27.30 119.90 26.43L119.90 26.43Q119.90 26.34 119.94 26.24L119.94 26.24Q120.03 26.11 120 25.98L120 25.98Q119.39 25.70 118.93 24.78Q118.46 23.87 117.92 23.07L117.92 23.07Q117.28 22.14 116.58 21.17Q115.87 20.19 115.17 19.17L115.17 19.17Q114.43 18.08 113.62 16.96Q112.80 15.84 112.10 14.59L112.10 14.59Q110.94 16.06 109.89 17.81Q108.83 19.55 107.81 21.18L107.81 21.18Q107.58 21.57 107.25 21.87Q106.91 22.18 106.78 22.66L106.78 22.66Q107.87 22.59 109.04 22.53Q110.21 22.46 111.31 22.24Q112.42 22.02 113.25 21.44L113.25 21.44Q113.86 21.70 114.48 21.92Q115.10 22.14 115.65 22.48Q116.19 22.82 116.45 23.46L116.45 23.46Q115.94 23.55 115.39 23.65Q114.85 23.74 114.30 23.87L114.30 23.87Q112.83 24.16 111.38 24.37Q109.92 24.58 108.66 24.37Q107.39 24.16 106.50 23.23L106.50 23.23Q105.60 24.32 104.70 25.55Q103.81 26.78 102.75 27.94Q101.70 29.09 100.38 29.95Q99.07 30.82 97.31 31.20L97.31 31.20Q97.31 31.20 97.34 31.07Q97.38 30.94 97.41 30.72L97.41 30.72Q97.31 30.82 96.99 30.93Q96.67 31.04 96.61 31.17L96.61 31.17Q96.61 31.17 96.61 31.17L96.61 31.17Q96.61 31.17 96.61 31.17L96.61 31.17Q96.93 30.66 97.42 30.21Q97.92 29.76 98.40 29.28L98.40 29.28Q98.91 28.77 99.42 28.24Q99.94 27.71 100.45 27.20L100.45 27.20Q101.95 24.93 103.55 22.75Q105.15 20.58 106.64 18.30Q108.13 16.03 109.34 13.47L109.34 13.47Q109.31 12.99 109.04 12.77Q108.77 12.54 108.50 12.34Q108.22 12.13 108.13 11.74L108.13 11.74Q108.45 11.39 108.86 11.33Q109.28 11.26 109.60 11.46L109.60 11.46Q109.57 11.39 109.52 11.33Q109.47 11.26 109.47 11.14L109.47 11.14Q111.04 11.14 111.95 11.62Q112.86 12.10 112.90 13.57L112.90 13.57Q114.18 14.72 115.33 16.03Q116.48 17.34 117.68 18.59Q118.88 19.84 120.26 20.86L120.26 20.86L120.26 21.31Q121.31 22.05 122.48 22.61Q123.65 23.17 124.64 23.94L124.64 23.94Q125.12 24.29 125.74 25.06Q126.37 25.82 126.82 26.77Q127.26 27.71 127.20 28.64ZM119.78 28.86L119.78 28.86Q118.21 29.12 116.11 29.14Q114.02 29.15 112.03 29.34L112.03 29.34Q111.26 30.82 110.30 32.10Q109.34 33.38 108.51 34.82L108.51 34.82Q110.34 34.88 111.71 34.74Q113.09 34.59 114.75 34.37L114.75 34.37Q115.04 34.34 115.33 34.29Q115.62 34.24 115.94 34.21L115.94 34.21Q115.87 33.38 115.57 32.82Q115.26 32.26 114.86 31.81Q114.46 31.36 114.14 30.88Q113.82 30.40 113.73 29.76L113.73 29.76Q115.14 30.05 116.11 30.82Q117.09 31.58 117.89 32.54Q118.69 33.50 119.52 34.43L119.52 34.43Q119.46 34.69 119.50 35.10Q119.55 35.52 119.65 36L119.65 36Q119.81 36.67 119.87 37.36Q119.94 38.05 119.62 38.43L119.62 38.43Q118.85 38.69 118.32 38.14Q117.79 37.60 117.34 36.96L117.34 36.96Q117.28 36.83 117.20 36.72Q117.12 36.61 117.06 36.51L117.06 36.51Q114.24 36.54 111.70 36.77Q109.15 36.99 107.26 37.92L107.26 37.92Q107.10 37.89 107.17 38.14L107.17 38.14Q107.20 38.40 107.07 38.37L107.07 38.37Q105.82 37.98 104.99 37.07Q104.16 36.16 103.62 34.98L103.62 34.98Q103.62 34.94 103.74 34.88L103.74 34.88Q104 34.78 103.81 34.75L103.81 34.75Q104.19 34.59 104.51 34.69Q104.83 34.78 105.12 34.91L105.12 34.91Q105.28 34.98 105.42 35.04Q105.57 35.10 105.70 35.10L105.70 35.10Q106.82 34.05 107.58 32.62Q108.35 31.20 109.12 29.79L109.12 29.79Q108.61 29.70 107.92 29.94Q107.23 30.18 106.82 30.43L106.82 30.43Q105.63 29.98 104.93 29.25Q104.22 28.51 103.68 27.42L103.68 27.42Q104.03 27.33 104.38 27.39Q104.74 27.46 105.12 27.55L105.12 27.55Q105.50 27.65 105.98 27.73Q106.46 27.81 107.04 27.74L107.04 27.74Q108.19 27.58 109.63 27.50Q111.07 27.42 112.42 27.34Q113.76 27.26 114.59 27.10L114.59 27.10Q114.88 27.04 115.14 26.94Q115.39 26.85 115.52 26.53L115.52 26.53Q116.22 26.53 117.10 26.82Q117.98 27.10 118.74 27.62Q119.49 28.13 119.78 28.86ZM155.36 30.34L155.36 30.34Q155.33 30.40 155.17 30.62L155.17 30.62Q155.01 30.85 154.85 31.12Q154.69 31.39 154.75 31.58L154.75 31.58Q154.59 31.65 154.43 31.79Q154.27 31.94 154.30 32.29L154.30 32.29Q154.02 32.22 153.95 32.30Q153.89 32.38 153.86 32.51L153.86 32.51Q153.86 32.61 153.82 32.69Q153.79 32.77 153.66 32.83L153.66 32.83Q153.66 32.90 153.79 32.90L153.79 32.90Q153.86 32.86 153.90 32.90Q153.95 32.93 153.95 33.09L153.95 33.09Q153.79 32.96 153.63 33.12L153.63 33.12Q153.57 33.18 153.50 33.22Q153.44 33.25 153.31 33.18L153.31 33.18Q153.31 33.25 153.15 33.41L153.15 33.41Q152.93 33.66 153.06 33.79L153.06 33.79Q152.67 33.98 152.50 34.27Q152.32 34.56 152.14 34.83Q151.97 35.10 151.55 35.30L151.55 35.30Q151.58 35.39 151.65 35.34Q151.71 35.30 151.71 35.30L151.71 35.30Q151.71 35.39 151.31 35.81Q150.91 36.22 150.45 36.59Q149.98 36.96 149.76 36.99L149.76 36.99Q149.70 37.09 149.73 37.15L149.73 37.15Q149.79 37.25 149.70 37.34L149.70 37.34Q149.50 37.22 149.44 37.25Q149.38 37.28 149.31 37.34L149.31 37.34Q149.25 37.44 149.15 37.52Q149.06 37.60 148.90 37.63L148.90 37.63Q148.83 37.60 148.83 37.44L148.83 37.44Q148.90 37.28 148.80 37.18L148.80 37.18Q148.64 37.15 148.56 37.18Q148.48 37.22 148.42 37.28L148.42 37.28Q148.35 37.31 148.26 37.36Q148.16 37.41 148 37.34L148 37.34Q148.06 37.18 148.06 37.01Q148.06 36.83 148 36.74L148 36.74Q148.03 36.67 148.16 36.67L148.16 36.67Q148.35 36.70 148.45 36.64L148.45 36.64Q148.42 36.45 148.13 36.48L148.13 36.48Q148.03 36.48 147.94 36.48Q147.84 36.48 147.74 36.45L147.74 36.45Q147.74 36.32 147.68 36.16L147.68 36.16Q147.65 36.10 147.63 36.03Q147.62 35.97 147.65 35.84L147.65 35.84Q148 35.84 148.43 35.73Q148.86 35.62 149.15 35.30L149.15 35.30Q149.25 35.20 149.26 34.99Q149.28 34.78 149.34 34.69L149.34 34.69Q149.38 34.66 149.44 34.72L149.44 34.72Q149.50 34.78 149.50 34.78L149.50 34.78Q149.54 34.75 149.60 34.62L149.60 34.62Q149.66 34.50 149.76 34.38Q149.86 34.27 150.05 34.34L150.05 34.34Q149.98 33.98 150.14 33.79L150.14 33.79Q150.21 33.73 150.24 33.79Q150.27 33.86 150.21 33.98L150.21 33.98Q150.56 33.98 150.64 33.73Q150.72 33.47 150.80 33.22Q150.88 32.96 151.20 32.93L151.20 32.93Q151.33 32.90 151.34 32.99Q151.36 33.09 151.36 33.09L151.36 33.09Q151.65 32.86 151.68 32.61Q151.71 32.35 151.71 32.03L151.71 32.03Q151.71 31.87 151.71 31.78L151.71 31.78Q151.78 31.71 151.87 31.60Q151.97 31.49 152.06 31.39L152.06 31.39Q152.26 31.14 152.46 30.93Q152.67 30.72 152.80 30.88L152.80 30.88Q152.90 30.82 152.96 30.74Q153.02 30.66 153.15 30.62L153.15 30.62Q153.12 30.53 153.12 30.43Q153.12 30.34 153.12 30.27L153.12 30.27Q153.15 30.02 152.96 29.98L152.96 29.98Q153.12 29.47 153.20 28.75Q153.28 28.03 153.50 27.58L153.50 27.58L153.25 27.33Q153.34 26.69 153.02 25.94Q152.70 25.18 152.21 24.48Q151.71 23.78 151.20 23.33L151.20 23.33Q151.20 23.26 151.28 23.25Q151.36 23.23 151.36 23.23L151.36 23.23Q150.37 21.82 148.93 20.72Q147.49 19.62 145.79 18.72L145.79 18.72Q145.66 18.72 145.54 18.72Q145.41 18.72 145.25 18.72L145.25 18.72Q144.90 18.72 144.59 18.75Q144.29 18.78 144.19 19.07L144.19 19.07Q143.90 18.98 143.33 19.26Q142.75 19.55 142.11 20.02Q141.47 20.48 141.02 20.93Q140.58 21.38 140.54 21.63L140.54 21.63Q140.10 21.76 139.94 22.14Q139.78 22.53 139.39 22.72L139.39 22.72Q139.46 22.91 139.10 22.88L139.10 22.88Q139.01 22.88 138.94 22.88L138.94 22.88Q138.94 22.91 138.94 22.94L138.94 22.94Q138.88 23.23 139.04 23.33L139.04 23.33Q138.98 23.55 138.78 23.42L138.78 23.42Q138.66 24.00 138.35 24.42Q138.05 24.83 137.63 25.12L137.63 25.12Q137.60 25.38 137.22 25.97Q136.83 26.56 136.45 27.25Q136.06 27.94 136.03 28.48L136.03 28.48Q135.52 28.96 135.31 29.54Q135.10 30.11 134.94 30.98L134.94 30.98Q135.20 31.14 135.58 31.15Q135.97 31.17 136.38 31.17L136.38 31.17Q136.74 31.17 137.04 31.18Q137.34 31.20 137.44 31.33L137.44 31.33Q137.82 31.10 138.51 31.07Q139.20 31.04 139.84 30.88L139.84 30.88Q139.94 30.85 140.03 30.82Q140.13 30.78 140.22 30.75L140.22 30.75Q140.48 30.66 140.69 30.61Q140.90 30.56 140.99 30.69L140.99 30.69Q141.34 30.37 141.79 30.18Q142.24 29.98 142.59 29.68Q142.94 29.38 143.04 28.83L143.04 28.83Q143.97 28.16 144.53 27.15Q145.09 26.14 145.65 25.12Q146.21 24.10 147.10 23.42L147.10 23.42Q147.01 23.14 147.23 22.96Q147.46 22.78 147.78 22.75Q148.10 22.72 148.26 22.98L148.26 22.98Q148.22 23.90 147.81 24.46Q147.39 25.02 147.01 25.63L147.01 25.63Q146.59 27.20 145.89 28.50Q145.18 29.79 144.45 31.04L144.45 31.04Q144.35 31.14 144.10 31.14L144.10 31.14Q144.06 31.20 144.06 31.33L144.06 31.33Q144.03 31.52 143.90 31.58L143.90 31.58Q143.33 31.65 142.80 31.78Q142.27 31.90 141.73 32.03L141.73 32.03Q140.74 32.26 139.74 32.42Q138.75 32.58 137.63 32.38L137.63 32.38Q137.12 32.51 136.53 32.50Q135.94 32.48 135.30 32.42L135.30 32.42Q134.59 32.35 133.92 32.34Q133.25 32.32 132.64 32.48L132.64 32.48Q132.38 32.35 132.30 32.06Q132.22 31.78 131.94 31.68L131.94 31.68Q132 31.52 132.11 31.39Q132.22 31.26 132.29 31.14L132.29 31.14Q132.29 30.30 132.59 29.41Q132.90 28.51 133.28 27.68L133.28 27.68Q133.92 26.34 134.82 24.82Q135.71 23.30 136.80 21.87Q137.89 20.45 139.01 19.31Q140.13 18.18 141.18 17.57L141.18 17.57Q142.05 17.06 143.30 16.88Q144.54 16.70 145.79 16.86Q147.04 17.02 147.90 17.57L147.90 17.57Q148.64 17.98 149.49 18.69Q150.34 19.39 151.09 20.13Q151.84 20.86 152.26 21.47L152.26 21.47Q152.26 21.47 152.29 21.50L152.29 21.50Q152.54 21.73 152.86 22.06Q153.18 22.40 153.15 22.72L153.15 22.72Q153.70 23.26 154.34 24.26Q154.98 25.25 155.01 26.34L155.01 26.34Q155.07 26.34 155.17 26.30L155.17 26.30Q155.26 26.24 155.36 26.27L155.36 26.27Q155.36 26.46 155.39 26.67Q155.42 26.88 155.46 27.07L155.46 27.07Q155.55 27.84 155.60 28.69Q155.65 29.54 155.36 30.34ZM185.60 19.55L185.60 19.55Q185.15 20.13 184.42 20.22Q183.68 20.32 182.91 20.32L182.91 20.32Q182.62 20.32 182.34 20.32Q182.05 20.32 181.79 20.35L181.79 20.35Q181.79 20.51 181.81 20.69Q181.82 20.86 181.82 21.06L181.82 21.06Q181.86 21.41 181.86 21.74Q181.86 22.08 181.70 22.30L181.70 22.30Q182.05 22.62 182.05 23.52Q182.05 24.42 182.02 25.22L182.02 25.22Q181.98 25.41 181.98 25.50L181.98 25.50Q182.24 25.92 182.14 26.27Q182.05 26.62 181.92 26.98L181.92 26.98Q181.86 27.14 181.79 27.30Q181.73 27.46 181.70 27.62L181.70 27.62Q181.66 27.71 181.76 27.74Q181.86 27.78 181.92 27.78L181.92 27.78Q181.98 27.81 181.98 27.81L181.98 27.81Q181.98 27.90 181.92 28.03L181.92 28.03Q181.89 28.10 181.87 28.18Q181.86 28.26 181.89 28.42L181.89 28.42Q181.92 28.58 181.87 28.70Q181.82 28.83 181.76 28.96L181.76 28.96Q181.70 29.15 181.65 29.36Q181.60 29.57 181.79 29.86L181.79 29.86Q181.57 30.05 181.57 30.27Q181.57 30.50 181.60 30.72L181.60 30.72Q181.63 30.91 181.63 31.01L181.63 31.01Q181.41 31.14 181.34 31.34Q181.28 31.55 181.25 31.78L181.25 31.78Q181.18 32.00 181.12 32.16Q181.06 32.32 180.83 32.32L180.83 32.32Q180.83 32.38 180.93 32.45L180.93 32.45Q181.02 32.48 180.99 32.58L180.99 32.58Q180.86 32.74 180.74 32.94Q180.61 33.15 180.48 33.38L180.48 33.38Q180.16 33.92 179.76 34.38Q179.36 34.85 178.59 34.72L178.59 34.72Q178.37 34.85 178.32 35.18Q178.27 35.52 178.27 35.84L178.27 35.84Q178.24 36.03 178.22 36.18Q178.21 36.32 178.18 36.42L178.18 36.42Q178.14 36.42 178.08 36.42L178.08 36.42Q177.44 36.51 176.98 36.50Q176.51 36.48 176.22 35.97L176.22 35.97Q176.26 35.87 176.32 35.65L176.32 35.65Q176.45 35.30 176.56 34.85Q176.67 34.40 176.64 33.92L176.64 33.92Q176.58 33.76 176.22 33.76L176.22 33.76Q176.35 33.57 176.16 33.52Q175.97 33.47 175.65 33.44L175.65 33.44Q175.23 33.41 174.77 33.33Q174.30 33.25 174.08 32.86L174.08 32.86Q173.70 33.09 173.34 33.09Q172.99 33.09 172.48 33.22L172.48 33.22Q172.45 32.90 172.10 32.88Q171.74 32.86 171.58 32.58L171.58 32.58Q171.62 32.51 171.70 32.51Q171.78 32.51 171.78 32.42L171.78 32.42Q171.71 32.26 171.58 32.42L171.58 32.42Q171.42 32.54 171.33 32.51L171.33 32.51Q170.85 32.19 170.91 31.30L170.91 31.30Q170.94 30.40 171.36 29.39Q171.78 28.38 172.13 27.90L172.13 27.90Q172.16 27.87 172.26 27.90L172.26 27.90Q172.38 27.90 172.38 27.90L172.38 27.90Q172.54 27.71 172.61 27.41Q172.67 27.10 173.12 27.10L173.12 27.10Q173.18 26.94 173.18 26.77Q173.18 26.59 173.28 26.46L173.28 26.46Q173.54 26.34 173.71 26.22Q173.89 26.11 174.05 25.98L174.05 25.98Q174.37 25.79 174.66 25.65Q174.94 25.50 175.42 25.50L175.42 25.50Q176 25.50 176.40 25.82Q176.80 26.14 177.20 26.48Q177.60 26.82 178.18 26.91L178.18 26.91Q178.91 28.54 178.91 30.34L178.91 30.34Q178.91 30.94 178.85 31.41Q178.78 31.87 178.78 31.87L178.78 31.87Q179.36 31.04 179.68 30.02Q180 28.99 180.16 27.81L180.16 27.81Q180.42 26.08 180.43 24.16Q180.45 22.24 180.54 20.35L180.54 20.35Q179.84 20.35 179.15 20.38Q178.46 20.42 177.79 20.45L177.79 20.45Q176.51 20.54 175.17 20.58Q173.82 20.61 172.32 20.45L172.32 20.45Q172.19 20.42 171.97 20.40Q171.74 20.38 171.58 20.35L171.58 20.35Q169.86 19.97 168.10 19.44Q166.34 18.91 164.93 18.30L164.93 18.30Q165.82 18.05 166.77 17.95Q167.71 17.86 168.67 17.86L168.67 17.86Q170.24 17.86 171.86 17.82Q173.47 17.79 175.17 17.73L175.17 17.73Q176.38 17.70 177.70 17.66Q179.01 17.63 180.38 17.60L180.38 17.60Q180.38 17.47 180.38 17.26Q180.38 17.06 180.38 16.83L180.38 16.83Q180.35 16.48 180.35 16.11Q180.35 15.74 180.38 15.46L180.38 15.46Q180.90 15.74 181.07 16.45Q181.25 17.15 181.34 17.60L181.34 17.60Q182.24 17.63 183.01 17.71Q183.78 17.79 184.80 17.95L184.80 17.95Q185.15 18.37 185.26 18.78Q185.38 19.20 185.60 19.55ZM177.12 30.27L177.12 30.27Q177.12 29.82 177.04 29.41Q176.96 28.99 176.74 28.67L176.74 28.67Q176.58 28.74 176.48 28.61L176.48 28.61Q176.45 28.51 176.38 28.51L176.38 28.51Q175.90 28.83 175.41 29.34Q174.91 29.86 174.53 30.34Q174.14 30.82 173.98 31.07L173.98 31.07Q173.86 31.10 173.79 31.01Q173.73 30.91 173.73 30.91L173.73 30.91Q173.79 31.10 173.78 31.17Q173.76 31.23 173.70 31.26L173.70 31.26Q173.60 31.33 173.54 31.42L173.54 31.42Q173.66 31.55 173.81 31.47Q173.95 31.39 174.08 31.30L174.08 31.30Q174.27 31.10 174.34 31.17L174.34 31.17Q174.11 31.30 174.08 31.50Q174.05 31.71 173.98 31.87L173.98 31.87Q174.27 31.94 174.77 32.03Q175.26 32.13 175.68 32.29L175.68 32.29Q176.38 32.54 176.29 33.12L176.29 33.12L176.83 33.12Q176.90 32.38 177.01 31.66Q177.12 30.94 177.12 30.27ZM174.62 25.76L174.62 25.76Q174.50 25.98 174.26 26.06Q174.02 26.14 173.89 26.37L173.89 26.37Q174.11 26.30 174.42 26.11Q174.72 25.92 174.62 25.76ZM173.82 26.66L173.82 26.66Q173.63 26.62 173.49 26.83Q173.34 27.04 173.47 27.10L173.47 27.10Q173.57 27.01 173.70 26.83Q173.82 26.66 173.82 26.66ZM222.27 29.57L222.27 29.57Q222.21 30.02 222.05 30.18Q221.89 30.34 221.70 30.48Q221.50 30.62 221.38 31.07L221.38 31.07Q221.18 31.01 221.06 31.04Q220.93 31.07 220.80 31.10L220.80 31.10Q220.70 31.14 220.61 31.15Q220.51 31.17 220.38 31.17L220.38 31.17Q220.35 30.98 220.05 30.90Q219.74 30.82 219.46 30.75Q219.17 30.69 219.07 30.56L219.07 30.56Q218.37 29.47 217.10 28.82Q215.84 28.16 214.46 27.46L214.46 27.46Q212.93 26.62 211.14 25.78Q209.34 24.93 207.58 24.26Q205.82 23.58 204.35 23.36L204.35 23.36Q202.98 23.14 202.10 23.58Q201.22 24.03 201.06 25.15L201.06 25.15Q200.96 25.18 200.88 25.23Q200.80 25.28 200.70 25.31L200.70 25.31Q200.83 25.54 200.69 25.70Q200.54 25.86 200.35 25.92L200.35 25.92Q200.42 26.11 200.26 26.35Q200.10 26.59 199.84 26.88L199.84 26.88Q199.71 27.01 199.58 27.15Q199.46 27.30 199.36 27.46L199.36 27.46Q198.72 28.45 198.08 29.62Q197.44 30.78 196.80 31.87L196.80 31.87Q196.77 31.90 196.67 31.90Q196.58 31.90 196.54 31.97L196.54 31.97Q196.22 32.48 196.02 32.99Q195.81 33.50 195.36 33.92L195.36 33.92Q195.10 33.95 194.91 33.94Q194.72 33.92 194.56 33.89L194.56 33.89Q194.40 33.86 194.22 33.86Q194.05 33.86 193.79 33.92L193.79 33.92Q193.76 33.76 193.65 33.79Q193.54 33.82 193.50 33.66L193.50 33.66Q193.95 33.12 194.42 32.29Q194.88 31.46 195.10 31.07L195.10 31.07Q195.14 31.07 195.17 31.17L195.17 31.17Q195.23 31.30 195.30 31.26L195.30 31.26Q195.30 31.17 195.30 31.04L195.30 31.04Q195.26 30.98 195.26 30.88Q195.26 30.78 195.30 30.62L195.30 30.62L195.36 30.91Q195.39 30.85 195.42 30.62L195.42 30.62Q195.46 30.43 195.52 30.26Q195.58 30.08 195.81 30.11L195.81 30.11L195.74 29.82Q196 29.98 196.10 29.76L196.10 29.76Q195.97 29.70 195.97 29.57Q195.97 29.44 196 29.31L196 29.31L196.10 29.47Q196.32 28.93 196.69 28.16Q197.06 27.39 197.60 27.17L197.60 27.17Q197.60 27.10 197.50 27.09Q197.41 27.07 197.34 27.07L197.34 27.07Q197.38 26.98 197.44 26.91Q197.50 26.85 197.54 26.78L197.54 26.78Q197.63 26.72 197.66 26.64Q197.70 26.56 197.70 26.37L197.70 26.37Q197.76 26.37 197.76 26.46Q197.76 26.56 197.76 26.56L197.76 26.56Q197.92 26.43 197.92 26.24Q197.92 26.05 198.21 26.02L198.21 26.02Q198.21 25.95 198.13 25.94Q198.05 25.92 198.05 25.92L198.05 25.92Q198.34 25.60 198.56 25.10Q198.78 24.61 199.06 24.21Q199.33 23.81 199.65 23.81L199.65 23.81Q199.58 23.62 199.68 23.41Q199.78 23.20 199.87 22.98L199.87 22.98Q200.03 22.72 200.13 22.46Q200.22 22.21 200.06 21.95L200.06 21.95Q200.19 21.95 200.27 21.90Q200.35 21.86 200.45 21.79L200.45 21.79Q200.54 21.73 200.64 21.70Q200.74 21.66 200.86 21.76L200.86 21.76Q200.93 21.73 200.86 21.60L200.86 21.60Q200.77 21.50 200.86 21.41L200.86 21.41Q201.34 21.38 202.18 21.20Q203.01 21.02 203.46 20.96L203.46 20.96Q204.16 20.96 205.20 21.20Q206.24 21.44 207.25 21.73Q208.26 22.02 208.86 22.21L208.86 22.21Q209.09 22.27 209.26 22.27Q209.44 22.27 209.57 22.30L209.57 22.30Q209.82 22.34 210.11 22.46Q210.40 22.59 210.69 22.75L210.69 22.75Q211.07 22.94 211.46 23.10Q211.84 23.26 212.16 23.26L212.16 23.26Q212.16 23.33 212.02 23.34Q211.87 23.36 211.87 23.36L211.87 23.36Q211.94 23.42 212.16 23.42L212.16 23.42Q212.32 23.42 212.45 23.44Q212.58 23.46 212.58 23.62L212.58 23.62Q212.80 23.55 212.90 23.62Q212.99 23.68 213.02 23.74L213.02 23.74Q213.09 23.81 213.12 23.81L213.12 23.81Q213.38 23.81 213.87 24.02Q214.37 24.22 214.80 24.46Q215.23 24.70 215.26 24.86L215.26 24.86Q215.74 24.93 215.94 25.06Q216.13 25.18 216.34 25.33Q216.54 25.47 217.02 25.57L217.02 25.57Q217.15 25.70 217.14 25.81Q217.12 25.92 217.12 25.92L217.12 25.92Q217.34 25.82 217.68 26.02Q218.02 26.21 218.40 26.50L218.40 26.50Q218.59 26.62 218.78 26.75Q218.98 26.88 219.17 27.01L219.17 27.01Q219.39 27.14 219.62 27.26Q219.84 27.39 220.06 27.52L220.06 27.52Q220.58 27.78 220.94 28.02Q221.31 28.26 221.18 28.51L221.18 28.51Q221.18 28.64 221.47 28.61L221.47 28.61Q221.66 28.58 221.73 28.61L221.73 28.61Q221.73 28.74 221.79 28.86Q221.86 28.99 221.92 29.09L221.92 29.09Q222.11 29.38 221.98 29.47L221.98 29.47Q222.05 29.60 222.16 29.58Q222.27 29.57 222.27 29.57ZM222.78 21.15L222.78 21.15Q222.14 21.57 221.55 21.44Q220.96 21.31 220.51 20.86L220.51 20.86Q220 20.35 219.68 19.62Q219.36 18.88 219.23 18.21L219.23 18.21Q219.90 18.27 220.74 18.58Q221.57 18.88 222.19 19.49Q222.82 20.10 222.78 21.15ZM218.37 22.30L218.37 22.30Q217.66 22.53 217.14 22.37Q216.61 22.21 216.22 21.86L216.22 21.86Q215.74 21.38 215.44 20.67Q215.14 19.97 214.88 19.36L214.88 19.36Q215.62 19.23 216.45 19.57Q217.28 19.90 217.86 20.61Q218.43 21.31 218.37 22.30ZM198.21 28.32L198.21 28.32Q198.18 28.35 198.02 28.45L198.02 28.45Q197.89 28.51 197.76 28.59Q197.63 28.67 197.70 28.77L197.70 28.77L198.11 28.67Q197.95 28.64 198.11 28.51L198.11 28.51Q198.27 28.38 198.21 28.32ZM251.20 19.39L251.20 19.39Q251.17 19.42 251.10 19.52L251.10 19.52Q250.98 19.74 250.70 20.00Q250.43 20.26 249.79 20.19L249.79 20.19Q247.97 21.66 246.40 23.41Q244.83 25.15 244 27.74L244 27.74Q243.68 28.80 243.52 30.06Q243.36 31.33 243.50 32.53Q243.65 33.73 244.19 34.66L244.19 34.66Q244.22 34.72 244.30 34.82Q244.38 34.91 244.48 35.04L244.48 35.04Q244.70 35.33 244.91 35.62Q245.12 35.90 245.09 36L245.09 36Q244.96 36.51 244.42 36.46Q243.87 36.42 243.49 36.16L243.49 36.16Q243.01 35.58 242.43 34.61Q241.86 33.63 241.49 32.50Q241.12 31.36 241.25 30.30L241.25 30.30Q241.31 29.98 241.41 30.06Q241.50 30.14 241.54 29.89L241.54 29.89Q241.41 28.96 241.49 28.24Q241.57 27.52 242.05 26.85L242.05 26.85Q242.14 25.50 242.64 24.42Q243.14 23.33 243.78 22.34Q244.42 21.34 244.90 20.29L244.90 20.29Q243.78 20.19 242.56 20.22Q241.34 20.26 240.19 20.32L240.19 20.32Q239.42 20.35 238.69 20.37Q237.95 20.38 237.28 20.38L237.28 20.38Q236.19 20.38 235.09 20.24Q233.98 20.10 232.83 20.03L232.83 20.03Q232.48 20.00 232.11 20.00Q231.74 20.00 231.36 20.03L231.36 20.03Q230.50 20.03 229.65 19.98Q228.80 19.94 228.03 19.58L228.03 19.58Q228.51 19.14 229.38 18.90Q230.24 18.66 230.98 18.53L230.98 18.53Q231.90 18.37 232.98 18.29Q234.05 18.21 235.14 18.08L235.14 18.08Q237.63 17.82 240.53 17.74Q243.42 17.66 245.95 17.63L245.95 17.63Q246.08 17.63 246.19 17.63Q246.30 17.63 246.40 17.63L246.40 17.63Q247.55 17.60 248.56 17.68Q249.57 17.76 250.66 18.43L250.66 18.43Q250.69 18.78 250.93 18.91Q251.17 19.04 251.20 19.39ZM272 37.12L256 37.12L256 9.50L272 9.50L272 37.12ZM258.85 11.46L264 21.54L269.15 11.46L258.85 11.46ZM257.76 13.25L257.76 33.38L262.91 23.30L257.76 13.25ZM265.06 23.30L270.21 33.38L270.21 13.25L265.06 23.30ZM264 25.09L258.85 35.14L269.15 35.14L264 25.09ZM298.59 30.05L298.59 30.05Q298.91 31.07 298.69 32.14Q298.46 33.22 297.92 34.11Q297.38 35.01 296.64 35.62L296.64 35.62Q296.74 36 296.48 36.21Q296.22 36.42 295.90 36.61L295.90 36.61Q295.68 36.74 295.50 36.85Q295.33 36.96 295.23 37.12L295.23 37.12Q294.98 36.96 294.90 36.67Q294.82 36.38 294.69 36.10L294.69 36.10Q294.78 35.90 294.96 35.79Q295.14 35.68 295.14 35.36L295.14 35.36Q295.90 34.75 296.58 33.86Q297.25 32.96 297.28 31.90L297.28 31.90Q297.31 30.66 296.56 29.74Q295.81 28.83 295.01 28.10L295.01 28.10Q294.72 27.87 294.48 27.63Q294.24 27.39 294.05 27.17L294.05 27.17Q294.05 27.17 294.26 27.17Q294.46 27.17 294.69 27.33L294.69 27.33Q294.72 27.10 294.62 27.02Q294.53 26.94 294.43 26.91L294.43 26.91Q294.34 26.88 294.34 26.85Q294.34 26.82 294.50 26.69L294.50 26.69Q294.43 26.53 294.21 26.62L294.21 26.62Q294.14 26.69 294.05 26.70Q293.95 26.72 293.86 26.69L293.86 26.69Q293.92 26.50 293.84 26.35Q293.76 26.21 293.76 26.21L293.76 26.21Q293.70 26.24 293.60 26.27L293.60 26.27Q293.50 26.34 293.39 26.37Q293.28 26.40 293.18 26.30L293.18 26.30L293.18 25.86Q292.99 25.79 292.78 25.70Q292.58 25.60 292.38 25.47L292.38 25.47Q291.94 25.25 291.47 25.07Q291.01 24.90 290.59 24.99L290.59 24.99Q290.53 24.99 290.40 25.12L290.40 25.12Q290.34 25.18 290.19 25.26Q290.05 25.34 289.82 25.28L289.82 25.28Q289.76 25.28 289.76 25.12L289.76 25.12Q289.76 24.99 289.66 24.99L289.66 24.99Q289.25 24.93 288.56 24.98Q287.87 25.02 287.52 25.09L287.52 25.09Q287.33 25.60 287.28 26.62Q287.23 27.65 287.23 28.51L287.23 28.51Q287.23 28.77 287.23 28.99Q287.23 29.22 287.23 29.38L287.23 29.38Q287.33 29.31 287.46 29.26Q287.58 29.22 287.71 29.15L287.71 29.15Q288.35 28.83 289.18 28.48Q290.02 28.13 290.90 28.05Q291.78 27.97 292.54 28.45L292.54 28.45Q292.48 28.61 292.53 28.80Q292.58 28.99 292.64 29.22L292.64 29.22Q292.70 29.38 292.74 29.47L292.74 29.47Q292.38 29.60 292.26 29.86Q292.13 30.11 292 30.40Q291.87 30.69 291.52 30.88L291.52 30.88Q291.68 31.39 291.42 31.78Q291.17 32.16 290.88 32.45L290.88 32.45Q290.75 32.58 290.69 32.64L290.69 32.64Q290.66 32.77 290.75 32.90L290.75 32.90Q290.82 32.93 290.83 32.99Q290.85 33.06 290.78 33.22L290.78 33.22Q290.08 33.70 289.58 34.13Q289.09 34.56 288.06 34.78L288.06 34.78Q288.03 34.75 288 34.72L288 34.72Q287.90 34.59 287.82 34.54Q287.74 34.50 287.52 34.59L287.52 34.59Q287.01 34.05 286.67 33.17Q286.34 32.29 286.27 31.52L286.27 31.52Q284.90 32.26 283.65 32.96Q282.40 33.66 281.09 34.24L281.09 34.24Q281.02 34.24 281.09 34.34L281.09 34.34Q281.18 34.46 281.09 34.53L281.09 34.53Q280.48 34.66 280.11 34.72Q279.74 34.78 279.30 35.07L279.30 35.07Q278.88 35.04 278.61 34.85Q278.34 34.66 277.98 34.53L277.98 34.53Q278.21 34.18 278 33.90Q277.79 33.63 277.54 33.57L277.54 33.57L277.82 33.47Q277.50 33.22 277.28 32.91Q277.06 32.61 276.80 32.29L276.80 32.29Q277.09 31.71 277.46 30.93Q277.82 30.14 278.29 29.44Q278.75 28.74 279.30 28.45L279.30 28.45L279.10 28.26Q279.23 28.10 279.42 27.92Q279.62 27.74 279.97 27.62L279.97 27.62L279.78 27.52Q280.64 26.72 281.63 25.81Q282.62 24.90 283.81 24.08Q284.99 23.26 286.40 22.78L286.40 22.78Q286.43 22.08 286.50 21.09Q286.56 20.10 286.66 19.42L286.66 19.42Q285.54 18.94 284.27 18.59Q283.01 18.24 282.02 17.63L282.02 17.63Q282.18 16.96 282.64 16.74Q283.10 16.51 283.68 16.42Q284.26 16.32 284.70 16.06L284.70 16.06Q284.86 16.06 285.02 16.03Q285.18 16.00 285.38 15.97L285.38 15.97Q285.73 15.90 286.14 15.86Q286.56 15.81 287.04 15.87L287.04 15.87Q287.20 15.42 287.28 14.69Q287.36 13.95 287.42 13.25L287.42 13.25Q287.94 13.50 287.92 14.18Q287.90 14.85 287.81 15.52L287.81 15.52Q287.78 15.68 287.78 15.78L287.78 15.78Q288.70 15.90 289.65 15.95Q290.59 16.00 291.49 16.19Q292.38 16.38 293.09 16.99L293.09 16.99Q293.12 17.31 293.06 17.52Q292.99 17.73 292.90 17.92L292.90 17.92Q292.83 18.08 292.75 18.27Q292.67 18.46 292.64 18.75L292.64 18.75Q291.68 18.88 290.94 19.04Q290.21 19.20 289.47 19.33Q288.74 19.46 287.78 19.52L287.78 19.52Q287.65 19.94 287.62 20.82Q287.58 21.70 287.52 22.43L287.52 22.43Q288.06 22.40 288.94 22.43Q289.82 22.46 290.69 22.53Q291.55 22.59 291.97 22.69L291.97 22.69Q292.13 22.72 292.16 22.83Q292.19 22.94 292.26 23.04L292.26 23.04Q292.90 22.88 292.90 23.33L292.90 23.33Q293.22 23.26 293.39 23.36Q293.57 23.46 293.73 23.55L293.73 23.55Q293.86 23.65 293.98 23.73Q294.11 23.81 294.30 23.81L294.30 23.81Q295.78 24.90 296.90 26.51Q298.02 28.13 298.59 30.05ZM286.21 25.38L286.21 25.38Q285.89 25.47 285.25 25.79Q284.61 26.11 284.32 26.59L284.32 26.59Q283.55 26.78 283.28 27.22Q283.01 27.65 282.66 28.35L282.66 28.35Q282.88 28.38 283.06 28.32Q283.23 28.26 283.23 28.26L283.23 28.26Q282.82 28.80 282.29 29.34Q281.76 29.89 281.33 30.50Q280.90 31.10 280.80 31.81L280.80 31.81Q281.06 31.84 281.14 32.00Q281.22 32.16 281.54 32.19L281.54 32.19Q282.62 31.84 283.81 31.17Q284.99 30.50 286.11 29.95L286.11 29.95Q286.11 29.31 286.11 28.45Q286.11 27.58 286.14 26.74Q286.18 25.89 286.21 25.38ZM290.02 30.30L290.02 30.30Q289.15 30.30 288.48 30.58Q287.81 30.85 287.36 31.10L287.36 31.10Q287.39 31.55 287.55 32.19Q287.71 32.83 287.97 33.22L287.97 33.22Q288.86 32.70 289.30 32.00Q289.73 31.30 290.02 30.30ZM293.95 27.07L293.95 27.07Q293.79 27.23 293.36 27.01Q292.93 26.78 292.51 26.50L292.51 26.50Q292.35 26.40 292.19 26.30Q292.03 26.21 291.90 26.14L291.90 26.14Q292.19 25.95 292.51 26.14Q292.83 26.34 293.15 26.59L293.15 26.59Q293.34 26.75 293.55 26.88Q293.76 27.01 293.95 27.07ZM340.42 28.99L340.42 28.99Q340.06 29.57 339.71 29.60Q339.36 29.63 338.98 29.57L338.98 29.57Q338.88 29.54 338.77 29.52Q338.66 29.50 338.56 29.50L338.56 29.50Q337.70 28.83 337.23 27.78Q336.77 26.72 336.45 25.54Q336.13 24.35 335.68 23.28Q335.23 22.21 334.40 21.54L334.40 21.54Q333.57 21.34 332.59 21.39Q331.62 21.44 330.69 21.63L330.69 21.63Q330.69 21.31 331.28 20.94Q331.87 20.58 332.74 20.27Q333.60 19.97 334.46 19.87Q335.33 19.78 335.90 20.00L335.90 20.00Q336.42 20.19 337.07 20.85Q337.73 21.50 338.30 22.29Q338.88 23.07 339.10 23.65L339.10 23.65Q339.65 24.93 339.92 26.35Q340.19 27.78 340.42 28.99ZM322.69 27.30L322.69 27.30Q322.69 27.30 322.53 27.79Q322.37 28.29 322.08 28.98Q321.79 29.66 321.34 30.21L321.34 30.21Q321.44 30.37 321.38 30.45Q321.31 30.53 321.25 30.59L321.25 30.59Q321.12 30.69 321.09 30.75L321.09 30.75Q321.09 30.91 321.10 31.14Q321.12 31.36 321.12 31.62L321.12 31.62Q321.18 32.35 321.14 33.09Q321.09 33.82 320.35 33.95L320.35 33.95Q319.87 34.02 319.52 33.78Q319.17 33.54 318.85 33.22L318.85 33.22Q318.56 32.99 318.27 32.75Q317.98 32.51 317.63 32.45L317.63 32.45Q317.50 32.13 317.34 31.82Q317.18 31.52 317.02 31.23L317.02 31.23Q316.51 30.21 316.11 29.17Q315.71 28.13 315.74 26.75L315.74 26.75Q315.90 26.72 316.10 26.80Q316.29 26.88 316.38 27.30L316.38 27.30Q317.02 27.42 317.44 27.98Q317.86 28.54 318.24 29.18Q318.62 29.82 319.14 30.21L319.14 30.21Q320.29 29.76 321.09 28.93Q321.89 28.10 322.69 27.30ZM373.34 28.96L373.34 28.96Q373.38 29.79 373.20 30.70Q373.02 31.62 372.77 32.58L372.77 32.58Q372.45 32.86 372.32 33.18Q372.19 33.50 372.06 33.86L372.06 33.86Q371.74 34.24 371.26 34.86Q370.78 35.49 370.43 36.10L370.43 36.10Q370.08 35.94 369.68 36.30Q369.28 36.67 369.02 37.06L369.02 37.06Q368.83 37.38 368.34 37.41Q367.84 37.44 367.28 37.46Q366.72 37.47 366.24 37.76L366.24 37.76Q366.24 37.76 366.72 37.28Q367.20 36.80 367.90 35.90Q368.61 35.01 369.25 33.76L369.25 33.76Q369.34 33.34 369.39 33.02Q369.44 32.70 369.70 32.48L369.70 32.48Q369.73 32.10 369.78 31.70Q369.82 31.30 369.89 30.88L369.89 30.88Q370.05 29.86 370.13 28.78Q370.21 27.71 369.89 26.78L369.89 26.78Q369.60 25.92 368.69 25.30Q367.78 24.67 366.98 24.06L366.98 24.06Q365.82 23.14 364.75 22.37Q363.68 21.60 362.82 20.70L362.82 20.70Q362.78 20.67 362.88 20.64L362.88 20.64Q362.98 20.61 362.91 20.54L362.91 20.54Q362.82 20.45 362.59 20.29L362.59 20.29Q362.30 20.06 362.06 19.79Q361.82 19.52 362.02 19.17L362.02 19.17Q363.14 19.42 364.06 19.94Q364.99 20.45 365.89 20.99L365.89 20.99Q366.78 21.50 367.65 22.10Q368.51 22.69 369.25 23.36L369.25 23.36Q369.92 23.71 370.66 24.27Q371.39 24.83 371.97 25.44L371.97 25.44Q372.70 26.18 373.01 27.06Q373.31 27.94 373.34 28.96ZM369.98 14.85L369.98 14.85Q370.30 15.04 370.35 15.46Q370.40 15.87 370.24 16.24Q370.08 16.61 369.70 16.74L369.70 16.74Q369.41 16.83 369.10 16.85Q368.80 16.86 368.48 16.83L368.48 16.83Q368.32 16.83 368.14 16.82Q367.97 16.80 367.81 16.83L367.81 16.83Q367.65 16.86 367.49 16.88Q367.33 16.90 367.20 16.93L367.20 16.93Q366.88 16.99 366.58 17.02Q366.27 17.06 365.98 17.02L365.98 17.02Q365.86 16.99 365.74 16.93Q365.63 16.86 365.54 16.83L365.54 16.83Q365.34 16.70 365.18 16.64Q365.02 16.58 364.80 16.64L364.80 16.64Q364.80 16.48 364.94 16.43Q365.09 16.38 365.09 16.38L365.09 16.38Q364.58 16.00 364.11 15.58Q363.65 15.17 363.20 14.75L363.20 14.75Q363.84 14.30 364.67 14.24Q365.50 14.18 366.40 14.21L366.40 14.21Q366.66 14.21 366.91 14.21Q367.17 14.21 367.42 14.21L367.42 14.21Q368.19 14.18 368.86 14.37Q369.54 14.56 369.98 14.85ZM415.81 35.49L415.81 35.49Q416.35 36.38 415.95 36.72Q415.55 37.06 414.53 37.12L414.53 37.12Q413.70 37.15 412.66 37.14Q411.62 37.12 410.61 36.96Q409.60 36.80 408.85 36.45Q408.10 36.10 407.84 35.49L407.84 35.49Q407.33 34.34 407.31 33.15Q407.30 31.97 407.39 30.69L407.39 30.69Q406.40 31.01 405.60 31.57Q404.80 32.13 404.03 32.72Q403.26 33.31 402.34 33.76L402.34 33.76Q402.11 33.63 401.87 33.71Q401.63 33.79 401.38 33.89L401.38 33.89Q401.18 33.98 400.99 34.05Q400.80 34.11 400.61 34.11L400.61 34.11Q400.54 34.05 400.46 33.97Q400.38 33.89 400.32 33.82L400.32 33.82Q400.06 33.60 399.89 33.34Q399.71 33.09 400.06 32.67L400.06 32.67Q401.34 31.84 402.64 30.67Q403.94 29.50 404.67 28.61L404.67 28.61Q405.89 27.68 407.20 26.42Q408.51 25.15 409.82 24.06L409.82 24.06Q408.38 23.14 406.88 22.30Q405.38 21.47 403.97 20.38L403.97 20.38Q403.26 19.84 402.51 19.06Q401.76 18.27 401.60 17.38L401.60 17.38Q402.72 17.86 403.95 18.69Q405.18 19.52 406.75 20.29L406.75 20.29Q408.13 20.93 409.44 21.52Q410.75 22.11 411.74 22.72L411.74 22.72Q412.13 22.94 412.59 23.31Q413.06 23.68 413.34 24.13Q413.63 24.58 413.47 25.15L413.47 25.15Q413.25 25.28 413.06 25.46Q412.86 25.63 412.64 25.82L412.64 25.82Q412.29 26.14 411.92 26.42Q411.55 26.69 411.10 26.62L411.10 26.62Q410.40 27.26 409.65 27.86Q408.90 28.45 407.94 28.86L407.94 28.86Q408.03 28.99 407.94 29.07Q407.84 29.15 407.84 29.15L407.84 29.15Q408.70 29.28 409.07 29.87Q409.44 30.46 409.57 31.23L409.57 31.23Q409.73 32.06 409.81 32.99Q409.89 33.92 410.30 34.59L410.30 34.59Q411.71 34.82 413.10 35.02Q414.50 35.23 415.81 35.49ZM412.10 14.94L412.10 14.94Q412.06 15.04 412 15.26L412 15.26Q411.87 15.68 411.66 16.02Q411.46 16.35 410.85 16.29L410.85 16.29Q410.69 16.26 410.59 16.45L410.59 16.45Q410.53 16.58 410.46 16.58L410.46 16.58Q408.51 16.61 406.93 16.16Q405.34 15.71 404.51 14.30L404.51 14.30Q405.73 13.92 407.15 13.78Q408.58 13.63 409.87 13.79Q411.17 13.95 412 14.50L412 14.50Q411.90 14.62 411.94 14.70Q411.97 14.78 412.03 14.85L412.03 14.85Q412.06 14.91 412.10 14.94ZM456.42 32.16L456.42 32.16Q456.67 32.86 456.54 33.54Q456.42 34.21 456.06 34.82L456.06 34.82Q455.62 35.58 454.83 36.22Q454.05 36.86 453.22 37.38L453.22 37.38Q452.67 37.28 452.34 37.18Q452 37.09 451.65 36.74L451.65 36.74Q451.81 36.58 451.84 36.46Q451.87 36.35 451.87 36.19L451.87 36.19Q451.87 36.13 451.89 36.03Q451.90 35.94 451.94 35.81L451.94 35.81Q452.51 35.68 452.83 35.22Q453.15 34.75 453.57 34.34L453.57 34.34Q453.82 34.08 454.29 33.63Q454.75 33.18 454.75 32.70L454.75 32.70Q454.75 32.03 454.02 31.18Q453.28 30.34 452.16 29.60Q451.04 28.86 449.82 28.46Q448.61 28.06 447.65 28.22L447.65 28.22Q447.49 29.34 447.34 30.67Q447.20 32.00 446.74 33.15Q446.27 34.30 445.09 34.98L445.09 34.98Q443.84 35.10 442.86 34.98Q441.89 34.85 440.99 34.66L440.99 34.66Q440.22 34.46 439.47 34.35Q438.72 34.24 437.86 34.34L437.86 34.34Q437.86 34.30 437.82 34.27L437.82 34.27Q437.66 33.98 437.58 33.74Q437.50 33.50 437.60 33.06L437.60 33.06Q438.05 31.33 439.36 29.89Q440.67 28.45 442.35 27.36Q444.03 26.27 445.63 25.57L445.63 25.57Q445.70 24.42 445.73 23.23Q445.76 22.05 445.63 21.09L445.63 21.09Q444.83 20.54 443.82 20.22Q442.82 19.90 441.90 19.47Q440.99 19.04 440.42 18.27L440.42 18.27Q441.28 17.89 442.16 17.82Q443.04 17.76 444 17.76L444 17.76Q444.35 17.76 444.70 17.76Q445.06 17.76 445.44 17.73L445.44 17.73Q445.47 17.34 445.47 16.83Q445.47 16.32 445.44 15.71L445.44 15.71Q445.41 15.07 445.41 14.42Q445.41 13.76 445.44 13.15L445.44 13.15Q446.37 13.66 446.78 14.99Q447.20 16.32 447.10 17.63L447.10 17.63Q447.23 17.66 447.41 17.66Q447.58 17.66 447.81 17.66L447.81 17.66Q448.42 17.66 449.15 17.76Q449.89 17.86 450.30 18.27L450.30 18.27Q450.37 18.46 450.42 18.72Q450.46 18.98 450.75 19.36L450.75 19.36Q450.72 19.39 450.69 19.42L450.69 19.42Q450.62 19.46 450.58 19.52Q450.53 19.58 450.66 19.71L450.66 19.71Q450.34 20.19 449.74 20.30Q449.15 20.42 448.51 20.45L448.51 20.45Q448.26 20.48 448.02 20.50Q447.78 20.51 447.55 20.54L447.55 20.54Q447.52 21.18 447.52 22.03Q447.52 22.88 447.57 23.70Q447.62 24.51 447.65 25.06L447.65 25.06L447.65 25.09Q448.22 25.18 449.12 25.42Q450.02 25.66 450.96 26.06Q451.90 26.46 452.58 27.04L452.58 27.04Q452.70 27.14 452.74 27.33Q452.77 27.52 452.93 27.68L452.93 27.68Q453.28 28.03 453.79 28.34Q454.30 28.64 454.69 29.15L454.69 29.15Q454.82 29.28 454.86 29.49Q454.91 29.70 455.04 29.86L455.04 29.86Q455.36 30.30 455.78 30.88Q456.19 31.46 456.42 32.16ZM459.81 20.45L459.81 20.45Q459.78 20.67 459.78 20.91Q459.78 21.15 459.78 21.41L459.78 21.41Q459.78 22.18 459.70 22.82Q459.62 23.46 459.17 23.65L459.17 23.65Q459.04 23.74 458.90 23.70Q458.75 23.65 458.59 23.58L458.59 23.58Q458.40 23.49 458.19 23.42Q457.98 23.36 457.79 23.49L457.79 23.49Q457.28 22.75 457.06 21.65Q456.83 20.54 456.82 19.36Q456.80 18.18 456.86 17.25L456.86 17.25Q456.90 17.09 457.01 17.10Q457.12 17.12 457.25 16.99L457.25 16.99Q457.89 17.82 458.56 18.67Q459.23 19.52 459.81 20.45ZM445.44 28.70L445.18 28.70Q444.90 28.93 444.27 29.33Q443.65 29.73 442.93 30.29Q442.21 30.85 441.58 31.54Q440.96 32.22 440.70 32.99L440.70 32.99Q441.06 32.99 441.46 33.06Q441.86 33.12 442.24 33.15L442.24 33.15Q443.26 33.18 443.94 32.54Q444.61 31.90 444.98 30.86Q445.34 29.82 445.44 28.70L445.44 28.70Z"/></svg>