<svg xmlns="http://www.w3.org/2000/svg" xmlns:xlink="http://www.w3.org/1999/xlink" width="464" height="46.336"><path fill="black" stroke="none" d="M30.94 35.81L30.94 35.81Q31.01 36.13 30.98 36.34Q30.94 36.54 30.72 36.70L30.72 36.70Q30.02 37.02 29.33 37.46Q28.64 37.89 27.74 37.95L27.74 37.95Q26.11 38.08 24.54 37.39Q22.98 36.70 22.05 35.81L22.05 35.81Q22.08 35.42 21.92 35.31Q21.76 35.20 21.54 35.14L21.54 35.14Q21.50 35.14 21.50 35.14L21.50 35.14Q21.38 34.69 21.18 34.27Q20.99 33.86 20.51 33.76L20.51 33.76Q19.68 32.00 18.53 30.54Q17.38 29.09 16.21 27.68Q15.04 26.27 14.05 24.67L14.05 24.67Q13.54 25.09 13.38 25.92L13.38 25.92Q12.80 26.46 12.37 27.17Q11.94 27.87 11.50 28.58Q11.07 29.28 10.43 29.79L10.43 29.79Q10.34 30.40 9.92 30.86Q9.50 31.33 9.09 31.78Q8.67 32.22 8.58 32.86L8.58 32.86Q7.84 33.79 7.10 34.75Q6.37 35.71 5.52 36.53Q4.67 37.34 3.52 37.86L3.52 37.86Q3.52 37.60 3.42 37.63Q3.33 37.66 3.30 37.50L3.30 37.50Q2.75 37.66 2.30 37.57Q1.86 37.47 1.44 37.31L1.44 37.31Q1.22 37.22 1.09 37.18L1.09 37.18Q1.22 37.09 1.36 36.94Q1.50 36.80 1.63 36.67L1.63 36.67Q1.98 36.32 2.35 36.02Q2.72 35.71 3.07 35.81L3.07 35.81Q3.74 34.66 4.74 33.57Q5.73 32.48 6.62 31.33Q7.52 30.18 7.90 28.90L7.90 28.90Q8.67 28.48 9.02 27.66Q9.38 26.85 9.76 26.05L9.76 26.05Q10.88 24.70 11.65 23.20Q12.42 21.70 13.18 20.00L13.18 20.00Q13.34 19.97 13.42 19.89Q13.50 19.81 13.60 19.81L13.60 19.81Q13.63 19.58 13.38 19.58L13.38 19.58Q13.54 19.14 13.71 18.74Q13.89 18.34 14.08 17.98L14.08 17.98Q14.37 17.41 14.58 16.88Q14.78 16.35 14.69 15.71L14.69 15.71Q14.62 15.36 14.46 15.02Q14.30 14.69 14.11 14.37L14.11 14.37Q13.86 13.92 13.65 13.46Q13.44 12.99 13.50 12.42L13.50 12.42Q14.62 12.45 15.39 12.59Q16.16 12.74 16.80 13.14Q17.44 13.54 18.11 14.34L18.11 14.34Q18.14 15.65 17.68 17.07Q17.22 18.50 16.51 19.87Q15.81 21.25 15.17 22.43L15.17 22.43Q15.10 22.56 15.04 22.67Q14.98 22.78 14.91 22.88L14.91 22.88Q17.15 25.44 19.78 27.68Q22.40 29.92 25.12 31.71L25.12 31.71Q25.18 31.71 25.25 31.62L25.25 31.62Q25.31 31.46 25.44 31.49L25.44 31.49Q26.43 32.13 27.55 32.69Q28.67 33.25 29.62 33.97Q30.56 34.69 30.94 35.81ZM62.62 21.02L62.62 21.02Q62.34 21.41 61.87 21.63Q61.41 21.86 60.91 22.05Q60.42 22.24 60.03 22.56L60.03 22.56Q60.13 25.22 60.14 27.79Q60.16 30.37 59.90 33.02L59.90 33.02Q59.55 33.31 58.99 33.23Q58.43 33.15 57.86 32.91Q57.28 32.67 56.86 32.45L56.86 32.45Q57.02 33.15 57.63 33.34Q58.24 33.54 58.75 33.86L58.75 33.86Q59.49 34.30 60.06 35.15Q60.64 36 60.96 36.99Q61.28 37.98 61.22 38.91L61.22 38.91Q60.99 39.07 60.83 39.07Q60.67 39.07 60.48 39.01L60.48 39.01Q60.35 38.98 60.19 38.94Q60.03 38.91 59.81 39.01L59.81 39.01Q59.01 38.75 58.24 37.78Q57.47 36.80 56.86 35.84L56.86 35.84Q56.74 34.85 56.32 34.16Q55.90 33.47 55.33 32.67L55.33 32.67Q55.14 32.74 54.86 32.74Q54.59 32.74 54.27 32.74L54.27 32.74Q53.86 32.74 53.39 32.77Q52.93 32.80 52.51 32.90L52.51 32.90Q52.77 33.12 52.99 33.50L52.99 33.50Q52.70 34.30 52.14 35.22Q51.58 36.13 50.83 36.90Q50.08 37.66 49.20 38.08Q48.32 38.50 47.46 38.30L47.46 38.30Q47.26 38.11 47.28 37.97Q47.30 37.82 47.36 37.63L47.36 37.63Q47.39 37.47 47.42 37.30Q47.46 37.12 47.46 36.90L47.46 36.90Q48.10 36.74 48.66 36.14Q49.22 35.55 49.66 34.85Q50.11 34.14 50.40 33.73L50.40 33.73Q50.34 33.34 50.11 33.34Q49.89 33.34 49.63 33.44L49.63 33.44Q49.50 33.47 49.41 33.49Q49.31 33.50 49.22 33.50L49.22 33.50Q48.61 33.34 48.08 32.94Q47.55 32.54 47.20 32.10L47.20 32.10Q46.82 32.19 46.38 32.19Q45.95 32.19 45.47 32.19L45.47 32.19Q44.96 32.16 44.40 32.18Q43.84 32.19 43.23 32.32L43.23 32.32Q43.49 32.67 43.84 32.99Q44.19 33.31 44.54 33.63L44.54 33.63Q45.28 34.24 45.87 34.93Q46.46 35.62 46.40 36.67L46.40 36.67Q46.72 37.02 46.75 37.38Q46.78 37.73 46.78 38.24L46.78 38.24Q46.75 38.34 46.75 38.45Q46.75 38.56 46.75 38.66L46.75 38.66Q46.18 38.88 45.79 38.43L45.79 38.43Q45.70 38.46 45.70 38.72L45.70 38.72Q45.70 38.85 45.70 38.91L45.70 38.91Q44.90 38.46 44.34 37.60Q43.78 36.74 43.30 35.74L43.30 35.74Q43.14 35.39 42.88 34.88Q42.62 34.37 42.45 33.98Q42.27 33.60 42.27 33.60L42.27 33.60Q42.14 34.05 41.66 34.67Q41.18 35.30 40.61 35.95Q40.03 36.61 39.58 37.15L39.58 37.15Q39.55 37.18 39.58 37.31L39.58 37.31Q39.62 37.47 39.58 37.50L39.58 37.50Q39.39 37.63 39.15 37.62Q38.91 37.60 38.75 37.73L38.75 37.73Q38.46 37.95 38.22 38.37Q37.98 38.78 37.34 38.78L37.34 38.78Q37.15 38.78 36.96 38.72Q36.77 38.66 36.58 38.56L36.58 38.56Q36.19 38.40 35.76 38.32Q35.33 38.24 34.75 38.56L34.75 38.56Q34.75 38.56 35.07 38.29Q35.39 38.02 35.82 37.76Q36.26 37.50 36.51 37.60L36.51 37.60Q37.66 36.38 38.61 35.25Q39.55 34.11 40.16 32.54L40.16 32.54Q39.36 32.48 38.69 32.67Q38.02 32.86 37.38 33.12L37.38 33.12Q37.06 33.25 36.72 33.38Q36.38 33.50 36.03 33.60L36.03 33.60Q35.26 33.22 34.86 32.50Q34.46 31.78 33.82 31.26L33.82 31.26Q33.73 31.10 33.76 31.04Q33.79 30.98 33.82 30.88L33.82 30.88Q33.89 30.82 33.92 30.72Q33.95 30.62 33.92 30.43L33.92 30.43Q34.18 30.27 34.38 30.35Q34.59 30.43 34.82 30.56L34.82 30.56Q34.94 30.62 35.07 30.69Q35.20 30.75 35.33 30.78L35.33 30.78Q35.94 30.88 36.59 30.83Q37.25 30.78 37.95 30.72L37.95 30.72Q38.59 30.62 39.23 30.58Q39.87 30.53 40.51 30.56L40.51 30.56Q40.29 30.02 39.95 29.55Q39.62 29.09 39.23 28.67L39.23 28.67Q39.46 28.45 39.73 28.46Q40 28.48 40.22 28.54L40.22 28.54Q40.42 28.61 40.59 28.62Q40.77 28.64 40.86 28.54L40.86 28.54Q40.58 28.00 40.58 27.33Q40.58 26.66 40.64 25.60L40.64 25.60Q40.64 25.54 40.64 25.50L40.64 25.50Q39.74 25.79 39.12 26.24Q38.50 26.69 37.94 27.18Q37.38 27.68 36.72 28.11Q36.06 28.54 35.10 28.80L35.10 28.80Q34.85 28.54 34.48 28.53Q34.11 28.51 33.82 28.43Q33.54 28.35 33.44 27.97L33.44 27.97Q34.37 27.39 35.17 26.64Q35.97 25.89 36.99 25.38L36.99 25.38Q37.47 24.51 38.29 23.98Q39.10 23.46 39.81 22.78L39.81 22.78Q39.39 22.46 38.75 22.69L38.75 22.69Q38.34 22.82 37.97 23.07Q37.60 23.33 37.34 23.49L37.34 23.49Q36.26 23.07 35.58 22.24Q34.91 21.41 34.05 20.80L34.05 20.80Q34.34 20.51 34.62 20.80L34.62 20.80Q34.72 20.64 34.77 20.40Q34.82 20.16 34.88 19.97L34.88 19.97Q35.36 20.38 36.10 20.53Q36.83 20.67 37.63 20.67L37.63 20.67Q38.53 20.67 39.30 20.58Q40.06 20.48 40.38 20.45L40.38 20.45Q40.51 18.66 40.35 16.78Q40.19 14.91 39.46 13.38L39.46 13.38Q39.68 13.22 39.79 12.96Q39.90 12.70 39.94 12.58L39.94 12.58Q40.22 12.38 40.45 12.62Q40.67 12.86 40.80 13.09L40.80 13.09Q40.86 13.12 40.86 13.15L40.86 13.15Q41.54 13.63 42.21 14.10Q42.88 14.56 43.46 15.14L43.46 15.14Q43.01 16.26 42.93 17.49Q42.85 18.72 42.85 19.58L42.85 19.58Q42.85 19.74 42.85 19.90Q42.85 20.06 42.85 20.19L42.85 20.19Q42.98 20.19 43.36 20.22Q43.74 20.26 44.11 20.18Q44.48 20.10 44.51 19.84L44.51 19.84Q45.12 19.81 45.70 20.08Q46.27 20.35 46.82 20.64L46.82 20.64Q47.07 20.80 47.31 20.93Q47.55 21.06 47.81 21.15L47.81 21.15Q47.65 21.38 47.68 21.73L47.68 21.73Q46.56 21.98 45.38 22.10Q44.19 22.21 42.75 22.34L42.75 22.34Q43.30 22.98 44.35 23.42Q45.41 23.87 46.40 24.32L46.40 24.32Q46.53 24.70 46.78 25.04Q47.04 25.38 47.33 25.70L47.33 25.70Q47.62 26.02 47.82 26.32Q48.03 26.62 48.03 26.91L48.03 26.91Q47.52 27.55 46.96 27.60Q46.40 27.65 45.86 27.36L45.86 27.36Q45.02 26.91 44.26 25.98Q43.49 25.06 42.85 24.54L42.85 24.54Q42.62 25.15 42.62 26.32Q42.62 27.49 42.50 28.45L42.50 28.45Q42.43 28.67 42.18 28.72Q41.92 28.77 41.70 28.90L41.70 28.90Q42.14 29.18 42.51 29.50Q42.88 29.82 42.98 30.43L42.98 30.43Q43.10 30.43 43.25 30.37Q43.39 30.30 43.55 30.24L43.55 30.24Q43.78 30.18 44.02 30.10Q44.26 30.02 44.48 30.02L44.48 30.02Q45.34 30.05 46.18 30.46Q47.01 30.88 47.58 31.26L47.58 31.26Q47.90 31.14 48.19 31.14Q48.48 31.14 48.77 31.17L48.77 31.17Q49.02 31.20 49.26 31.22Q49.50 31.23 49.70 31.14L49.70 31.14Q49.18 30.66 48.78 30.08Q48.38 29.50 48.03 28.90L48.03 28.90Q48.16 28.80 48.29 28.72Q48.42 28.64 48.64 28.67L48.64 28.67Q48.77 27.33 48.82 26.32Q48.86 25.31 48.88 24.30Q48.90 23.30 48.86 21.98L48.86 21.98Q48.67 21.54 48.27 21.30Q47.87 21.06 47.81 20.45L47.81 20.45Q47.81 20.38 47.90 20.38L47.90 20.38Q48.06 20.35 48.03 20.19L48.03 20.19Q48.10 20.19 48.22 20.19L48.22 20.19Q48.70 20.19 49.12 20.13Q49.54 20.06 49.57 19.62L49.57 19.62Q50.43 19.49 50.90 18.98Q51.36 18.46 51.71 17.82Q52.06 17.18 52.51 16.67L52.51 16.67Q52.48 16.61 52.13 16.58Q51.78 16.54 51.55 16.58L51.55 16.58Q51.39 16.61 51.42 16.78Q51.46 16.96 51.33 17.02L51.33 17.02Q51.14 17.02 50.93 16.96Q50.72 16.90 50.53 16.83L50.53 16.83Q50.27 16.77 50.06 16.70Q49.86 16.64 49.70 16.67L49.70 16.67Q49.57 16.42 49.38 16.18Q49.18 15.94 48.96 15.68L48.96 15.68Q48.58 15.20 48.26 14.70Q47.94 14.21 47.94 13.63L47.94 13.63Q48.06 13.60 48.22 13.70L48.22 13.70Q48.32 13.76 48.42 13.78Q48.51 13.79 48.64 13.63L48.64 13.63Q49.57 14.14 50.75 14.32Q51.94 14.50 53.18 14.50Q54.43 14.50 55.55 14.43L55.55 14.43Q56.13 14.37 56.67 14.13Q57.22 13.89 57.57 13.63L57.57 13.63Q58.78 13.86 59.66 14.45Q60.54 15.04 61.44 15.62L61.44 15.62Q60.61 16.16 59.62 16.24Q58.62 16.32 57.60 16.32L57.60 16.32Q56.99 16.29 56.38 16.30Q55.78 16.32 55.20 16.45L55.20 16.45Q55.10 17.12 54.74 17.54Q54.37 17.95 53.97 18.32Q53.57 18.69 53.34 19.26L53.34 19.26Q53.38 19.26 53.44 19.30L53.44 19.30Q53.70 19.33 54.10 19.36Q54.50 19.39 54.98 19.14L54.98 19.14Q55.81 19.39 56.26 19.23Q56.70 19.07 56.99 18.69L56.99 18.69Q58.02 19.07 59.10 19.26Q60.19 19.46 61.14 19.79Q62.08 20.13 62.62 21.02ZM57.09 31.04L57.09 31.04Q57.22 29.54 57.22 27.68Q57.22 25.82 57.15 24.00Q57.09 22.18 56.99 20.80L56.99 20.80Q55.71 20.58 54.59 20.75Q53.47 20.93 52.26 21.22L52.26 21.22Q52.10 21.25 51.92 21.30Q51.74 21.34 51.55 21.38L51.55 21.38Q51.33 21.73 51.31 22.50Q51.30 23.26 51.46 23.74L51.46 23.74Q52.10 23.58 52.86 23.46Q53.63 23.33 54.34 23.36L54.34 23.36Q55.14 23.39 55.76 23.74Q56.38 24.10 56.61 25.02L56.61 25.02Q55.14 25.22 53.62 25.30Q52.10 25.38 51.20 25.73L51.20 25.73L51.20 27.39Q51.49 27.46 51.76 27.41Q52.03 27.36 52.29 27.30L52.29 27.30Q52.64 27.20 52.99 27.18Q53.34 27.17 53.70 27.39L53.70 27.39Q53.76 27.30 53.73 27.22Q53.70 27.14 53.63 27.07L53.63 27.07Q53.57 26.91 53.70 26.91L53.70 26.91L53.70 26.91Q54.37 27.04 55.06 27.20Q55.74 27.36 56.19 27.71Q56.64 28.06 56.61 28.67L56.61 28.67Q56.10 28.67 55.54 28.74Q54.98 28.80 54.40 28.86L54.40 28.86Q53.57 28.99 52.75 29.07Q51.94 29.15 51.20 29.02L51.20 29.02Q51.20 29.15 51.18 29.25Q51.17 29.34 51.14 29.47L51.14 29.47Q51.10 29.86 51.09 30.22Q51.07 30.59 51.20 31.04L51.20 31.04Q52.38 31.23 53.52 31.17Q54.66 31.10 55.46 30.69L55.46 30.69Q55.65 30.72 55.79 30.78Q55.94 30.85 56.06 30.91L56.06 30.91Q56.29 31.04 56.51 31.10Q56.74 31.17 57.09 31.04ZM48.38 16.32L48.38 16.32Q48.42 16.45 48.32 16.61L48.32 16.61Q48.29 16.67 48.27 16.74Q48.26 16.80 48.29 16.93L48.29 16.93Q47.58 17.18 47.17 17.76Q46.75 18.34 46.30 18.86Q45.86 19.39 45.09 19.62L45.09 19.62Q45.02 19.58 44.90 19.52L44.90 19.52Q44.61 19.36 44.30 19.28Q44 19.20 43.46 19.39L43.46 19.39Q43.68 18.46 44.34 17.44Q44.99 16.42 45.44 15.49L45.44 15.49Q45.41 15.14 45.23 14.94Q45.06 14.75 44.99 14.43L44.99 14.43Q45.57 14.05 46.18 14.32Q46.78 14.59 47.31 15.14Q47.84 15.68 48.22 16.16L48.22 16.16Q48.35 16.26 48.38 16.32ZM39.10 16.93L39.10 16.93Q39.46 17.31 39.55 18.03Q39.65 18.75 39.44 19.33Q39.23 19.90 38.62 19.97L38.62 19.97Q38.30 20.00 37.71 19.54Q37.12 19.07 36.56 18.43Q36 17.79 35.81 17.38L35.81 17.38Q35.55 16.83 35.57 16.19Q35.58 15.55 35.23 15.14L35.23 15.14Q35.23 15.14 35.70 15.26Q36.16 15.39 36.83 15.65Q37.50 15.90 38.14 16.22Q38.78 16.54 39.10 16.93ZM95.90 36.74L95.90 36.74Q95.62 36.83 95.31 36.86Q95.01 36.90 94.72 36.90L94.72 36.90Q93.73 36.90 92.72 36.64Q91.71 36.38 90.69 36.29L90.69 36.29Q89.92 36.22 89.14 36.21Q88.35 36.19 87.58 36.19L87.58 36.19Q85.41 36.19 82.99 36.50Q80.58 36.80 78.53 37.63L78.53 37.63Q77.34 37.18 76.56 36.54Q75.78 35.90 75.14 34.82L75.14 34.82Q77.02 34.53 78.91 34.35Q80.80 34.18 82.69 34.18L82.69 34.18Q83.20 34.18 83.71 34.18Q84.22 34.18 84.74 34.24L84.74 34.24Q84.83 32.35 84.83 30.56L84.83 30.56Q84.83 29.41 84.80 28.18Q84.77 26.94 84.51 25.79L84.51 25.79L84.13 25.79Q83.23 25.79 82.35 26.03Q81.47 26.27 80.54 26.27L80.54 26.27Q79.94 26.27 79.74 26.14Q79.55 26.02 79.46 25.81Q79.36 25.60 79.01 25.38L79.01 25.38Q78.82 25.54 78.56 25.44L78.56 25.44Q78.53 25.31 78.51 25.18Q78.50 25.06 78.50 24.93L78.50 24.93Q78.43 24.83 78.32 24.78Q78.21 24.74 78.08 24.67L78.08 24.67Q77.89 24.61 77.73 24.50Q77.57 24.38 77.57 24.10L77.57 24.10Q78.50 23.84 79.44 23.82Q80.38 23.81 81.34 23.84L81.34 23.84Q81.60 23.84 81.87 23.84Q82.14 23.84 82.40 23.84L82.40 23.84Q82.94 23.84 83.50 23.81Q84.06 23.78 84.61 23.68L84.61 23.68Q84.58 21.70 84.48 19.34Q84.38 16.99 83.81 14.88L83.81 14.88Q83.42 13.38 82.75 12.26L82.75 12.26Q84.26 12.38 85.47 13.18Q86.69 13.98 87.84 14.91L87.84 14.91Q87.36 16.96 87.30 19.10Q87.23 21.25 87.14 23.33L87.14 23.33Q87.90 23.20 88.67 23.12Q89.44 23.04 90.24 23.04L90.24 23.04Q91.36 23.04 92.37 23.38Q93.38 23.71 94.08 24.67L94.08 24.67Q93.66 25.06 92.78 25.22Q91.90 25.38 90.85 25.42Q89.79 25.47 88.82 25.54Q87.84 25.60 87.20 25.79L87.20 25.79Q87.04 27.87 86.96 29.97Q86.88 32.06 86.62 34.14L86.62 34.14L86.98 34.14Q87.52 34.14 88.05 34.21Q88.58 34.27 89.09 34.27L89.09 34.27Q89.60 34.27 90.06 34.13Q90.53 33.98 90.88 33.60L90.88 33.60Q92 33.82 93.02 34.22Q94.05 34.62 95.10 34.94L95.10 34.94Q95.17 35.10 95.28 35.23Q95.39 35.36 95.49 35.49L95.49 35.49Q95.71 35.74 95.89 36.03Q96.06 36.32 95.90 36.74ZM80.29 19.78L80.29 19.78Q79.26 19.52 78.48 19.94Q77.70 20.35 77.06 21.09L77.06 21.09Q76.42 21.86 75.87 22.75Q75.33 23.65 74.75 24.29L74.75 24.29Q74.78 24.45 74.86 24.59Q74.94 24.74 74.94 24.90L74.94 24.90Q74.94 24.93 74.91 24.99Q74.88 25.06 74.85 25.12L74.85 25.12Q75.87 25.82 76.88 26.78Q77.89 27.74 78.59 28.80L78.59 28.80Q78.46 29.28 78.50 29.79L78.50 29.79Q78.08 30.08 77.66 30.08L77.66 30.08Q77.09 30.08 76.61 29.58Q76.13 29.09 75.70 28.50Q75.26 27.90 74.82 27.58L74.82 27.58Q74.75 28.58 74.74 29.60Q74.72 30.62 74.72 31.65L74.72 31.65Q74.72 33.12 74.80 34.56Q74.88 36 74.88 37.47L74.88 37.47Q74.88 38.08 74.80 38.70Q74.72 39.33 74.24 39.78L74.24 39.78Q73.86 39.97 73.47 39.63Q73.09 39.30 72.78 38.74Q72.48 38.18 72.30 37.63Q72.13 37.09 72.13 36.80L72.13 36.80Q72.13 36.16 72.30 35.54Q72.48 34.91 72.54 34.30L72.54 34.30Q72.67 33.28 72.70 32.22Q72.74 31.17 72.74 30.14L72.74 30.14Q72.74 28.29 72.64 26.46L72.64 26.46Q72.61 26.50 72.53 26.59Q72.45 26.69 72.32 26.69L72.32 26.69Q72.29 26.91 72.13 27.14Q71.97 27.36 71.78 27.46L71.78 27.46Q71.71 27.46 71.68 27.33L71.68 27.33Q71.68 27.17 71.58 27.20L71.58 27.20Q71.36 27.58 71.02 28.10Q70.69 28.61 70.30 28.83L70.30 28.83Q70.30 29.06 70.56 29.12L70.56 29.12Q70.40 29.25 70.29 29.23Q70.18 29.22 70.08 29.15L70.08 29.15Q69.92 29.12 69.82 29.09L69.82 29.09Q69.73 29.25 69.86 29.28Q69.98 29.31 70.11 29.25L70.11 29.25Q70.11 29.54 69.89 29.63Q69.66 29.73 69.42 29.82Q69.18 29.92 69.12 30.27L69.12 30.27L68.93 30.11Q68.48 30.66 68.18 30.99Q67.87 31.33 67.26 31.55L67.26 31.55L67.46 31.62Q67.04 31.94 66.58 32.14Q66.11 32.35 65.57 32.42L65.57 32.42L65.79 32.13Q65.66 32.10 65.31 32.19L65.31 32.19Q65.06 32.26 64.77 32.32Q64.48 32.38 64.19 32.26L64.19 32.26Q64.48 31.90 64.06 31.97L64.06 31.97Q64.06 31.68 64.16 31.58Q64.26 31.49 64.38 31.42L64.38 31.42Q64.48 31.36 64.56 31.31Q64.64 31.26 64.67 31.10L64.67 31.10Q65.12 31.17 65.38 31.12Q65.63 31.07 65.95 30.94L65.95 30.94Q66.05 30.91 66.16 30.88Q66.27 30.85 66.40 30.82L66.40 30.82Q66.40 30.75 66.26 30.75Q66.11 30.75 65.98 30.78L65.98 30.78Q65.70 30.82 65.70 30.78L65.70 30.78Q65.70 30.62 65.98 30.53Q66.27 30.43 66.50 30.43L66.50 30.43Q66.59 29.98 66.85 29.76Q67.10 29.54 67.36 29.34L67.36 29.34Q67.58 29.18 67.78 28.99Q67.97 28.80 68.03 28.42L68.03 28.42L68.51 28.42Q68.51 28.42 68.51 28.38L68.51 28.38Q68.51 28.19 68.38 28.19L68.38 28.19Q68.48 27.94 68.59 27.94Q68.70 27.94 68.86 28.00L68.86 28.00Q69.02 28.06 69.09 28.06L69.09 28.06Q69.15 28.03 69.22 27.94Q69.28 27.84 69.22 27.78L69.22 27.78Q69.15 27.81 69.09 27.89Q69.02 27.97 68.93 27.97L68.93 27.97Q68.86 27.90 68.85 27.81Q68.83 27.71 68.83 27.65L68.83 27.65Q68.96 27.68 69.15 27.62L69.15 27.62Q69.31 27.55 69.38 27.68L69.38 27.68Q69.54 27.30 69.15 27.30L69.15 27.30Q69.31 27.17 69.41 27.17Q69.50 27.17 69.63 27.23L69.63 27.23Q69.60 26.88 69.81 26.72Q70.02 26.56 70.24 26.56L70.24 26.56Q70.27 26.05 70.66 25.60Q71.04 25.15 71.46 24.67L71.46 24.67Q71.81 24.22 72.05 23.74Q72.29 23.26 72.13 22.66L72.13 22.66Q72.51 22.69 72.67 22.51Q72.83 22.34 72.96 22.14L72.96 22.14Q73.02 21.98 73.10 21.87Q73.18 21.76 73.34 21.73L73.34 21.73Q73.41 21.28 73.84 20.56Q74.27 19.84 74.66 19.58L74.66 19.58Q74.18 19.46 73.60 19.46L73.60 19.46Q73.44 19.46 73.28 19.46Q73.12 19.46 72.96 19.46L72.96 19.46Q72.16 19.42 71.38 19.49Q70.59 19.55 70.08 20.06L70.08 20.06Q70.05 20.10 70.08 20.19L70.08 20.19Q70.11 20.32 70.02 20.38L70.02 20.38Q69.63 20.42 69.26 20.54Q68.90 20.67 68.54 20.83L68.54 20.83Q68.16 20.99 67.78 21.12Q67.39 21.25 67.01 21.25L67.01 21.25Q66.78 20.80 66.56 20.38Q66.34 19.97 65.89 19.74L65.89 19.74Q65.98 19.42 65.84 19.22Q65.70 19.01 65.50 18.82L65.50 18.82Q65.31 18.62 65.15 18.42Q64.99 18.21 64.96 17.89L64.96 17.89Q65.15 17.89 65.23 17.84Q65.31 17.79 65.28 17.57L65.28 17.57Q66.21 17.79 67.14 17.90Q68.06 18.02 68.99 18.02L68.99 18.02Q70.75 18.02 72.50 17.76Q74.24 17.50 75.97 17.28L75.97 17.28L76.06 16.61Q77.06 16.77 78 17.01Q78.94 17.25 79.68 17.95L79.68 17.95Q79.42 18.30 79.57 18.59Q79.71 18.88 79.90 19.17L79.90 19.17Q80.03 19.30 80.13 19.46Q80.22 19.62 80.29 19.78ZM77.28 14.05L77.25 14.43Q76.80 14.72 76.62 15.25Q76.45 15.78 76.18 16.24Q75.90 16.70 75.17 16.83L75.17 16.83Q75.14 16.61 75.15 16.35Q75.17 16.10 75.20 15.84L75.20 15.84Q75.23 15.39 75.23 14.94Q75.23 14.50 75.07 14.11L75.07 14.11Q74.30 13.73 73.55 13.33Q72.80 12.93 72.10 12.45L72.10 12.45Q72.74 12.10 73.42 11.90Q74.11 11.71 74.82 11.71L74.82 11.71Q75.94 11.71 76.66 12.29Q77.38 12.86 77.28 14.05L77.28 14.05ZM74.02 21.06L73.44 21.76Q73.50 21.86 73.42 21.97Q73.34 22.08 73.25 22.21L73.25 22.21Q73.15 22.34 73.06 22.46Q72.96 22.59 72.93 22.72L72.93 22.72Q73.28 22.62 73.52 22.29Q73.76 21.95 73.89 21.58Q74.02 21.22 74.02 21.06L74.02 21.06ZM68.70 28.74L68.99 28.32Q68.93 28.26 68.70 28.48L68.70 28.48Q68.58 28.61 68.51 28.61L68.51 28.61Q68.29 28.77 68.11 29.01Q67.94 29.25 67.65 29.60L67.65 29.60Q67.71 29.63 67.89 29.47Q68.06 29.31 68.26 29.12L68.26 29.12Q68.42 28.96 68.53 28.85Q68.64 28.74 68.70 28.74L68.70 28.74ZM127.20 28.64L127.20 28.64Q126.85 28.58 126.70 28.74Q126.56 28.90 126.46 29.09L126.46 29.09Q125.18 29.47 123.94 29.14Q122.69 28.80 121.65 28.05Q120.61 27.30 119.90 26.43L119.90 26.43Q119.90 26.34 119.94 26.24L119.94 26.24Q120.03 26.11 120 25.98L120 25.98Q119.39 25.70 118.93 24.78Q118.46 23.87 117.92 23.07L117.92 23.07Q117.28 22.14 116.58 21.17Q115.87 20.19 115.17 19.17L115.17 19.17Q114.43 18.08 113.62 16.96Q112.80 15.84 112.10 14.59L112.10 14.59Q110.94 16.06 109.89 17.81Q108.83 19.55 107.81 21.18L107.81 21.18Q107.58 21.57 107.25 21.87Q106.91 22.18 106.78 22.66L106.78 22.66Q107.87 22.59 109.04 22.53Q110.21 22.46 111.31 22.24Q112.42 22.02 113.25 21.44L113.25 21.44Q113.86 21.70 114.48 21.92Q115.10 22.14 115.65 22.48Q116.19 22.82 116.45 23.46L116.45 23.46Q115.94 23.55 115.39 23.65Q114.85 23.74 114.30 23.87L114.30 23.87Q112.83 24.16 111.38 24.37Q109.92 24.58 108.66 24.37Q107.39 24.16 106.50 23.23L106.50 23.23Q105.60 24.32 104.70 25.55Q103.81 26.78 102.75 27.94Q101.70 29.09 100.38 29.95Q99.07 30.82 97.31 31.20L97.31 31.20Q97.31 31.20 97.34 31.07Q97.38 30.94 97.41 30.72L97.41 30.72Q97.31 30.82 96.99 30.93Q96.67 31.04 96.61 31.17L96.61 31.17Q96.61 31.17 96.61 31.17L96.61 31.17Q96.61 31.17 96.61 31.17L96.61 31.17Q96.93 30.66 97.42 30.21Q97.92 29.76 98.40 29.28L98.40 29.28Q98.91 28.77 99.42 28.24Q99.94 27.71 100.45 27.20L100.45 27.20Q101.95 24.93 103.55 22.75Q105.15 20.58 106.64 18.30Q108.13 16.03 109.34 13.47L109.34 13.47Q109.31 12.99 109.04 12.77Q108.77 12.54 108.50 12.34Q108.22 12.13 108.13 11.74L108.13 11.74Q108.45 11.39 108.86 11.33Q109.28 11.26 109.60 11.46L109.60 11.46Q109.57 11.39 109.52 11.33Q109.47 11.26 109.47 11.14L109.47 11.14Q111.04 11.14 111.95 11.62Q112.86 12.10 112.90 13.57L112.90 13.57Q114.18 14.72 115.33 16.03Q116.48 17.34 117.68 18.59Q118.88 19.84 120.26 20.86L120.26 20.86L120.26 21.31Q121.31 22.05 122.48 22.61Q123.65 23.17 124.64 23.94L124.64 23.94Q125.12 24.29 125.74 25.06Q126.37 25.82 126.82 26.77Q127.26 27.71 127.20 28.64ZM119.78 28.86L119.78 28.86Q118.21 29.12 116.11 29.14Q114.02 29.15 112.03 29.34L112.03 29.34Q111.26 30.82 110.30 32.10Q109.34 33.38 108.51 34.82L108.51 34.82Q110.34 34.88 111.71 34.74Q113.09 34.59 114.75 34.37L114.75 34.37Q115.04 34.34 115.33 34.29Q115.62 34.24 115.94 34.21L115.94 34.21Q115.87 33.38 115.57 32.82Q115.26 32.26 114.86 31.81Q114.46 31.36 114.14 30.88Q113.82 30.40 113.73 29.76L113.73 29.76Q115.14 30.05 116.11 30.82Q117.09 31.58 117.89 32.54Q118.69 33.50 119.52 34.43L119.52 34.43Q119.46 34.69 119.50 35.10Q119.55 35.52 119.65 36L119.65 36Q119.81 36.67 119.87 37.36Q119.94 38.05 119.62 38.43L119.62 38.43Q118.85 38.69 118.32 38.14Q117.79 37.60 117.34 36.96L117.34 36.96Q117.28 36.83 117.20 36.72Q117.12 36.61 117.06 36.51L117.06 36.51Q114.24 36.54 111.70 36.77Q109.15 36.99 107.26 37.92L107.26 37.92Q107.10 37.89 107.17 38.14L107.17 38.14Q107.20 38.40 107.07 38.37L107.07 38.37Q105.82 37.98 104.99 37.07Q104.16 36.16 103.62 34.98L103.62 34.98Q103.62 34.94 103.74 34.88L103.74 34.88Q104 34.78 103.81 34.75L103.81 34.75Q104.19 34.59 104.51 34.69Q104.83 34.78 105.12 34.91L105.12 34.91Q105.28 34.98 105.42 35.04Q105.57 35.10 105.70 35.10L105.70 35.10Q106.82 34.05 107.58 32.62Q108.35 31.20 109.12 29.79L109.12 29.79Q108.61 29.70 107.92 29.94Q107.23 30.18 106.82 30.43L106.82 30.43Q105.63 29.98 104.93 29.25Q104.22 28.51 103.68 27.42L103.68 27.42Q104.03 27.33 104.38 27.39Q104.74 27.46 105.12 27.55L105.12 27.55Q105.50 27.65 105.98 27.73Q106.46 27.81 107.04 27.74L107.04 27.74Q108.19 27.58 109.63 27.50Q111.07 27.42 112.42 27.34Q113.76 27.26 114.59 27.10L114.59 27.10Q114.88 27.04 115.14 26.94Q115.39 26.85 115.52 26.53L115.52 26.53Q116.22 26.53 117.10 26.82Q117.98 27.10 118.74 27.62Q119.49 28.13 119.78 28.86ZM154.18 23.42L154.18 23.42Q155.07 25.02 154.99 26.78Q154.91 28.54 154.05 30.34L154.05 30.34Q153.38 31.04 152.72 31.78Q152.06 32.51 151.68 33.54L151.68 33.54Q151.20 33.89 150.98 34Q150.75 34.11 150.56 34.56L150.56 34.56L149.92 34.56Q149.70 35.07 149.22 35.26Q148.74 35.46 148.19 35.68L148.19 35.68Q148.03 35.74 147.89 35.82Q147.74 35.90 147.58 36L147.58 36Q147.23 36.19 146.90 36.34Q146.56 36.48 146.21 36.42L146.21 36.42Q147.52 34.91 148.78 33.31Q150.05 31.71 151.39 30.24L151.39 30.24Q151.49 29.79 151.65 29.39Q151.81 28.99 152 28.58L152 28.58Q152.35 27.84 152.61 27.07Q152.86 26.30 152.74 25.38L152.74 25.38Q152.64 24.51 152.02 23.42Q151.39 22.34 150.59 21.33Q149.79 20.32 149.12 19.81L149.12 19.81Q148.19 19.07 146.99 18.69Q145.79 18.30 144.67 18.14L144.67 18.14Q145.18 19.68 144.80 20.94Q144.42 22.21 143.74 23.52L143.74 23.52Q143.17 24.64 142.62 25.58Q142.08 26.53 141.66 27.33L141.66 27.33Q141.54 27.62 141.41 27.97Q141.28 28.32 141.15 28.48L141.15 28.48Q141.09 28.54 140.88 28.59Q140.67 28.64 140.54 28.77L140.54 28.77Q140.35 28.96 140.21 29.33Q140.06 29.70 139.81 30.02L139.81 30.02Q139.74 30.11 139.60 30.13Q139.46 30.14 139.39 30.24L139.39 30.24Q139.17 30.56 139.07 30.94Q138.98 31.33 138.37 31.36L138.37 31.36Q138.59 31.58 138.48 31.73Q138.37 31.87 138.21 32.03L138.21 32.03Q138.02 32.19 137.89 32.34Q137.76 32.48 137.86 32.70L137.86 32.70L137.34 32.70Q137.28 32.90 137.60 32.90L137.60 32.90Q137.63 32.90 137.66 32.90L137.66 32.90Q137.34 33.22 137.06 33.31Q136.77 33.41 136.32 33.31L136.32 33.31Q136.16 33.79 135.76 33.84Q135.36 33.89 134.94 33.70Q134.53 33.50 134.24 33.31L134.24 33.31Q133.50 31.26 133.65 29.31Q133.79 27.36 134.14 25.38L134.14 25.38Q134.18 25.06 134.22 24.75Q134.27 24.45 134.34 24.13L134.34 24.13Q134.50 24.00 134.62 23.84Q134.75 23.68 134.98 23.62L134.98 23.62Q135.01 23.46 134.94 23.42Q134.88 23.39 134.78 23.36L134.78 23.36Q134.69 23.33 134.66 23.30L134.66 23.30Q134.91 23.26 134.85 23.09Q134.78 22.91 134.75 23.01L134.75 23.01Q134.75 23.01 134.75 23.01L134.75 23.01Q134.75 23.01 134.75 23.01L134.75 23.01Q135.20 21.60 136.18 20.21Q137.15 18.82 138.58 17.76Q140 16.70 141.79 16.32Q143.58 15.94 145.60 16.51L145.60 16.51Q146.46 16.77 147.41 17.30Q148.35 17.82 149.22 18.37L149.22 18.37Q150.11 18.94 150.77 19.62Q151.42 20.29 152.10 20.93L152.10 20.93Q152.64 21.44 153.18 22.03Q153.73 22.62 154.18 23.42ZM144.45 18.14L144.45 18.14Q143.30 17.89 142.42 18.10Q141.54 18.30 140.85 18.75Q140.16 19.20 139.55 19.68L139.55 19.68Q139.33 19.84 139.12 20.00Q138.91 20.16 138.69 20.32L138.69 20.32Q137.73 21.86 136.96 23.44Q136.19 25.02 135.84 26.82Q135.49 28.61 135.68 30.85L135.68 30.85Q137.28 29.92 138.37 28.29Q139.46 26.66 140.54 25.06L140.54 25.06Q141.66 23.42 142.62 21.66Q143.58 19.90 144.45 18.14ZM189.70 19.46L189.70 19.46Q189.15 20.22 188.38 20.45Q187.62 20.67 186.77 20.75Q185.92 20.83 185.15 21.22L185.15 21.22Q185.28 21.02 185.15 20.99L185.15 20.99Q184.70 21.25 183.79 21.30Q182.88 21.34 181.97 21.34Q181.06 21.34 180.51 21.54L180.51 21.54Q180.51 22.30 180.56 23.10Q180.61 23.90 180.67 24.74L180.67 24.74Q180.74 25.92 180.80 27.06Q180.86 28.19 180.80 29.15L180.80 29.15Q180.77 29.54 180.74 29.89Q180.70 30.24 180.64 30.59L180.64 30.59Q180.58 31.23 180.53 31.90Q180.48 32.58 180.51 33.50L180.51 33.50Q180 35.26 179.23 36.43Q178.46 37.60 177.60 38.98L177.60 38.98Q177.28 38.43 177.41 37.65Q177.54 36.86 177.73 36.06L177.73 36.06Q177.82 35.68 177.90 35.31Q177.98 34.94 178.02 34.62L178.02 34.62Q177.02 34.66 175.73 34.42Q174.43 34.18 173.60 33.60L173.60 33.60Q173.57 33.41 173.57 33.33Q173.57 33.25 173.57 33.15L173.57 33.15Q173.57 33.09 173.58 33.01Q173.60 32.93 173.60 32.77L173.60 32.77Q172.83 32.22 172.24 31.58Q171.65 30.94 171.62 29.89L171.62 29.89Q171.62 29.38 171.92 28.72Q172.22 28.06 172.72 27.44Q173.22 26.82 173.74 26.38Q174.27 25.95 174.72 25.86L174.72 25.86Q175.42 25.73 176.22 25.95Q177.02 26.18 177.71 26.64Q178.40 27.10 178.75 27.71L178.75 27.71Q178.91 26.69 178.88 25.79Q178.85 24.90 178.78 24.00L178.78 24.00Q178.72 23.49 178.69 22.94Q178.66 22.40 178.66 21.82L178.66 21.82Q176.13 21.92 173.54 21.90Q170.94 21.89 168.50 21.63Q166.05 21.38 164 20.80L164 20.80Q164.13 20.00 164.13 19.41Q164.13 18.82 164.51 18.21L164.51 18.21Q165.25 17.95 166.13 17.82Q167.01 17.70 167.62 17.18L167.62 17.18Q168 17.50 167.90 17.89Q167.81 18.27 167.50 18.59Q167.20 18.91 166.88 19.04L166.88 19.04Q168.64 19.49 170.66 19.62Q172.67 19.74 174.70 19.63Q176.74 19.52 178.53 19.36L178.53 19.36Q178.66 17.98 178.98 16.62Q179.30 15.26 179.94 14.14Q180.58 13.02 181.63 12.45L181.63 12.45Q183.62 13.73 185.55 15.12Q187.49 16.51 189.28 18.02L189.28 18.02Q189.22 18.37 189.30 18.56Q189.38 18.75 189.47 18.94L189.47 18.94Q189.54 19.04 189.60 19.17Q189.66 19.30 189.70 19.46ZM185.98 18.62L185.98 18.62Q185.86 17.98 185.36 17.58Q184.86 17.18 184.42 16.77L184.42 16.77Q183.74 16.13 183.15 15.42Q182.56 14.72 181.63 14.50L181.63 14.50L181.44 14.50Q181.06 15.55 180.72 16.69Q180.38 17.82 180.38 19.26L180.38 19.26Q181.54 19.30 182.59 19.15Q183.65 19.01 184.64 18.85L184.64 18.85Q184.96 18.78 185.30 18.74Q185.63 18.69 185.98 18.62ZM177.41 28.96L177.41 28.96Q176.83 28.32 176.11 28.35Q175.39 28.38 174.80 28.94Q174.21 29.50 174.02 30.50L174.02 30.50Q174.27 30.98 174.70 31.30Q175.14 31.62 175.33 32.16L175.33 32.16Q176.38 32.42 177.02 32.14Q177.66 31.87 177.90 31.33Q178.14 30.78 178.02 30.13Q177.89 29.47 177.41 28.96ZM221.28 32.93L221.28 32.93Q221.22 33.06 221.20 33.22Q221.18 33.38 221.18 33.54L221.18 33.54Q221.18 33.76 221.14 33.92Q221.09 34.08 220.86 33.98L220.86 33.98Q220.77 34.18 220.99 34.18L220.99 34.18Q221.18 34.14 221.18 34.27L221.18 34.27Q221.12 34.37 221.06 34.43Q220.99 34.50 220.93 34.56L220.93 34.56Q220.77 34.72 220.69 34.88Q220.61 35.04 220.64 35.42L220.64 35.42Q219.81 36.22 218.99 36.69Q218.18 37.15 217.34 37.98L217.34 37.98Q217.44 37.73 217.57 37.46Q217.70 37.18 217.82 36.90L217.82 36.90Q218.24 35.97 218.59 34.93Q218.94 33.89 218.69 32.83L218.69 32.83Q218.50 31.94 217.95 31.04Q217.41 30.14 216.72 29.33Q216.03 28.51 215.39 27.97L215.39 27.97Q214.27 26.98 212.83 25.97Q211.39 24.96 209.84 24.22Q208.29 23.49 206.82 23.33L206.82 23.33Q205.66 23.20 204.50 23.60Q203.33 24.00 202.30 24.67Q201.28 25.34 200.51 26.02L200.51 26.02Q199.23 27.17 198.34 28.67Q197.44 30.18 196.51 31.39L196.51 31.39Q195.55 31.01 195.31 30.27Q195.07 29.54 195.25 28.61Q195.42 27.68 195.68 26.78L195.68 26.78Q195.78 26.43 195.86 26.11Q195.94 25.79 196 25.50L196 25.50Q196.29 25.57 196.34 25.87Q196.38 26.18 196.51 26.43L196.51 26.43Q196.74 26.24 196.96 26.02Q197.18 25.79 197.41 25.60L197.41 25.60Q198.56 24.51 199.81 23.49Q201.06 22.46 202.54 21.81Q204.03 21.15 205.89 21.18L205.89 21.18Q208.22 21.25 210.19 22.13Q212.16 23.01 213.87 24.22Q215.58 25.44 217.06 26.53L217.06 26.53Q217.15 26.66 217.15 26.85L217.15 26.85Q217.66 27.23 218.45 28.05Q219.23 28.86 219.94 29.84Q220.64 30.82 220.96 31.71L220.96 31.71Q221.06 31.97 221.12 32.38Q221.18 32.80 220.96 32.93L220.96 32.93Q220.99 33.02 221.09 32.96L221.09 32.96Q221.18 32.93 221.28 32.93ZM218.78 23.33L218.78 23.33Q217.50 22.94 216.96 22.30Q216.42 21.66 216.26 20.75Q216.10 19.84 215.90 18.69L215.90 18.69Q216.80 19.14 217.68 19.76Q218.56 20.38 218.96 21.26Q219.36 22.14 218.78 23.33ZM222.21 21.18L222.21 21.18Q221.02 21.02 220.42 20.24Q219.81 19.46 219.57 18.50Q219.33 17.54 219.20 16.83L219.20 16.83Q219.78 16.99 220.46 17.34Q221.15 17.70 221.71 18.24Q222.27 18.78 222.46 19.52Q222.66 20.26 222.21 21.18ZM251.65 16.38L251.65 16.38Q250.98 16.74 250.45 17.28Q249.92 17.82 249.41 18.37Q248.90 18.91 248.22 19.30L248.22 19.30Q247.81 20.35 247.23 21.73Q246.66 23.10 246.46 24.64L246.46 24.64Q246.21 24.64 246.21 24.77Q246.21 24.90 246.21 25.01Q246.21 25.12 245.95 25.15L245.95 25.15Q245.92 25.38 245.97 25.41Q246.02 25.44 246.08 25.41L246.08 25.41Q246.24 25.38 246.27 25.57L246.27 25.57Q246.11 26.66 245.92 27.92Q245.73 29.18 245.63 30.11L245.63 30.11Q245.60 30.27 245.70 30.35Q245.79 30.43 245.89 30.50L245.89 30.50Q245.92 30.53 245.95 30.53L245.95 30.53Q245.76 30.88 245.74 31.15Q245.73 31.42 245.73 31.68L245.73 31.68Q245.76 31.94 245.74 32.18Q245.73 32.42 245.54 32.70L245.54 32.70Q245.73 33.06 245.79 33.66Q245.86 34.27 245.89 34.94L245.89 34.94Q245.92 35.81 246.03 36.66Q246.14 37.50 246.46 38.11Q246.78 38.72 247.52 38.88L247.52 38.88Q247.97 38.82 248.16 38.54Q248.35 38.27 248.74 38.18L248.74 38.18Q248.32 38.69 247.94 39.34Q247.55 40 247.20 40.35L247.20 40.35Q246.37 40.38 245.70 39.74Q245.02 39.10 244.70 38.50L244.70 38.50Q244.06 37.28 243.82 35.66Q243.58 34.05 243.57 32.35Q243.55 30.66 243.58 29.22L243.58 29.22Q243.58 28.96 243.58 28.72Q243.58 28.48 243.58 28.26L243.58 28.26Q243.94 25.79 244.50 23.42Q245.06 21.06 245.86 18.56L245.86 18.56Q244.70 18.66 243.28 18.78Q241.86 18.91 239.97 19.30L239.97 19.30Q239.81 19.33 239.71 19.28Q239.62 19.23 239.52 19.14L239.52 19.14Q239.36 18.98 239.23 18.98L239.23 18.98Q239.14 19.04 239.10 19.18Q239.07 19.33 238.94 19.39L238.94 19.39Q238.62 19.36 238.22 19.36Q237.82 19.36 237.41 19.36L237.41 19.36Q236.13 19.33 234.62 19.25Q233.12 19.17 231.73 18.83Q230.34 18.50 229.34 17.73L229.34 17.73Q229.28 17.47 229.28 17.26Q229.28 17.06 229.31 16.86L229.31 16.86Q229.31 16.58 229.30 16.30Q229.28 16.03 229.12 15.68L229.12 15.68Q229.47 15.10 230.18 14.90Q230.88 14.69 231.66 14.54Q232.45 14.40 232.96 14.02L232.96 14.02Q233.12 14.30 232.88 14.61Q232.64 14.91 232.32 15.23L232.32 15.23Q232.10 15.42 231.89 15.65Q231.68 15.87 231.62 16.10L231.62 16.10Q233.15 16.58 235.04 16.69Q236.93 16.80 238.85 16.61L238.85 16.61Q240.77 16.42 242.83 16.24Q244.90 16.06 246.74 15.58Q248.58 15.10 249.79 14.02L249.79 14.02Q250.75 14.05 251.34 14.67Q251.94 15.30 251.65 16.38ZM272 37.12L256 37.12L256 9.50L272 9.50L272 37.12ZM258.85 11.46L264 21.54L269.15 11.46L258.85 11.46ZM257.76 13.25L257.76 33.38L262.91 23.30L257.76 13.25ZM265.06 23.30L270.21 33.38L270.21 13.25L265.06 23.30ZM264 25.09L258.85 35.14L269.15 35.14L264 25.09ZM298.40 26.66L298.40 26.66Q299.04 28.19 299.18 30.11Q299.33 32.03 299.01 33.90Q298.69 35.78 297.86 37.18L297.86 37.18Q297.44 37.57 297.01 38.27Q296.58 38.98 296.16 39.62L296.16 39.62Q295.87 39.58 295.63 39.70Q295.39 39.81 295.20 39.94L295.20 39.94Q295.04 40.06 294.88 40.13Q294.72 40.19 294.56 40.16L294.56 40.16Q294.43 40.06 294.53 39.84Q294.62 39.62 294.66 39.52L294.66 39.52Q295.23 38.40 295.87 36.88Q296.51 35.36 296.98 33.65Q297.44 31.94 297.47 30.22Q297.50 28.51 296.80 26.98L296.80 26.98Q296.58 26.50 296.14 26.03Q295.71 25.57 295.10 25.38L295.10 25.38Q294.85 25.73 294.82 26.10Q294.78 26.46 294.82 26.85L294.82 26.85Q294.82 27.07 294.82 27.31Q294.82 27.55 294.78 27.81L294.78 27.81Q294.69 28.48 294.26 29.42Q293.82 30.37 293.18 31.31Q292.54 32.26 291.87 32.99Q291.20 33.73 290.62 33.98L290.62 33.98Q290.56 34.08 290.59 34.16Q290.62 34.24 290.69 34.27L290.69 34.27Q290.75 34.40 290.62 34.40L290.62 34.40Q289.89 35.30 289.04 35.44Q288.19 35.58 287.44 35.18Q286.69 34.78 286.16 34.06Q285.63 33.34 285.54 32.48L285.54 32.48Q284.99 32.70 284.30 33.18Q283.62 33.66 282.86 34.06Q282.11 34.46 281.38 34.53L281.38 34.53Q280.86 34.02 280 33.86Q279.14 33.70 278.26 33.62Q277.38 33.54 276.80 33.25L276.80 33.25Q276.90 30.91 278.03 29.06Q279.17 27.20 280.96 25.86Q282.75 24.51 284.77 23.78L284.77 23.78Q284.83 22.88 284.91 22.27Q284.99 21.66 285.09 21.02Q285.18 20.38 285.22 19.42L285.22 19.42Q284.03 19.52 283.10 19.15Q282.18 18.78 281.39 18.16Q280.61 17.54 279.90 16.86L279.90 16.86Q279.81 16.80 279.73 16.70Q279.65 16.61 279.55 16.54L279.55 16.54Q280.22 16.22 281.02 16.30Q281.82 16.38 282.69 16.58L282.69 16.58Q283.52 16.74 284.35 16.83Q285.18 16.93 285.95 16.64L285.95 16.64Q286.18 16.38 286.32 16.00Q286.46 15.62 286.59 15.17L286.59 15.17Q286.78 14.59 287.01 14.06Q287.23 13.54 287.62 13.23Q288 12.93 288.61 13.06L288.61 13.06Q288.54 13.41 288.54 13.76Q288.54 14.11 288.54 14.46L288.54 14.46Q288.54 14.91 288.53 15.34Q288.51 15.78 288.38 16.22L288.38 16.22Q289.79 16.06 291.01 15.68Q292.22 15.30 293.38 14.85L293.38 14.85Q293.57 14.78 293.78 14.67Q293.98 14.56 294.18 14.43L294.18 14.43Q294.59 14.18 295.02 13.98Q295.46 13.79 295.94 13.89L295.94 13.89Q296.22 14.62 295.87 15.23Q295.52 15.84 294.85 16.30Q294.18 16.77 293.50 17.09L293.50 17.09Q293.02 17.31 292.74 17.52Q292.45 17.73 291.90 17.82L291.90 17.82Q291.30 17.92 290.14 18.32Q288.99 18.72 287.74 18.88L287.74 18.88Q287.42 19.78 287.30 21.04Q287.17 22.30 287.10 23.23L287.10 23.23Q287.39 23.20 287.71 23.17Q288.03 23.14 288.35 23.10L288.35 23.10Q289.60 22.98 290.94 22.90Q292.29 22.82 293.57 22.98Q294.85 23.14 295.84 23.78L295.84 23.78Q296.77 24.35 297.26 25.14Q297.76 25.92 298.40 26.66ZM293.50 26.43L293.50 26.43Q292.77 26.88 292.05 27.50Q291.33 28.13 290.30 28.86L290.30 28.86Q289.86 29.18 289.23 29.57Q288.61 29.95 288.13 30.35Q287.65 30.75 287.55 31.10L287.55 31.10Q287.42 31.62 287.74 32.26Q288.06 32.90 288.29 33.02L288.29 33.02Q288.51 33.12 289.01 33.07Q289.50 33.02 289.76 32.93L289.76 32.93Q290.40 32.67 291.10 31.90Q291.81 31.14 292.40 30.11Q292.99 29.09 293.31 28.10Q293.63 27.10 293.50 26.43ZM284.90 30.21L284.90 30.21Q284.83 29.28 284.78 28.05Q284.74 26.82 284.77 26.02L284.77 26.02Q284.06 26.37 283.23 26.96Q282.40 27.55 281.63 28.30Q280.86 29.06 280.37 29.89Q279.87 30.72 279.81 31.52L279.81 31.52Q280.45 32.06 281.38 31.89Q282.30 31.71 283.20 31.22Q284.10 30.72 284.70 30.34L284.70 30.34Q284.83 30.24 284.90 30.21ZM293.02 24.58L293.02 24.58Q292.32 24.51 291.20 24.61Q290.08 24.70 288.94 24.91Q287.81 25.12 287.04 25.47L287.04 25.47Q286.91 26.46 286.91 27.38Q286.91 28.29 286.94 28.83L286.94 28.83Q288.48 27.97 290.11 26.72Q291.74 25.47 293.02 24.58ZM337.57 30.88L337.57 30.88Q337.50 30.91 337.42 30.88Q337.34 30.85 337.38 30.78L337.38 30.78Q336.83 32.00 335.79 33.10Q334.75 34.21 333.33 34.96Q331.90 35.71 330.24 35.84L330.24 35.84Q330.30 35.65 330.46 35.54Q330.62 35.42 330.66 35.20L330.66 35.20Q330.62 35.07 330.50 35.20L330.50 35.20Q330.78 34.69 331.46 34.18Q332.13 33.66 332.74 33.34L332.74 33.34Q333.18 32.70 333.62 32.05Q334.05 31.39 334.69 30.98L334.69 30.98Q334.94 30.21 335.38 29.46Q335.81 28.70 336.03 28.19L336.03 28.19Q336.03 28.00 336.13 28.06L336.13 28.06Q336.19 28.10 336.22 28.10L336.22 28.10Q336.58 27.04 336.85 25.47Q337.12 23.90 337.18 22.22Q337.25 20.54 336.96 19.20L336.96 19.20Q338.14 19.78 338.78 20.83Q339.42 21.89 339.60 23.22Q339.78 24.54 339.54 25.90Q339.30 27.26 338.75 28.50Q338.21 29.73 337.38 30.56L337.38 30.56Q337.41 30.59 337.44 30.62L337.44 30.62Q337.60 30.75 337.57 30.88ZM323.33 31.20L323.33 31.20Q322.69 31.36 322.06 31.09Q321.44 30.82 320.96 30.34Q320.48 29.86 320.22 29.34L320.22 29.34Q319.71 28.19 319.26 26.43Q318.82 24.67 318.27 22.94L318.27 22.94Q317.66 21.06 316.98 19.52Q316.29 17.98 315.81 16.74L315.81 16.74Q316.90 17.47 318.06 18.26Q319.23 19.04 320.03 20.26L320.03 20.26Q320.86 21.47 321.28 23.15Q321.70 24.83 322.21 26.34L322.21 26.34Q322.53 27.33 322.82 27.94Q323.10 28.54 323.23 29.63L323.23 29.63Q323.26 29.79 323.30 29.92Q323.33 30.05 323.36 30.14L323.36 30.14Q323.46 30.40 323.49 30.64Q323.52 30.88 323.33 31.20ZM374.02 29.60L374.02 29.60Q374.02 29.63 374.02 29.66L374.02 29.66Q374.02 29.79 373.98 30.03Q373.95 30.27 373.70 30.53L373.70 30.53Q373.47 32.80 372.50 34.86Q371.52 36.93 369.89 38.56L369.89 38.56Q369.86 38.66 369.95 38.66L369.95 38.66Q369.95 38.66 369.98 38.66L369.98 38.66Q369.95 38.66 369.95 38.66L369.95 38.66Q369.76 38.66 369.58 38.80Q369.41 38.94 369.22 39.14L369.22 39.14Q369.09 39.26 368.96 39.38Q368.83 39.49 368.70 39.55L368.70 39.55Q368.64 39.55 368.51 39.52L368.51 39.52Q368.13 39.49 367.90 39.54Q367.68 39.58 367.26 40L367.26 40Q368.10 38.91 369.01 37.15Q369.92 35.39 370.66 33.26Q371.39 31.14 371.73 28.86Q372.06 26.59 371.79 24.43Q371.52 22.27 370.40 20.51L370.40 20.51Q368.77 20.22 367.31 20.56Q365.86 20.90 364.45 21.31L364.45 21.31Q363.46 21.63 362.46 21.90Q361.47 22.18 360.45 22.21L360.45 22.21Q359.94 21.02 359.82 20.14Q359.71 19.26 360.06 17.98L360.06 17.98Q360.10 17.98 360.16 17.98L360.16 17.98Q360.35 17.98 360.38 17.89L360.38 17.89Q360.86 17.92 361.02 18.24Q361.18 18.56 361.38 18.85L361.38 18.85Q362.21 19.04 363.23 18.93Q364.26 18.82 365.38 18.66L365.38 18.66Q366.59 18.46 367.86 18.34Q369.12 18.21 370.27 18.42Q371.42 18.62 372.32 19.42L372.32 19.42Q373.44 20.38 373.82 21.90Q374.21 23.42 374.19 25.23Q374.18 27.04 374.05 28.86L374.05 28.86Q374.05 29.02 374.03 29.22Q374.02 29.41 374.02 29.60ZM371.62 12.38L371.62 12.38Q371.65 12.96 371.63 13.26Q371.62 13.57 371.49 13.82L371.49 13.82Q371.20 13.86 370.90 13.94Q370.59 14.02 370.24 14.08L370.24 14.08Q369.12 14.30 367.84 14.51Q366.56 14.72 365.47 14.43L365.47 14.43Q364.83 14.27 364.50 13.79Q364.16 13.31 364 12.66Q363.84 12.00 363.71 11.39L363.71 11.39Q363.94 11.10 364.35 10.82Q364.77 10.53 365.09 10.59L365.09 10.59Q365.38 10.75 365.44 11.17Q365.50 11.58 365.66 11.87L365.66 11.87Q366.14 11.90 366.66 11.92Q367.17 11.94 367.68 11.97L367.68 11.97Q368.74 11.97 369.76 12.03Q370.78 12.10 371.62 12.38ZM419.42 37.89L419.42 37.89Q417.66 39.07 415.82 39.38Q413.98 39.68 411.87 39.84L411.87 39.84Q412.45 39.17 413.28 38.74Q414.11 38.30 414.91 37.84Q415.71 37.38 416.22 36.64L416.22 36.64Q415.23 36.19 414.03 36.11Q412.83 36.03 411.62 36.03L411.62 36.03Q410.50 36.03 409.42 35.95Q408.35 35.87 407.49 35.54Q406.62 35.20 406.06 34.42Q405.50 33.63 405.38 32.22L405.38 32.22Q405.34 31.52 405.28 30.93Q405.22 30.34 404.96 29.73L404.96 29.73Q404.77 29.89 404.27 30.00Q403.78 30.11 403.25 30.22Q402.72 30.34 402.40 30.56L402.40 30.56Q401.82 30.46 401.57 29.94Q401.31 29.41 401.34 28.78Q401.38 28.16 401.66 27.78L401.66 27.78Q402.18 27.58 402.78 27.49Q403.39 27.39 403.94 27.26L403.94 27.26Q405.44 26.11 406.94 24.48Q408.45 22.85 409.50 21.18L409.50 21.18Q409.18 21.25 408.86 21.34Q408.54 21.44 408.22 21.54L408.22 21.54Q406.72 21.98 405.09 22.30Q403.46 22.62 402.18 22.11L402.18 22.11Q401.95 21.54 401.52 21.20Q401.09 20.86 400.83 20.35L400.83 20.35Q401.09 19.94 401.49 19.66Q401.89 19.39 402.27 19.10L402.27 19.10Q402.62 19.17 402.77 19.44Q402.91 19.71 403.01 20.03L403.01 20.03Q405.41 19.97 407.79 19.41Q410.18 18.85 411.78 17.76L411.78 17.76Q412.48 17.92 413.07 18.22Q413.66 18.53 414.05 19.01L414.05 19.01Q414.02 19.39 413.78 19.55Q413.54 19.71 413.34 19.94L413.34 19.94Q413.38 20.10 413.34 20.21Q413.31 20.32 413.28 20.42L413.28 20.42Q413.22 20.58 413.22 20.67L413.22 20.67Q411.84 22.43 410.40 24.10Q408.96 25.76 407.65 27.58L407.65 27.58Q407.49 27.58 407.41 27.63Q407.33 27.68 407.26 27.74L407.26 27.74Q407.17 27.81 407.07 27.86Q406.98 27.90 406.82 27.87L406.82 27.87Q407.17 29.28 407.76 30.69Q408.35 32.10 408.38 33.76L408.38 33.76Q410.30 33.86 412.40 34.13Q414.50 34.40 416.34 34.94Q418.18 35.49 419.20 36.45L419.20 36.45Q419.46 36.67 419.54 37.06Q419.62 37.44 419.42 37.89ZM414.78 14.05L414.78 14.05Q414.50 14.43 413.79 14.70Q413.09 14.98 412.19 15.12Q411.30 15.26 410.40 15.22Q409.50 15.17 408.80 14.88L408.80 14.88Q408.32 14.69 407.89 14.16Q407.46 13.63 407.25 13.01Q407.04 12.38 407.20 11.87Q407.36 11.36 408.06 11.17L408.06 11.17Q408.10 11.26 408.11 11.36Q408.13 11.46 408.16 11.55L408.16 11.55Q408.22 11.74 408.26 11.94Q408.29 12.13 408.26 12.38L408.26 12.38Q409.50 12.48 411.17 12.53Q412.83 12.58 414.37 12.80L414.37 12.80Q414.62 13.09 414.59 13.39Q414.56 13.70 414.78 14.05ZM461.28 31.90L461.28 31.90Q461.44 32.26 461.23 32.82Q461.02 33.38 460.66 33.92Q460.29 34.46 459.94 34.78L459.94 34.78Q459.14 35.49 458.19 35.97Q457.25 36.45 456.32 36.54L456.32 36.54Q455.52 35.23 455.39 33.36Q455.26 31.49 455.58 29.63L455.58 29.63Q455.46 29.47 455.23 29.44Q455.01 29.41 454.75 29.44L454.75 29.44Q454.30 30.08 454 30.91Q453.70 31.74 453.42 32.56Q453.15 33.38 452.70 34.08L452.70 34.08Q452.74 34.11 452.80 34.14L452.80 34.14Q452.93 34.24 452.90 34.37L452.90 34.37Q452.64 35.17 452.45 35.57Q452.26 35.97 452.10 36.64L452.10 36.64Q452.10 36.45 451.68 36.26L451.68 36.26Q451.58 36.42 451.57 36.61Q451.55 36.80 451.55 37.02L451.55 37.02Q451.55 37.44 451.47 37.82Q451.39 38.21 450.85 38.30L450.85 38.30Q450.94 38.59 450.86 38.72Q450.78 38.85 450.66 38.94L450.66 38.94Q450.46 39.10 450.43 39.23L450.43 39.23Q450.30 38.94 450.30 38.83Q450.30 38.72 450.34 38.50L450.34 38.50Q450.37 38.43 450.38 38.34Q450.40 38.24 450.43 38.11L450.43 38.11Q450.30 38.14 450.24 38.30L450.24 38.30Q450.27 37.95 450.40 37.76Q450.53 37.57 450.85 37.28L450.85 37.28Q450.53 37.28 450.58 37.07Q450.62 36.86 450.75 36.61L450.75 36.61Q450.82 36.45 450.86 36.32Q450.91 36.19 450.85 36.13L450.85 36.13Q450.88 36 451.04 36.10L451.04 36.10Q451.14 36.13 451.17 36.13L451.17 36.13Q451.04 35.84 451.12 35.44Q451.20 35.04 451.30 34.66L451.30 34.66Q451.36 34.37 451.42 34.11Q451.49 33.86 451.46 33.66L451.46 33.66Q451.62 33.60 451.74 33.70L451.74 33.70Q451.84 33.76 451.97 33.76L451.97 33.76Q451.81 33.66 451.79 33.57Q451.78 33.47 451.81 33.38L451.81 33.38Q451.87 33.22 451.78 33.15L451.78 33.15Q451.94 33.09 452.14 33.06Q452.35 33.02 452.38 32.64L452.38 32.64Q452.35 32.48 452.22 32.74L452.22 32.74Q452.13 32.90 452.10 32.93L452.10 32.93Q452.06 32.54 452.14 32.14Q452.22 31.74 452.32 31.33L452.32 31.33Q452.42 30.98 452.50 30.61Q452.58 30.24 452.61 29.86L452.61 29.86Q451.23 29.98 449.49 30.66Q447.74 31.33 446.21 32.13L446.21 32.13Q445.76 32.35 445.07 32.74Q444.38 33.12 444.22 33.34L444.22 33.34Q444.10 33.54 444.13 33.78Q444.16 34.02 444.03 34.27L444.03 34.27Q443.87 34.62 443.57 34.82Q443.26 35.01 443.20 35.52L443.20 35.52Q442.72 35.84 442.45 36.06Q442.18 36.29 441.86 36.77L441.86 36.77Q441.54 36.83 441.14 37.14Q440.74 37.44 440.19 37.70Q439.65 37.95 438.88 37.98L438.88 37.98Q438.05 38.02 437.09 37.90Q436.13 37.79 435.36 37.57L435.36 37.57Q435.36 37.28 435.44 37.09Q435.52 36.90 435.62 36.74L435.62 36.74Q435.71 36.54 435.79 36.37Q435.87 36.19 435.87 35.94L435.87 35.94Q436.61 35.74 437.07 35.36Q437.54 34.98 438.24 34.50L438.24 34.50Q438.88 34.05 439.55 33.74Q440.22 33.44 440.80 33.14Q441.38 32.83 441.74 32.34Q442.11 31.84 442.18 30.98L442.18 30.98L442.50 30.98Q442.43 30.27 442.46 29.57Q442.50 28.86 442.56 28.16L442.56 28.16Q442.62 27.23 442.66 26.30Q442.69 25.38 442.50 24.38L442.50 24.38Q439.87 24.42 438.05 23.36Q436.22 22.30 435.68 20.03L435.68 20.03Q435.78 20.06 435.94 20.16L435.94 20.16Q437.28 20.86 438.74 21.41Q440.19 21.95 442.37 21.79L442.37 21.79Q442.34 21.38 442.29 20.98Q442.24 20.58 442.18 20.19L442.18 20.19Q442.05 19.17 441.94 18.14Q441.82 17.12 441.86 15.90L441.86 15.90Q442.78 16.93 443.49 18.18Q444.19 19.42 444.22 21.38L444.22 21.38Q445.06 21.31 445.55 21.22Q446.05 21.12 446.48 20.96Q446.91 20.80 447.55 20.64L447.55 20.64Q447.39 20.83 447.55 20.80Q447.71 20.77 447.90 20.70L447.90 20.70Q448.19 20.64 448.26 20.64L448.26 20.64Q448.19 20.48 448.03 20.58L448.03 20.58Q447.87 20.70 447.74 20.64L447.74 20.64Q448.19 20.38 448.67 20.26L448.67 20.26Q448.67 20.38 448.74 20.48L448.74 20.48Q448.83 20.61 448.77 20.77L448.77 20.77Q448.93 20.77 449.09 20.67L449.09 20.67Q449.18 20.61 449.26 20.56Q449.34 20.51 449.50 20.54L449.50 20.54Q449.06 21.06 448.98 21.73Q448.90 22.40 448.48 22.72L448.48 22.72Q447.68 23.33 446.67 23.52Q445.66 23.71 444.64 24.16L444.64 24.16Q444.61 25.09 444.61 26.32Q444.61 27.55 444.61 28.74Q444.61 29.92 444.54 30.78L444.54 30.78Q446.66 29.98 448.75 29.09Q450.85 28.19 453.12 28.00L453.12 28.00Q454.21 25.09 455.02 22.06Q455.84 19.04 456.74 16.13L456.74 16.13Q456.58 15.68 456.54 15.33Q456.51 14.98 456.61 14.37L456.61 14.37Q457.15 13.86 457.97 13.92Q458.78 13.98 459.52 14.24L459.52 14.24Q459.36 15.39 459.20 16.10Q459.04 16.80 458.85 17.44Q458.66 18.08 458.37 19.01L458.37 19.01Q457.70 20.00 457.17 21.36Q456.64 22.72 456.46 24.13Q456.29 25.54 456.61 26.75L456.61 26.75Q456.54 26.75 456.45 26.85L456.45 26.85Q456.38 26.91 456.32 26.94Q456.26 26.98 456.10 26.94L456.10 26.94Q456.19 27.10 456.29 27.07Q456.38 27.04 456.51 26.94L456.51 26.94Q456.67 26.85 456.74 26.85L456.74 26.85Q456.74 26.98 456.77 27.17L456.77 27.17Q456.77 27.30 456.75 27.38Q456.74 27.46 456.61 27.58L456.61 27.58L457.15 27.58Q457.15 27.71 457.20 27.78Q457.25 27.84 457.31 27.90L457.31 27.90Q457.38 27.97 457.42 28.03Q457.47 28.10 457.44 28.29L457.44 28.29Q458.75 28.67 459.76 29.73Q460.77 30.78 461.28 31.90ZM457.86 33.06L457.86 33.06Q458.56 32.70 458.58 32.08Q458.59 31.46 458.21 30.85Q457.82 30.24 457.25 30.05L457.25 30.05Q457.28 30.24 457.30 30.48Q457.31 30.72 457.31 31.01L457.31 31.01Q457.31 31.58 457.39 32.16Q457.47 32.74 457.86 33.06ZM455.81 28.00L455.81 28.00Q455.78 27.74 455.79 27.49Q455.81 27.23 455.84 26.98L455.84 26.98Q455.87 26.69 455.89 26.45Q455.90 26.21 455.81 26.02L455.81 26.02Q455.65 26.50 455.47 26.96Q455.30 27.42 455.07 27.87L455.07 27.87Q455.23 27.84 455.34 27.87Q455.46 27.90 455.55 27.94L455.55 27.94Q455.71 28.00 455.81 28.00ZM449.60 19.62L449.60 19.62Q449.73 19.71 449.60 19.87Q449.47 20.03 449.28 20.13Q449.09 20.22 448.99 20.13L448.99 20.13Q449.12 19.97 449.34 19.90Q449.57 19.84 449.60 19.62Z"/></svg>