<svg xmlns="http://www.w3.org/2000/svg" xmlns:xlink="http://www.w3.org/1999/xlink" width="469.75999999999993" height="46.336"><path fill="black" stroke="none" d="M3.33 38.30L3.33 38.30Q3.04 38.43 2.74 38.32Q2.43 38.21 2.27 37.89L2.27 37.89Q2.14 37.60 2.26 37.28Q2.37 36.96 2.69 36.83L2.69 36.83Q7.46 34.66 10.46 31.31Q13.47 27.97 14.86 23.22Q16.26 18.46 16.16 12.06L16.16 12.06Q16.16 11.71 16.40 11.47Q16.64 11.23 16.96 11.23L16.96 11.23Q17.31 11.23 17.54 11.46Q17.76 11.68 17.79 12.03L17.79 12.03Q17.89 19.71 15.94 25.18L15.94 25.18Q16.26 25.54 17.18 26.48Q18.11 27.42 19.41 28.66Q20.70 29.89 22.14 31.12Q23.58 32.35 24.96 33.28L24.96 33.28Q25.82 33.86 26.86 34.37Q27.90 34.88 28.86 35.26Q29.82 35.65 30.43 35.87Q31.04 36.10 31.04 36.10L31.04 36.10Q31.36 36.22 31.50 36.51Q31.65 36.80 31.55 37.12L31.55 37.12Q31.42 37.44 31.14 37.60Q30.85 37.76 30.53 37.63L30.53 37.63Q30.46 37.60 29.82 37.38Q29.18 37.15 28.19 36.75Q27.20 36.35 26.11 35.81Q25.02 35.26 24.06 34.62L24.06 34.62Q22.82 33.79 21.50 32.70Q20.19 31.62 18.99 30.50Q17.79 29.38 16.82 28.42Q15.84 27.46 15.26 26.85L15.26 26.85Q13.54 30.72 10.58 33.52Q7.62 36.32 3.33 38.30ZM59.74 32.61L59.74 32.61Q59.42 32.61 59.18 32.37Q58.94 32.13 58.94 31.81L58.94 31.81L58.94 19.04L53.34 19.84Q52.90 19.90 52.58 19.52L52.58 19.52Q52.32 19.10 52.51 18.69L52.51 18.69Q53.06 17.54 53.54 16.22Q54.02 14.91 54.34 13.82L54.34 13.82L48.35 14.69Q48.03 14.72 47.76 14.51Q47.49 14.30 47.42 13.98L47.42 13.98Q47.39 13.63 47.60 13.38Q47.81 13.12 48.13 13.09L48.13 13.09L61.66 11.14Q62.02 11.07 62.29 11.28Q62.56 11.49 62.59 11.84L62.59 11.84Q62.66 12.16 62.45 12.42Q62.24 12.67 61.89 12.74L61.89 12.74L56.06 13.57Q55.84 14.50 55.44 15.68Q55.04 16.86 54.56 18.05L54.56 18.05L59.65 17.31Q60 17.25 60.29 17.50L60.29 17.50Q60.54 17.76 60.54 18.11L60.54 18.11L60.54 31.81Q60.54 32.13 60.32 32.37Q60.10 32.61 59.74 32.61ZM34.50 26.11L34.50 26.11Q34.21 26.24 33.89 26.14Q33.57 26.05 33.41 25.73L33.41 25.73Q33.28 25.44 33.38 25.12Q33.47 24.80 33.79 24.67L33.79 24.67Q35.78 23.68 37.47 22.40Q39.17 21.12 40.35 19.74L40.35 19.74L40.35 19.49L35.10 20.29Q34.78 20.32 34.53 20.13Q34.27 19.94 34.21 19.62L34.21 19.62Q34.18 19.26 34.37 18.99Q34.56 18.72 34.88 18.69L34.88 18.69L40.35 17.86L40.35 11.84Q40.35 11.49 40.59 11.26Q40.83 11.04 41.15 11.04L41.15 11.04Q41.50 11.04 41.73 11.26Q41.95 11.49 41.95 11.84L41.95 11.84L41.95 17.60L46.56 16.90Q46.88 16.83 47.15 17.02Q47.42 17.22 47.46 17.57L47.46 17.57Q47.52 17.89 47.33 18.16Q47.14 18.43 46.78 18.50L46.78 18.50L41.95 19.23L41.95 24.90Q41.95 25.22 41.73 25.46Q41.50 25.70 41.15 25.70L41.15 25.70Q40.83 25.70 40.59 25.46Q40.35 25.22 40.35 24.90L40.35 24.90L40.35 22.08Q37.89 24.45 34.50 26.11ZM47.71 39.52L47.71 39.52Q47.42 39.71 47.10 39.63Q46.78 39.55 46.59 39.26L46.59 39.26Q46.43 39.01 46.50 38.67Q46.56 38.34 46.85 38.18L46.85 38.18Q48.77 36.96 50.53 35.33Q52.29 33.70 53.57 31.94L53.57 31.94L50.46 32.45Q50.08 32.51 49.82 32.29L49.82 32.29Q49.54 32.03 49.54 31.65L49.54 31.65L49.54 19.49Q49.54 19.14 49.78 18.91Q50.02 18.69 50.34 18.69L50.34 18.69Q50.69 18.69 50.91 18.91Q51.14 19.14 51.14 19.49L51.14 19.49L51.14 30.69L55.14 30.02Q55.62 29.92 55.94 30.37L55.94 30.37Q56.19 30.82 55.97 31.23L55.97 31.23Q54.56 33.57 52.40 35.74Q50.24 37.92 47.71 39.52ZM35.39 39.46L35.39 39.46Q35.10 39.58 34.80 39.47Q34.50 39.36 34.34 39.07L34.34 39.07Q34.21 38.75 34.32 38.43Q34.43 38.11 34.72 37.98L34.72 37.98Q37.09 36.93 38.29 35.28Q39.49 33.63 39.97 31.90L39.97 31.90L34.34 32.80Q34.02 32.83 33.74 32.64Q33.47 32.45 33.41 32.13L33.41 32.13Q33.38 31.78 33.57 31.50Q33.76 31.23 34.08 31.20L34.08 31.20L40.29 30.21Q40.42 29.34 40.42 28.56Q40.42 27.78 40.35 27.14L40.35 27.14Q40.32 26.78 40.54 26.54Q40.77 26.30 41.09 26.27L41.09 26.27Q41.44 26.21 41.68 26.43Q41.92 26.66 41.95 26.98L41.95 26.98Q42.11 28.54 41.95 29.95L41.95 29.95L47.55 29.06Q47.90 28.99 48.18 29.20Q48.45 29.41 48.48 29.73L48.48 29.73Q48.54 30.05 48.35 30.32Q48.16 30.59 47.81 30.66L47.81 30.66L41.70 31.62Q41.09 34.30 39.50 36.32Q37.92 38.34 35.39 39.46ZM61.76 39.10L61.76 39.10L56.86 35.07Q56.61 34.85 56.58 34.51Q56.54 34.18 56.77 33.92L56.77 33.92Q56.96 33.66 57.30 33.63Q57.63 33.60 57.89 33.82L57.89 33.82L62.78 37.86Q63.04 38.08 63.09 38.42Q63.14 38.75 62.91 39.01L62.91 39.01Q62.69 39.23 62.35 39.28Q62.02 39.33 61.76 39.10ZM45.79 37.44L45.79 37.44L41.86 35.01Q41.57 34.85 41.49 34.51Q41.41 34.18 41.57 33.89L41.57 33.89Q41.73 33.60 42.06 33.54Q42.40 33.47 42.69 33.63L42.69 33.63L46.66 36.06Q46.94 36.22 47.01 36.56Q47.07 36.90 46.91 37.15L46.91 37.15Q46.75 37.44 46.42 37.52Q46.08 37.60 45.79 37.44ZM46.05 24.00L46.05 24.00L43.04 21.57Q42.78 21.34 42.75 21.02Q42.72 20.70 42.91 20.45L42.91 20.45Q43.14 20.19 43.47 20.14Q43.81 20.10 44.06 20.32L44.06 20.32L47.04 22.75Q47.30 22.98 47.34 23.31Q47.39 23.65 47.17 23.90L47.17 23.90Q46.94 24.13 46.62 24.18Q46.30 24.22 46.05 24.00ZM43.10 16.29L43.10 16.29Q42.88 16.06 42.86 15.73Q42.85 15.39 43.07 15.17L43.07 15.17L45.54 12.51Q45.79 12.26 46.13 12.24Q46.46 12.22 46.69 12.48L46.69 12.48Q46.94 12.70 46.96 13.02Q46.98 13.34 46.72 13.60L46.72 13.60L44.26 16.26Q44.03 16.48 43.70 16.50Q43.36 16.51 43.10 16.29ZM38.11 16.93L38.11 16.93L35.17 14.82Q34.91 14.62 34.86 14.29Q34.82 13.95 35.01 13.70L35.01 13.70Q35.20 13.44 35.54 13.38Q35.87 13.31 36.13 13.50L36.13 13.50L39.04 15.62Q39.30 15.81 39.36 16.14Q39.42 16.48 39.23 16.74L39.23 16.74Q39.04 16.99 38.70 17.06Q38.37 17.12 38.11 16.93ZM56.67 27.04L53.34 27.58Q53.02 27.65 52.75 27.46Q52.48 27.26 52.42 26.94L52.42 26.94Q52.38 26.59 52.58 26.32Q52.77 26.05 53.09 26.02L53.09 26.02L56.42 25.44Q56.74 25.38 57.01 25.57Q57.28 25.76 57.34 26.11L57.34 26.11Q57.41 26.43 57.22 26.70Q57.02 26.98 56.67 27.04L56.67 27.04ZM56.67 23.46L53.34 24.00Q53.02 24.06 52.75 23.87Q52.48 23.68 52.42 23.36L52.42 23.36Q52.38 23.01 52.58 22.74Q52.77 22.46 53.09 22.43L53.09 22.43L56.42 21.86Q56.74 21.79 57.01 21.98Q57.28 22.18 57.34 22.53L57.34 22.53Q57.41 22.85 57.22 23.12Q57.02 23.39 56.67 23.46L56.67 23.46ZM76.64 36.99L76.64 36.99Q76.32 37.02 76.06 36.82Q75.81 36.61 75.74 36.29L75.74 36.29Q75.71 35.94 75.92 35.68Q76.13 35.42 76.45 35.39L76.45 35.39Q77.98 35.20 80.19 35.01Q82.40 34.82 84.83 34.69L84.83 34.69L84.83 24.42L80.61 24.80Q80.29 24.83 80.03 24.61Q79.78 24.38 79.71 24.06L79.71 24.06Q79.68 23.71 79.90 23.46Q80.13 23.20 80.45 23.17L80.45 23.17L84.83 22.78L84.83 12.67Q84.83 12.32 85.07 12.10Q85.31 11.87 85.63 11.87L85.63 11.87Q85.98 11.87 86.22 12.10Q86.46 12.32 86.46 12.67L86.46 12.67L86.46 22.66L90.85 22.27Q91.20 22.24 91.44 22.45Q91.68 22.66 91.71 23.01L91.71 23.01Q91.74 23.33 91.54 23.58Q91.33 23.84 90.98 23.87L90.98 23.87L86.46 24.29L86.46 34.59Q88.67 34.50 90.83 34.45Q92.99 34.40 94.75 34.43L94.75 34.43Q95.10 34.43 95.33 34.67Q95.55 34.91 95.52 35.26L95.52 35.26Q95.52 35.58 95.30 35.82Q95.07 36.06 94.72 36.03L94.72 36.03Q92.77 36 90.30 36.06Q87.84 36.13 85.28 36.27Q82.72 36.42 80.45 36.61Q78.18 36.80 76.64 36.99ZM73.41 39.30L73.41 39.30Q73.09 39.30 72.85 39.06Q72.61 38.82 72.61 38.50L72.61 38.50L72.61 24.26Q70.94 26.11 69.23 27.70Q67.52 29.28 66.08 30.30L66.08 30.30Q65.82 30.50 65.49 30.43Q65.15 30.37 64.96 30.11L64.96 30.11Q64.77 29.86 64.83 29.52Q64.90 29.18 65.15 28.99L65.15 28.99Q66.62 27.94 68.42 26.26Q70.21 24.58 71.98 22.51Q73.76 20.45 75.17 18.30L75.17 18.30L68.35 19.78Q68.03 19.84 67.74 19.66Q67.46 19.49 67.39 19.17L67.39 19.17Q67.33 18.82 67.52 18.54Q67.71 18.27 68.03 18.21L68.03 18.21L76.67 16.35Q77.18 16.26 77.47 16.64L77.47 16.64Q77.79 17.06 77.54 17.54L77.54 17.54Q76.80 18.85 75.87 20.16Q74.94 21.47 73.92 22.72L73.92 22.72L78.50 24.77Q78.78 24.90 78.91 25.22Q79.04 25.54 78.88 25.82L78.88 25.82Q78.75 26.14 78.45 26.26Q78.14 26.37 77.82 26.24L77.82 26.24L74.24 24.64L74.24 38.50Q74.24 38.82 74 39.06Q73.76 39.30 73.41 39.30ZM74.34 15.10L74.34 15.10Q74.11 15.33 73.78 15.30Q73.44 15.26 73.22 15.01L73.22 15.01L70.85 12.19Q70.62 11.94 70.66 11.62Q70.69 11.30 70.94 11.07L70.94 11.07Q71.20 10.85 71.52 10.88Q71.84 10.91 72.06 11.17L72.06 11.17L74.43 13.98Q74.66 14.24 74.62 14.56Q74.59 14.88 74.34 15.10ZM97.54 28.86L97.54 28.86Q97.25 29.02 96.93 28.94Q96.61 28.86 96.45 28.58L96.45 28.58Q96.29 28.29 96.35 27.95Q96.42 27.62 96.70 27.46L96.70 27.46Q98.27 26.53 100 25.07Q101.73 23.62 103.41 21.82Q105.09 20.03 106.56 18.05Q108.03 16.06 109.12 14.02Q110.21 11.97 110.72 10.05L110.72 10.05Q110.82 9.70 111.10 9.54Q111.39 9.38 111.71 9.47L111.71 9.47Q112.06 9.57 112.22 9.84Q112.38 10.11 112.29 10.46L112.29 10.46Q112.16 10.91 112 11.38Q111.84 11.84 111.68 12.32L111.68 12.32Q111.87 12.58 112.62 13.52Q113.38 14.46 114.46 15.79Q115.55 17.12 116.82 18.53Q118.08 19.94 119.34 21.17Q120.61 22.40 121.70 23.17L121.70 23.17Q122.56 23.78 123.55 24.30Q124.54 24.83 125.44 25.23Q126.34 25.63 126.91 25.86Q127.49 26.08 127.49 26.08L127.49 26.08Q127.81 26.21 127.94 26.50Q128.06 26.78 127.97 27.10L127.97 27.10Q127.84 27.42 127.54 27.57Q127.23 27.71 126.91 27.58L126.91 27.58Q126.88 27.55 126.26 27.31Q125.63 27.07 124.70 26.66Q123.78 26.24 122.74 25.70Q121.70 25.15 120.77 24.48L120.77 24.48Q119.78 23.78 118.64 22.70Q117.50 21.63 116.37 20.40Q115.23 19.17 114.18 17.95Q113.12 16.74 112.29 15.70Q111.46 14.66 110.94 14.02L110.94 14.02Q109.86 16.22 108.29 18.43Q106.72 20.64 104.91 22.62Q103.10 24.61 101.20 26.21Q99.30 27.81 97.54 28.86ZM114.98 36.45L105.28 38.14Q105.02 38.18 104.77 38.05Q104.51 37.92 104.42 37.70L104.42 37.70Q104.29 37.44 104.34 37.17Q104.38 36.90 104.61 36.74L104.61 36.74Q105.70 35.84 106.72 34.64Q107.74 33.44 108.62 32.14Q109.50 30.85 110.11 29.70L110.11 29.70L104.19 30.43Q103.87 30.46 103.62 30.26Q103.36 30.05 103.30 29.73L103.30 29.73Q103.26 29.41 103.47 29.14Q103.68 28.86 104 28.83L104 28.83L118.18 27.07Q118.53 27.01 118.78 27.22Q119.04 27.42 119.07 27.78L119.07 27.78Q119.14 28.10 118.93 28.35Q118.72 28.61 118.37 28.67L118.37 28.67L112.03 29.47Q111.36 30.91 110.16 32.70Q108.96 34.50 107.55 36.10L107.55 36.10L114.69 34.85Q115.04 34.78 115.31 34.98Q115.58 35.17 115.65 35.52L115.65 35.52Q115.71 35.84 115.52 36.11Q115.33 36.38 114.98 36.45L114.98 36.45ZM120.16 39.36L120.16 39.36Q119.87 39.49 119.55 39.41Q119.23 39.33 119.07 39.01L119.07 39.01Q118.56 38.02 117.65 36.82Q116.74 35.62 115.79 34.58Q114.85 33.54 114.14 32.99L114.14 32.99Q113.89 32.77 113.86 32.43Q113.82 32.10 114.02 31.87L114.02 31.87Q114.24 31.62 114.58 31.57Q114.91 31.52 115.17 31.74L115.17 31.74Q116 32.42 117.04 33.57Q118.08 34.72 119.02 35.98Q119.97 37.25 120.51 38.27L120.51 38.27Q120.67 38.56 120.56 38.88Q120.45 39.20 120.16 39.36ZM115.20 23.68L107.74 24.67Q107.42 24.70 107.15 24.50Q106.88 24.29 106.82 23.97L106.82 23.97Q106.78 23.62 106.99 23.36Q107.20 23.10 107.52 23.07L107.52 23.07L115.01 22.08Q115.33 22.02 115.60 22.22Q115.87 22.43 115.90 22.78L115.90 22.78Q115.97 23.10 115.76 23.36Q115.55 23.62 115.20 23.68L115.20 23.68ZM146.53 36.83L146.53 36.83Q146.21 36.96 145.90 36.83Q145.60 36.70 145.47 36.38L145.47 36.38Q145.34 36.06 145.49 35.76Q145.63 35.46 145.92 35.33L145.92 35.33Q149.73 33.86 151.79 31.10Q153.86 28.35 153.86 24.80L153.86 24.80Q153.86 20.77 151.30 18.21L151.30 18.21Q150.02 16.93 148.29 16.22Q146.56 15.52 144.67 15.52L144.67 15.52Q142.21 15.52 140.06 16.67Q137.92 17.82 136.45 19.81Q134.98 21.79 134.53 24.32L134.53 24.32Q134.24 26.11 134.77 27.71Q135.30 29.31 136.37 30.54Q137.44 31.78 138.75 32.54L138.75 32.54Q139.68 30.88 140.59 28.83Q141.50 26.78 142.16 24.69Q142.82 22.59 142.91 20.83L142.91 20.83Q142.94 20.48 143.20 20.27Q143.46 20.06 143.78 20.06L143.78 20.06Q144.13 20.10 144.34 20.34Q144.54 20.58 144.51 20.93L144.51 20.93Q144.42 22.46 143.97 24.21Q143.52 25.95 142.82 27.71Q142.11 29.47 141.31 31.09Q140.51 32.70 139.74 34.02L139.74 34.02Q139.62 34.27 139.31 34.37Q139.01 34.46 138.72 34.34L138.72 34.34Q136.99 33.54 135.54 32.00Q134.08 30.46 133.33 28.42Q132.58 26.37 132.96 24.03L132.96 24.03Q133.31 21.86 134.38 20.02Q135.46 18.18 137.04 16.82Q138.62 15.46 140.58 14.69Q142.53 13.92 144.67 13.92L144.67 13.92Q146.88 13.92 148.91 14.74Q150.94 15.55 152.45 17.06L152.45 17.06Q155.49 20.10 155.49 24.80L155.49 24.80Q155.49 28.86 153.15 32.02Q150.82 35.17 146.53 36.83ZM171.68 38.43L171.68 38.43Q171.36 38.56 171.07 38.42Q170.78 38.27 170.66 37.95L170.66 37.95Q170.53 37.63 170.67 37.33Q170.82 37.02 171.14 36.93L171.14 36.93Q173.47 36.10 175.06 34.85Q176.64 33.60 177.57 32.18Q178.50 30.75 178.83 29.36Q179.17 27.97 179.01 26.82L179.01 26.82Q178.21 28.96 175.97 29.70L175.97 29.70Q174.69 30.11 173.57 29.94Q172.45 29.76 171.71 29.06L171.71 29.06Q171.10 28.45 170.93 27.58Q170.75 26.72 171.04 25.86L171.04 25.86Q171.49 24.58 172.72 23.70Q173.95 22.82 175.71 22.56L175.71 22.56Q176.86 22.37 177.92 22.78L177.92 22.78L177.92 19.07Q174.24 19.58 170.50 20.43Q166.75 21.28 163.81 22.30L163.81 22.30Q163.49 22.43 163.18 22.29Q162.88 22.14 162.78 21.82L162.78 21.82Q162.66 21.50 162.80 21.20Q162.94 20.90 163.26 20.80L163.26 20.80Q165.31 20.06 167.74 19.44Q170.18 18.82 172.78 18.30Q175.39 17.79 177.92 17.44L177.92 17.44L177.92 12.19Q177.92 11.84 178.16 11.62Q178.40 11.39 178.72 11.39L178.72 11.39Q179.07 11.39 179.30 11.62Q179.52 11.84 179.52 12.19L179.52 12.19L179.52 17.22Q182.14 16.86 184.46 16.70Q186.78 16.54 188.51 16.58L188.51 16.58Q188.86 16.58 189.09 16.82Q189.31 17.06 189.31 17.41L189.31 17.41Q189.31 17.73 188.91 17.97Q188.51 18.21 188.51 18.21L188.51 18.21Q186.75 18.14 184.43 18.32Q182.11 18.50 179.52 18.85L179.52 18.85L179.52 23.94Q179.84 24.35 180.10 24.83Q180.35 25.31 180.48 25.92L180.48 25.92Q180.83 27.26 180.54 28.98Q180.26 30.69 179.25 32.48Q178.24 34.27 176.38 35.84Q174.53 37.41 171.68 38.43ZM175.49 28.16L175.49 28.16Q177.63 27.46 177.86 24.58L177.86 24.58Q177.54 24.32 177.07 24.19Q176.61 24.06 175.97 24.16L175.97 24.16Q174.66 24.35 173.76 24.94Q172.86 25.54 172.58 26.37L172.58 26.37Q172.26 27.30 172.86 27.90L172.86 27.90Q173.25 28.32 173.94 28.37Q174.62 28.42 175.49 28.16ZM220.13 33.18L220.13 33.18Q218.50 32.13 216.56 30.58Q214.62 29.02 212.74 27.26Q210.85 25.50 209.25 23.79Q207.65 22.08 206.62 20.67L206.62 20.67Q205.98 19.87 205.44 19.87L205.44 19.87Q204.90 19.87 204.38 20.67L204.38 20.67Q203.87 21.44 203.01 22.66Q202.14 23.87 201.10 25.22Q200.06 26.56 198.96 27.78Q197.86 28.99 196.83 29.76L196.83 29.76Q196.58 29.95 196.24 29.90Q195.90 29.86 195.68 29.60L195.68 29.60Q195.49 29.31 195.54 28.99Q195.58 28.67 195.84 28.45L195.84 28.45Q196.80 27.71 197.90 26.51Q199.01 25.31 200.03 23.97Q201.06 22.62 201.86 21.49Q202.66 20.35 203.04 19.78L203.04 19.78Q204.03 18.27 205.41 18.27L205.41 18.27Q205.89 18.24 206.56 18.53Q207.23 18.82 207.90 19.74L207.90 19.74Q208.86 21.06 210.43 22.72Q212 24.38 213.86 26.10Q215.71 27.81 217.57 29.30Q219.42 30.78 220.99 31.81L220.99 31.81Q221.28 32.00 221.34 32.32Q221.41 32.64 221.25 32.93L221.25 32.93Q221.06 33.22 220.72 33.28Q220.38 33.34 220.13 33.18ZM220.38 19.81L220.38 19.81Q220.16 20.00 219.89 19.98Q219.62 19.97 219.39 19.78L219.39 19.78L214.85 14.98Q214.66 14.78 214.66 14.50Q214.66 14.21 214.88 14.02L214.88 14.02Q215.10 13.82 215.38 13.82Q215.65 13.82 215.84 14.05L215.84 14.05L220.42 18.82Q220.61 19.04 220.59 19.33Q220.58 19.62 220.38 19.81ZM217.70 22.24L217.70 22.24Q217.50 22.43 217.22 22.42Q216.93 22.40 216.74 22.21L216.74 22.21L212.19 17.41Q212 17.22 212 16.93Q212 16.64 212.22 16.45L212.22 16.45Q212.42 16.26 212.70 16.26Q212.99 16.26 213.18 16.48L213.18 16.48L217.73 21.25Q218.18 21.76 217.70 22.24ZM248.96 36.54L248.96 36.54Q246.34 36.80 244.21 36.24Q242.08 35.68 240.64 34.40L240.64 34.40Q238.08 32.10 238.08 27.90L238.08 27.90Q238.08 25.18 239.15 22.58Q240.22 19.97 241.76 18.08L241.76 18.08Q239.68 18.72 237.50 19.28Q235.33 19.84 233.28 20.24Q231.23 20.64 229.50 20.83L229.50 20.83Q229.18 20.86 228.93 20.64Q228.67 20.42 228.64 20.10L228.64 20.10Q228.61 19.74 228.82 19.49Q229.02 19.23 229.34 19.20L229.34 19.20Q231.49 18.98 234.11 18.42Q236.74 17.86 239.44 17.07Q242.14 16.29 244.53 15.39Q246.91 14.50 248.54 13.63L248.54 13.63Q248.83 13.47 249.17 13.57Q249.50 13.66 249.63 13.95L249.63 13.95Q249.79 14.24 249.70 14.56Q249.60 14.88 249.31 15.04L249.31 15.04Q248.48 15.49 247.41 15.97Q246.34 16.45 245.12 16.90L245.12 16.90Q244.19 17.38 243.25 18.53Q242.30 19.68 241.50 21.25Q240.70 22.82 240.21 24.54Q239.71 26.27 239.71 27.90L239.71 27.90Q239.71 31.39 241.70 33.18L241.70 33.18Q244.13 35.39 248.80 34.94L248.80 34.94Q249.15 34.91 249.41 35.12Q249.66 35.33 249.70 35.68L249.70 35.68Q249.73 36 249.52 36.26Q249.31 36.51 248.96 36.54ZM294.43 38.11L294.43 38.11Q294.11 38.18 293.82 38Q293.54 37.82 293.47 37.50L293.47 37.50Q293.41 37.15 293.58 36.88Q293.76 36.61 294.08 36.54L294.08 36.54Q296.32 36.03 298.03 34.74Q299.74 33.44 300.48 31.71L300.48 31.71Q301.50 29.15 300.10 26.88L300.10 26.88Q299.36 25.73 297.81 25.02Q296.26 24.32 294.21 24.19L294.21 24.19Q293.41 26.02 292.37 27.68Q291.33 29.34 290.18 30.78L290.18 30.78Q290.37 31.39 290.58 31.92Q290.78 32.45 290.98 32.90L290.98 32.90Q291.14 33.22 291.01 33.52Q290.88 33.82 290.56 33.98L290.56 33.98Q290.27 34.11 289.97 34Q289.66 33.89 289.50 33.57L289.50 33.57Q289.38 33.25 289.25 32.91Q289.12 32.58 288.96 32.22L288.96 32.22Q287.04 34.40 285.15 35.78L285.15 35.78Q284.16 36.48 283.15 36.58Q282.14 36.67 281.41 36.16L281.41 36.16Q280.54 35.58 280.30 34.42Q280.06 33.25 280.48 31.74L280.48 31.74Q281.09 29.47 282.88 27.33Q284.67 25.18 287.39 23.90L287.39 23.90L287.39 23.68Q287.36 22.56 287.42 21.25Q287.49 19.94 287.62 18.56L287.62 18.56L280.29 19.68Q279.97 19.71 279.71 19.52Q279.46 19.33 279.39 19.01L279.39 19.01Q279.36 18.66 279.55 18.38Q279.74 18.11 280.06 18.08L280.06 18.08L287.78 16.93Q287.87 16.26 288.02 15.42Q288.16 14.59 288.30 13.82Q288.45 13.06 288.56 12.54Q288.67 12.03 288.67 12.03L288.67 12.03Q288.77 11.71 289.06 11.55Q289.34 11.39 289.66 11.49L289.66 11.49Q289.98 11.58 290.14 11.87Q290.30 12.16 290.21 12.48L290.21 12.48Q289.98 13.38 289.79 14.46Q289.60 15.55 289.44 16.67L289.44 16.67L300.48 15.01Q300.83 14.94 301.10 15.14Q301.38 15.33 301.41 15.68L301.41 15.68Q301.47 16.00 301.28 16.27Q301.09 16.54 300.74 16.61L300.74 16.61L289.25 18.34Q289.12 19.62 289.07 20.90Q289.02 22.18 289.02 23.26L289.02 23.26Q289.98 22.94 291.02 22.77Q292.06 22.59 293.15 22.56L293.15 22.56Q293.31 22.21 293.42 21.86Q293.54 21.50 293.66 21.18L293.66 21.18Q293.76 20.86 294.06 20.70Q294.37 20.54 294.69 20.67L294.69 20.67Q295.01 20.77 295.15 21.06Q295.30 21.34 295.20 21.66L295.20 21.66Q295.14 21.89 295.04 22.13Q294.94 22.37 294.85 22.62L294.85 22.62Q297.12 22.85 298.83 23.73Q300.54 24.61 301.44 26.02L301.44 26.02Q302.37 27.46 302.50 29.09Q302.62 30.72 301.95 32.32L301.95 32.32Q301.06 34.46 299.07 36Q297.09 37.54 294.43 38.11ZM282.30 34.85L282.30 34.85Q283.01 35.33 284.19 34.46L284.19 34.46Q285.22 33.73 286.27 32.70Q287.33 31.68 288.38 30.46L288.38 30.46Q288.06 29.44 287.84 28.24Q287.62 27.04 287.49 25.70L287.49 25.70Q285.38 26.85 283.95 28.59Q282.53 30.34 282.02 32.16L282.02 32.16Q281.70 33.31 281.86 33.97Q282.02 34.62 282.30 34.85ZM289.63 28.86L289.63 28.86Q290.40 27.81 291.12 26.64Q291.84 25.47 292.45 24.22L292.45 24.22Q291.55 24.29 290.70 24.48Q289.86 24.67 289.06 24.96L289.06 24.96Q289.12 26.05 289.26 27.01Q289.41 27.97 289.63 28.86ZM326.34 35.26L326.34 35.26Q325.89 35.26 325.63 34.91L325.63 34.91Q322.05 29.98 321.02 17.22L321.02 17.22Q320.99 16.86 321.22 16.62Q321.44 16.38 321.76 16.35L321.76 16.35Q322.11 16.32 322.35 16.53Q322.59 16.74 322.62 17.09L322.62 17.09Q323.49 27.90 326.24 32.86L326.24 32.86L329.54 26.72Q329.70 26.43 330.02 26.34Q330.34 26.24 330.62 26.40L330.62 26.40Q330.94 26.56 331.02 26.88Q331.10 27.20 330.94 27.49L330.94 27.49L326.98 34.82Q326.78 35.20 326.34 35.26ZM342.40 28.48L342.40 28.48Q342.08 28.58 341.79 28.42Q341.50 28.26 341.41 27.94L341.41 27.94Q340.96 26.30 339.90 24.82Q338.85 23.33 337.65 22.19Q336.45 21.06 335.55 20.48L335.55 20.48Q335.30 20.29 335.23 19.97Q335.17 19.65 335.33 19.36L335.33 19.36Q335.52 19.07 335.84 19.01Q336.16 18.94 336.45 19.14L336.45 19.14Q337.22 19.62 338.18 20.46Q339.14 21.31 340.08 22.42Q341.02 23.52 341.79 24.82Q342.56 26.11 342.94 27.49L342.94 27.49Q343.04 27.81 342.88 28.10Q342.72 28.38 342.40 28.48ZM370.66 38.59L370.66 38.59Q370.40 38.78 370.06 38.72Q369.73 38.66 369.54 38.37L369.54 38.37Q369.34 38.11 369.41 37.78Q369.47 37.44 369.73 37.25L369.73 37.25Q371.74 35.87 373.26 33.86Q374.78 31.84 375.65 29.58Q376.51 27.33 376.45 25.22L376.45 25.22Q376.42 23.78 375.87 22.86Q375.33 21.95 374.51 21.52Q373.70 21.09 372.80 21.09L372.80 21.09Q371.71 21.09 370.82 21.63Q369.92 22.18 369.31 22.96Q368.70 23.74 368.45 24.45L368.45 24.45Q368.32 24.77 368.03 24.91Q367.74 25.06 367.42 24.96L367.42 24.96Q367.10 24.83 366.94 24.54Q366.78 24.26 366.91 23.94L366.91 23.94Q367.30 22.85 368.14 21.82Q368.99 20.80 370.19 20.13Q371.39 19.46 372.80 19.46L372.80 19.46Q374.05 19.46 375.23 20.06Q376.42 20.67 377.22 21.94Q378.02 23.20 378.05 25.15L378.05 25.15Q378.11 27.55 377.20 30.06Q376.29 32.58 374.59 34.80Q372.90 37.02 370.66 38.59ZM379.33 15.94L379.33 15.94Q376.90 16.38 374.30 16.16Q371.71 15.94 369.44 15.09Q367.17 14.24 365.70 12.93L365.70 12.93Q365.47 12.67 365.46 12.34Q365.44 12.00 365.66 11.78L365.66 11.78Q365.89 11.52 366.22 11.50Q366.56 11.49 366.78 11.71L366.78 11.71Q368.06 12.86 370.11 13.62Q372.16 14.37 374.51 14.58Q376.86 14.78 379.01 14.37L379.01 14.37Q379.36 14.30 379.63 14.48Q379.90 14.66 379.97 15.01L379.97 15.01Q380.03 15.33 379.84 15.60Q379.65 15.87 379.33 15.94ZM416.19 36.99L416.19 36.99Q414.27 36.61 413.41 35.30L413.41 35.30Q412.42 33.70 413.02 30.91L413.02 30.91Q413.12 30.50 413.12 29.89Q413.12 29.28 412.61 29.06L412.61 29.06Q412.03 28.74 411.38 28.91Q410.72 29.09 410.11 29.82L410.11 29.82Q408.35 32.00 406.82 33.87Q405.28 35.74 404.45 36.67L404.45 36.67Q404.22 36.93 403.90 36.96Q403.58 36.99 403.33 36.77L403.33 36.77Q403.07 36.51 403.04 36.19Q403.01 35.87 403.23 35.62L403.23 35.62Q403.87 34.88 404.93 33.62Q405.98 32.35 407.28 30.77Q408.58 29.18 409.94 27.49Q411.30 25.79 412.56 24.21Q413.82 22.62 414.78 21.34L414.78 21.34Q413.41 21.63 411.66 21.98Q409.92 22.34 408.38 22.66L408.38 22.66L406.69 22.98Q406.37 23.04 406.08 22.86Q405.79 22.69 405.73 22.37L405.73 22.37Q405.66 22.02 405.86 21.74Q406.05 21.47 406.37 21.41L406.37 21.41L408.06 21.06Q409.22 20.83 410.50 20.58Q411.78 20.32 412.99 20.08Q414.21 19.84 415.14 19.63Q416.06 19.42 416.51 19.33L416.51 19.33Q417.02 19.17 417.38 19.65L417.38 19.65Q417.70 20.13 417.34 20.58L417.34 20.58Q416.58 21.66 415.14 23.54Q413.70 25.41 412.00 27.49L412.00 27.49Q412.83 27.42 413.38 27.74L413.38 27.74Q413.66 27.87 414.06 28.26Q414.46 28.64 414.67 29.36Q414.88 30.08 414.59 31.30L414.59 31.30Q414.11 33.38 414.75 34.40L414.75 34.40Q415.30 35.20 416.51 35.42L416.51 35.42Q419.42 36 423.39 34.43L423.39 34.43Q423.71 34.30 424.00 34.43Q424.29 34.56 424.42 34.88L424.42 34.88Q424.58 35.20 424.43 35.50Q424.29 35.81 423.97 35.94L423.97 35.94Q421.79 36.80 419.84 37.07Q417.89 37.34 416.19 36.99ZM417.09 16.32L417.09 16.32Q411.46 16.32 408.45 13.38L408.45 13.38Q408.22 13.12 408.22 12.80Q408.22 12.48 408.45 12.26L408.45 12.26Q408.70 12.00 409.02 12.00Q409.34 12.00 409.57 12.22L409.57 12.22Q412.13 14.72 417.09 14.72L417.09 14.72Q417.44 14.72 417.66 14.94Q417.89 15.17 417.89 15.52L417.89 15.52Q417.89 15.84 417.66 16.08Q417.44 16.32 417.09 16.32ZM449.44 36.96L449.44 36.96L442.85 33.89Q442.50 33.70 442.40 33.31L442.40 33.31Q442.30 32.96 442.59 32.61L442.59 32.61Q443.39 31.68 445.02 30.14Q446.66 28.61 448.99 27.20L448.99 27.20L448.99 20.03L441.09 21.44Q440.77 21.50 440.50 21.31Q440.22 21.12 440.16 20.80L440.16 20.80Q440.13 20.45 440.30 20.18Q440.48 19.90 440.80 19.87L440.80 19.87L448.99 18.40L448.99 13.57Q448.99 13.22 449.23 12.99Q449.47 12.77 449.79 12.77L449.79 12.77Q450.14 12.77 450.37 12.99Q450.59 13.22 450.59 13.57L450.59 13.57L450.59 18.08L456.64 16.99Q456.96 16.93 457.23 17.12Q457.50 17.31 457.57 17.66L457.57 17.66Q457.63 17.98 457.44 18.26Q457.25 18.53 456.93 18.59L456.93 18.59L450.59 19.74L450.59 26.30Q451.65 25.79 452.80 25.36Q453.95 24.93 455.20 24.67L455.20 24.67Q457.89 24.10 460.16 24.43Q462.43 24.77 463.90 25.98L463.90 25.98Q465.76 27.49 465.76 29.73L465.76 29.73Q465.76 32.06 464.37 33.47Q462.98 34.88 460.61 35.04L460.61 35.04Q458.56 35.17 457.02 34.16Q455.49 33.15 454.75 31.20L454.75 31.20Q454.66 30.88 454.78 30.59Q454.91 30.30 455.23 30.18L455.23 30.18Q455.55 30.05 455.86 30.19Q456.16 30.34 456.29 30.66L456.29 30.66Q457.38 33.60 460.51 33.44L460.51 33.44Q462.27 33.31 463.20 32.35Q464.13 31.39 464.13 29.73L464.13 29.73Q464.13 28.22 462.88 27.23L462.88 27.23Q461.70 26.27 459.78 26.02Q457.86 25.76 455.52 26.27L455.52 26.27Q454.18 26.56 452.94 27.04Q451.71 27.52 450.59 28.13L450.59 28.13L450.59 36.22Q450.59 36.67 450.21 36.93L450.21 36.93Q449.82 37.15 449.44 36.96ZM465.60 23.01L465.60 23.01Q465.38 23.23 464.93 23.09Q464.48 22.94 464.48 22.94L464.48 22.94Q463.74 22.08 462.78 20.74Q461.82 19.39 460.91 17.89Q460.00 16.38 459.39 15.04L459.39 15.04Q459.26 14.75 459.38 14.43Q459.49 14.11 459.78 13.98L459.78 13.98Q460.10 13.82 460.42 13.95Q460.74 14.08 460.86 14.40L460.86 14.40Q461.44 15.62 462.29 17.04Q463.14 18.46 464.05 19.76Q464.96 21.06 465.66 21.86L465.66 21.86Q465.92 22.11 465.89 22.45Q465.86 22.78 465.60 23.01ZM444.51 32.90L448.99 34.98L448.99 29.12Q447.52 30.08 446.40 31.07Q445.28 32.06 444.51 32.90L444.51 32.90Z"/></svg>