<svg xmlns="http://www.w3.org/2000/svg" xmlns:xlink="http://www.w3.org/1999/xlink" width="483.8399999999999" height="46.336"><path fill="black" stroke="none" d="M1.82 39.14L1.82 39.14Q1.63 39.07 1.55 38.90Q1.47 38.72 1.54 38.56L1.54 38.56Q5.89 35.97 8.82 32.48Q11.74 28.99 13.23 24.32Q14.72 19.65 14.72 13.57L14.72 13.57Q14.72 12.96 14.66 12.62Q14.59 12.29 14.53 12.10L14.53 12.10Q14.43 11.84 14.50 11.74L14.50 11.74Q14.53 11.58 14.82 11.65L14.82 11.65Q15.14 11.71 15.86 11.89Q16.58 12.06 17.33 12.24Q18.08 12.42 18.50 12.54L18.50 12.54Q18.82 12.64 18.75 13.06L18.75 13.06Q18.72 13.47 18.40 13.47L18.40 13.47Q17.54 13.50 17.18 13.65Q16.83 13.79 16.83 14.18L16.83 14.18Q16.83 18.56 17.70 21.87Q18.56 25.18 19.97 27.57Q21.38 29.95 23.04 31.55Q24.70 33.15 26.30 34.13Q27.90 35.10 29.17 35.60Q30.43 36.10 31.01 36.29L31.01 36.29Q30.02 36.61 29.14 37.22Q28.26 37.82 27.87 38.40L27.87 38.40Q27.17 38.05 25.94 37.25Q24.70 36.45 23.26 35.10Q21.82 33.76 20.40 31.73Q18.98 29.70 17.89 26.86Q16.80 24.03 16.32 20.29L16.32 20.29Q15.17 27.20 11.55 31.81Q7.94 36.42 1.82 39.14ZM49.79 33.54L49.79 33.54Q49.41 33.54 49.28 33.41Q49.15 33.28 49.15 32.99L49.15 32.99Q49.15 32.86 49.18 31.70Q49.22 30.53 49.25 28.62Q49.28 26.72 49.31 24.29Q49.34 21.86 49.34 19.20L49.34 19.20Q49.34 18.05 49.25 17.33Q49.15 16.61 48.99 16.13L48.99 16.13Q48.93 15.87 49.06 15.81L49.06 15.81Q49.22 15.65 49.41 15.78L49.41 15.78Q49.76 15.94 50.43 16.34Q51.10 16.74 51.52 17.02L51.52 17.02L53.12 17.02L53.57 13.22L49.76 13.22Q49.76 13.22 49.23 13.23Q48.70 13.25 48.06 13.38L48.06 13.38L47.78 12.00Q48.61 12.19 49.18 12.22Q49.76 12.26 49.76 12.26L49.76 12.26L58.50 12.26Q58.72 12.26 58.85 12.13L58.85 12.13Q58.94 12.03 59.22 11.74Q59.49 11.46 59.78 11.17Q60.06 10.88 60.13 10.82L60.13 10.82Q60.42 10.53 60.70 10.78L60.70 10.78Q60.86 10.91 61.20 11.25Q61.54 11.58 61.86 11.90Q62.18 12.22 62.34 12.38L62.34 12.38Q62.59 12.67 62.53 12.94Q62.46 13.22 62.11 13.22L62.11 13.22L56 13.22L54.14 17.02L57.95 17.02Q58.18 17.02 58.30 16.86L58.30 16.86Q58.53 16.61 58.75 16.32Q58.98 16.03 59.17 15.81L59.17 15.81Q59.42 15.52 59.81 15.81L59.81 15.81Q60.03 15.97 60.42 16.27Q60.80 16.58 61.17 16.88Q61.54 17.18 61.70 17.34L61.70 17.34Q62.14 17.73 61.63 17.95L61.63 17.95Q61.38 18.08 61.15 18.18Q60.93 18.27 60.70 18.40L60.70 18.40Q60.58 18.46 60.51 18.56Q60.45 18.66 60.45 18.98L60.45 18.98Q60.45 21.41 60.48 23.73Q60.51 26.05 60.58 27.94Q60.64 29.82 60.67 31.02Q60.70 32.22 60.70 32.42L60.70 32.42Q60.70 32.64 60.27 32.93Q59.84 33.22 59.17 33.22L59.17 33.22Q58.59 33.22 58.59 32.77L58.59 32.77L58.59 32.06L51.20 32.06L51.20 32.80Q51.20 33.06 50.70 33.30Q50.21 33.54 49.79 33.54ZM33.47 26.69L33.47 26.69Q32.96 26.62 33.09 26.18L33.09 26.18Q33.95 25.38 34.93 24.11Q35.90 22.85 36.80 21.34Q37.70 19.84 38.24 18.43L38.24 18.43L35.39 18.43Q35.39 18.43 34.86 18.45Q34.34 18.46 33.70 18.59L33.70 18.59L33.41 17.22Q34.21 17.41 34.80 17.44Q35.39 17.47 35.39 17.47L35.39 17.47L39.52 17.47L39.52 12.42Q39.52 11.26 39.26 10.91L39.26 10.91Q39.17 10.75 39.26 10.56L39.26 10.56Q39.42 10.46 39.58 10.50L39.58 10.50Q40.10 10.59 40.94 10.78Q41.79 10.98 42.30 11.14L42.30 11.14Q42.56 11.23 42.56 11.52L42.56 11.52Q42.53 11.81 42.21 11.87L42.21 11.87Q41.86 11.90 41.52 12.00Q41.18 12.10 41.18 12.58L41.18 12.58L41.18 17.47L44.26 17.47Q44.45 17.47 44.61 17.31L44.61 17.31Q44.77 17.15 45.10 16.77Q45.44 16.38 45.57 16.26L45.57 16.26Q45.86 15.94 46.18 16.22L46.18 16.22Q46.34 16.35 46.64 16.62Q46.94 16.90 47.26 17.18Q47.58 17.47 47.71 17.60L47.71 17.60Q48 17.86 47.92 18.14Q47.84 18.43 47.55 18.43L47.55 18.43L41.18 18.43L41.18 19.65Q41.92 19.84 42.88 20.21Q43.84 20.58 44.72 21.02Q45.60 21.47 46.02 21.98L46.02 21.98Q46.62 22.69 46.58 23.34Q46.53 24.00 46.18 24.35L46.18 24.35Q45.63 24.86 45.06 24.06L45.06 24.06Q44.48 23.20 43.46 22.19Q42.43 21.18 41.18 20.45L41.18 20.45Q41.22 21.25 41.26 22.10Q41.31 22.94 41.36 23.58Q41.41 24.22 41.41 24.45L41.41 24.45Q41.41 24.74 41.04 24.99Q40.67 25.25 40 25.25L40 25.25Q39.33 25.25 39.33 24.80L39.33 24.80Q39.33 24.61 39.38 23.87Q39.42 23.14 39.47 22.13Q39.52 21.12 39.52 20.10L39.52 20.10L39.52 19.78Q38.30 21.89 36.64 23.76Q34.98 25.63 33.47 26.69ZM33.60 39.42L33.60 39.42Q33.12 39.23 33.34 38.82L33.34 38.82Q36.42 37.44 37.78 35.42Q39.14 33.41 39.42 30.72L39.42 30.72L35.39 30.72Q35.39 30.72 34.86 30.74Q34.34 30.75 33.70 30.91L33.70 30.91L33.44 29.50Q34.24 29.70 34.82 29.73Q35.39 29.76 35.39 29.76L35.39 29.76L39.49 29.76Q39.49 29.54 39.50 29.33Q39.52 29.12 39.52 28.90L39.52 28.90Q39.52 27.49 39.42 26.96Q39.33 26.43 39.17 26.11L39.17 26.11Q39.04 25.89 39.17 25.76L39.17 25.76Q39.26 25.63 39.49 25.66L39.49 25.66Q40.10 25.79 40.98 25.98Q41.86 26.18 42.46 26.34L42.46 26.34Q42.78 26.43 42.72 26.72L42.72 26.72Q42.66 27.07 42.37 27.07L42.37 27.07Q41.95 27.07 41.79 27.25Q41.63 27.42 41.63 27.84L41.63 27.84Q41.63 28.83 41.54 29.76L41.54 29.76L43.84 29.76Q44.06 29.76 44.19 29.63L44.19 29.63L45.28 28.54Q45.50 28.26 45.89 28.51L45.89 28.51Q46.21 28.74 46.77 29.18Q47.33 29.63 47.65 29.89L47.65 29.89Q47.90 30.14 47.84 30.43Q47.78 30.72 47.49 30.72L47.49 30.72L41.41 30.72Q41.38 31.04 41.30 31.34Q41.22 31.65 41.15 31.97L41.15 31.97Q42.62 32.19 44 32.64Q45.38 33.09 46.14 33.82L46.14 33.82Q46.78 34.43 46.70 35.22Q46.62 36 46.21 36.26L46.21 36.26Q45.92 36.42 45.68 36.34Q45.44 36.26 44.99 35.74L44.99 35.74Q44.19 34.82 43.31 34.06Q42.43 33.31 40.96 32.70L40.96 32.70Q40.32 34.78 39.15 36.11Q37.98 37.44 36.54 38.21Q35.10 38.98 33.60 39.42ZM51.20 27.26L51.20 31.10L58.59 31.10L58.59 27.26L51.20 27.26ZM51.20 22.62L51.20 26.30L58.59 26.30L58.59 22.62L51.20 22.62ZM51.20 17.98L51.20 21.66L58.59 21.66L58.59 17.98L51.20 17.98ZM43.14 39.42L43.14 39.42Q42.69 39.26 42.91 38.82L42.91 38.82Q44.48 38.21 46.19 37.30Q47.90 36.38 49.33 35.39Q50.75 34.40 51.42 33.57L51.42 33.57Q51.78 33.12 51.81 32.83Q51.84 32.54 52 32.45L52 32.45Q52.13 32.35 52.32 32.51L52.32 32.51Q52.74 32.80 53.47 33.38Q54.21 33.95 54.62 34.30L54.62 34.30Q54.85 34.53 54.69 34.78L54.69 34.78Q54.56 35.04 54.24 34.94L54.24 34.94Q53.86 34.78 53.63 34.78Q53.41 34.78 53.06 35.04L53.06 35.04Q51.74 35.94 49.94 36.82Q48.13 37.70 46.32 38.38Q44.51 39.07 43.14 39.42ZM61.79 38.91L61.79 38.91Q61.47 39.07 61.20 38.96Q60.93 38.85 60.64 38.34L60.64 38.34Q60.16 37.41 59.33 36.43Q58.50 35.46 57.58 34.59Q56.67 33.73 55.84 33.22L55.84 33.22Q55.74 32.77 56.19 32.64L56.19 32.64Q57.25 33.02 58.42 33.62Q59.58 34.21 60.58 34.91Q61.57 35.62 62.02 36.29L62.02 36.29Q62.56 37.06 62.42 37.86Q62.27 38.66 61.79 38.91ZM42.05 17.15L42.05 17.15Q41.57 17.25 41.50 16.80L41.50 16.80Q41.89 16.32 42.37 15.52Q42.85 14.72 43.30 13.81Q43.74 12.90 43.97 12.10L43.97 12.10Q44.13 11.55 44.08 11.30Q44.03 11.04 44.19 10.91L44.19 10.91Q44.29 10.85 44.51 10.94L44.51 10.94Q44.99 11.23 45.76 11.71Q46.53 12.19 46.98 12.51L46.98 12.51Q47.20 12.70 47.10 12.96L47.10 12.96Q47.01 13.28 46.66 13.15L46.66 13.15Q46.34 13.06 46.11 13.09Q45.89 13.12 45.63 13.44L45.63 13.44Q45.15 14.08 44.46 14.82Q43.78 15.55 43.12 16.18Q42.46 16.80 42.05 17.15ZM37.73 16.93L37.73 16.93Q37.34 17.06 37.10 16.91Q36.86 16.77 36.70 16.26L36.70 16.26Q36.29 15.01 35.62 13.87Q34.94 12.74 34.08 11.81L34.08 11.81Q34.02 11.36 34.50 11.30L34.50 11.30Q35.68 11.94 36.80 12.82Q37.92 13.70 38.24 14.69L38.24 14.69Q38.53 15.49 38.30 16.13Q38.08 16.77 37.73 16.93ZM75.39 38.24L75.39 38.24L75.14 36.86Q75.94 37.06 76.51 37.09Q77.09 37.12 77.09 37.12L77.09 37.12L83.71 37.12L83.71 22.24L78.94 22.24Q78.94 22.24 78.42 22.26Q77.89 22.27 77.25 22.40L77.25 22.40L76.99 20.99Q77.79 21.18 78.37 21.22Q78.94 21.25 78.94 21.25L78.94 21.25L83.71 21.25L83.71 14.75Q83.71 12.93 83.62 12.08Q83.52 11.23 83.30 10.91L83.30 10.91Q83.17 10.72 83.30 10.59L83.30 10.59Q83.42 10.46 83.62 10.50L83.62 10.50Q83.97 10.56 84.61 10.70Q85.25 10.85 85.92 11.01Q86.59 11.17 86.94 11.26L86.94 11.26Q87.20 11.36 87.20 11.65L87.20 11.65Q87.17 11.97 86.85 11.97L86.85 11.97Q86.50 12.00 86.16 12.11Q85.82 12.22 85.82 12.70L85.82 12.70L85.82 21.25L89.82 21.25Q90.05 21.25 90.18 21.12L90.18 21.12Q90.34 20.96 90.78 20.45Q91.23 19.94 91.39 19.74L91.39 19.74Q91.65 19.49 91.97 19.71L91.97 19.71Q92.32 19.94 92.91 20.50Q93.50 21.06 93.82 21.38L93.82 21.38Q94.08 21.66 94.02 21.95Q93.95 22.24 93.60 22.24L93.60 22.24L85.82 22.24L85.82 37.12L90.21 37.12Q90.53 37.12 90.69 36.93L90.69 36.93Q90.85 36.67 91.26 36.18Q91.68 35.68 91.84 35.46L91.84 35.46Q92.06 35.17 92.45 35.42L92.45 35.42Q92.70 35.58 93.12 35.95Q93.54 36.32 93.97 36.69Q94.40 37.06 94.59 37.25L94.59 37.25Q94.85 37.50 94.78 37.79Q94.72 38.08 94.43 38.08L94.43 38.08L77.09 38.08Q77.09 38.08 76.56 38.10Q76.03 38.11 75.39 38.24ZM71.07 39.42L71.07 39.42Q70.37 39.42 70.37 38.88L70.37 38.88Q70.37 38.72 70.40 37.71Q70.43 36.70 70.50 35.25Q70.56 33.79 70.59 32.34Q70.62 30.88 70.62 29.82L70.62 29.82L70.62 26.78Q69.34 28.06 68 29.25Q66.66 30.43 65.31 31.39L65.31 31.39Q64.83 31.33 64.90 30.88L64.90 30.88Q66.21 29.66 67.68 28.08Q69.15 26.50 70.58 24.72Q72 22.94 73.12 21.12Q74.24 19.30 74.82 17.63L74.82 17.63L67.74 17.63Q67.74 17.63 67.22 17.65Q66.69 17.66 66.02 17.79L66.02 17.79L65.76 16.42Q66.56 16.61 67.14 16.64Q67.71 16.67 67.71 16.67L67.71 16.67L70.62 16.67L70.62 12.42Q70.62 11.23 70.40 10.91L70.40 10.91Q70.27 10.72 70.40 10.56L70.40 10.56Q70.50 10.46 70.72 10.50L70.72 10.50Q71.07 10.56 71.63 10.69Q72.19 10.82 72.75 10.94Q73.31 11.07 73.66 11.17L73.66 11.17Q73.92 11.20 73.92 11.55L73.92 11.55Q73.89 11.87 73.57 11.87L73.57 11.87Q73.25 11.90 72.90 12.02Q72.54 12.13 72.54 12.61L72.54 12.61L72.54 16.67L74.72 16.67Q74.94 16.67 75.04 16.58L75.04 16.58Q75.23 16.42 75.49 16.18Q75.74 15.94 75.97 15.71L75.97 15.71Q76.16 15.52 76.48 15.74L76.48 15.74Q76.83 16.00 77.44 16.50Q78.05 16.99 78.40 17.28L78.40 17.28Q78.59 17.44 78.53 17.70Q78.46 17.95 78.21 18.02L78.21 18.02Q78.02 18.05 77.74 18.10Q77.47 18.14 77.31 18.21L77.31 18.21Q76.93 18.30 76.58 18.94L76.58 18.94Q75.97 20.10 75.15 21.31Q74.34 22.53 73.34 23.74L73.34 23.74Q74.27 23.97 75.31 24.40Q76.35 24.83 77.22 25.44Q78.08 26.05 78.50 26.85L78.50 26.85Q78.94 27.65 78.70 28.40Q78.46 29.15 77.92 29.34L77.92 29.34Q77.60 29.44 77.36 29.28Q77.12 29.12 76.80 28.58L76.80 28.58Q76.19 27.49 75.06 26.30Q73.92 25.12 72.80 24.42L72.80 24.42L72.54 24.70L72.54 29.82Q72.54 30.98 72.58 32.42Q72.61 33.86 72.62 35.20Q72.64 36.54 72.67 37.49Q72.70 38.43 72.70 38.62L72.70 38.62Q72.70 38.88 72.21 39.15Q71.71 39.42 71.07 39.42ZM102.62 39.71L102.62 39.71Q102.37 39.81 102.18 39.55L102.18 39.55Q102.05 39.30 101.70 38.64Q101.34 37.98 100.99 37.31Q100.64 36.64 100.45 36.29L100.45 36.29Q100.35 36.06 100.48 35.97L100.48 35.97Q100.61 35.87 101.18 35.94L101.18 35.94Q101.47 36 101.84 36.03Q102.21 36.06 102.69 36.06L102.69 36.06Q103.26 36.06 103.94 36.05Q104.61 36.03 105.34 36L105.34 36Q105.79 35.14 106.34 33.82Q106.88 32.51 107.41 31.10Q107.94 29.70 108.22 28.58L108.22 28.58L100.61 28.58Q100.61 28.58 100.08 28.59Q99.55 28.61 98.91 28.77L98.91 28.77L98.62 27.36Q99.42 27.55 100.02 27.58Q100.61 27.62 100.61 27.62L100.61 27.62L120.19 27.62Q120.35 27.62 120.45 27.58Q120.54 27.55 120.64 27.42L120.64 27.42Q120.74 27.30 120.99 26.99Q121.25 26.69 121.49 26.37Q121.73 26.05 121.82 25.95L121.82 25.95Q122.02 25.66 122.40 25.92L122.40 25.92Q122.56 26.02 123.02 26.42Q123.49 26.82 123.95 27.22Q124.42 27.62 124.54 27.74L124.54 27.74Q124.80 27.97 124.74 28.27Q124.67 28.58 124.42 28.58L124.42 28.58L111.14 28.58Q110.53 29.70 109.68 31.07Q108.83 32.45 107.98 33.74Q107.14 35.04 106.46 35.94L106.46 35.94Q108.42 35.81 110.62 35.65Q112.83 35.49 114.90 35.30Q116.96 35.10 118.53 34.91L118.53 34.91Q117.57 33.70 116.56 32.66Q115.55 31.62 114.43 30.78L114.43 30.78Q114.37 30.30 114.85 30.24L114.85 30.24Q116.35 30.98 117.81 31.90Q119.26 32.83 120.43 33.86Q121.60 34.88 122.24 35.97L122.24 35.97Q122.78 36.86 122.69 37.81Q122.59 38.75 122.05 39.07L122.05 39.07Q121.38 39.52 120.96 38.72L120.96 38.72Q120.51 37.89 120.05 37.14Q119.58 36.38 119.10 35.71L119.10 35.71Q117.82 35.97 116.14 36.29Q114.46 36.61 112.64 36.93Q110.82 37.25 109.07 37.54Q107.33 37.82 105.89 38.05Q104.45 38.27 103.52 38.40L103.52 38.40Q103.01 38.46 102.90 38.67Q102.78 38.88 102.88 39.30L102.88 39.30Q102.94 39.62 102.62 39.71ZM97.25 25.89L97.25 25.89Q96.80 25.79 96.93 25.31L96.93 25.31Q98.43 24.38 100.18 23.02Q101.92 21.66 103.70 19.97Q105.47 18.27 107.06 16.32Q108.64 14.37 109.79 12.26L109.79 12.26Q110.05 11.78 110.10 11.41Q110.14 11.04 110.14 10.78L110.14 10.78Q110.18 10.37 110.30 10.30L110.30 10.30Q110.43 10.21 110.59 10.30L110.59 10.30Q110.98 10.46 111.57 10.74Q112.16 11.01 112.75 11.26Q113.34 11.52 113.70 11.71L113.70 11.71Q113.86 11.78 113.89 11.90Q113.92 12.03 113.89 12.16L113.89 12.16Q113.79 12.48 113.47 12.42L113.47 12.42Q113.41 12.42 113.33 12.40Q113.25 12.38 113.18 12.38L113.18 12.38Q114.62 14.82 116.42 16.58Q118.21 18.34 120.13 19.54Q122.05 20.74 123.82 21.49Q125.60 22.24 126.98 22.66L126.98 22.66Q126.02 22.91 125.17 23.58Q124.32 24.26 124 24.80L124 24.80Q122.08 23.78 119.94 22.13Q117.79 20.48 115.82 18.10Q113.86 15.71 112.42 12.58L112.42 12.58L112.38 12.61Q110.91 14.94 109.01 17.01Q107.10 19.07 105.02 20.78Q102.94 22.50 100.94 23.78Q98.94 25.06 97.25 25.89ZM104.54 24.16L104.54 24.16L104.29 22.75Q105.09 22.94 105.66 22.98Q106.24 23.01 106.24 23.01L106.24 23.01L115.23 23.01Q115.46 23.01 115.58 22.88L115.58 22.88Q115.68 22.78 115.94 22.48Q116.19 22.18 116.45 21.89Q116.70 21.60 116.80 21.50L116.80 21.50Q117.02 21.28 117.38 21.47L117.38 21.47Q117.57 21.60 117.94 21.95Q118.30 22.30 118.69 22.64Q119.07 22.98 119.23 23.14L119.23 23.14Q119.49 23.42 119.42 23.71Q119.36 24.00 119.01 24.00L119.01 24.00L106.27 24.00Q106.27 24.00 105.73 24.02Q105.18 24.03 104.54 24.16ZM142.56 37.09L142.56 37.09Q142.34 36.93 142.32 36.67Q142.30 36.42 142.46 36.26L142.46 36.26Q144.45 35.90 146.45 35.10Q148.45 34.30 150.11 32.99Q151.78 31.68 152.78 29.81Q153.79 27.94 153.79 25.50L153.79 25.50Q153.79 22.37 152.61 20.13Q151.42 17.89 149.33 16.67Q147.23 15.46 144.45 15.42L144.45 15.42L144.45 17.41Q144.45 19.97 143.92 22.40Q143.39 24.83 142.54 26.94Q141.70 29.06 140.66 30.66Q139.62 32.26 138.59 33.15Q137.57 34.05 136.70 34.05L136.70 34.05Q135.94 34.05 135.17 33.73Q134.40 33.41 133.76 32.70L133.76 32.70Q132.90 31.78 132.35 30.22Q131.81 28.67 131.81 26.40L131.81 26.40Q131.81 24.29 132.70 22.14Q133.60 20.00 135.26 18.19Q136.93 16.38 139.22 15.28Q141.50 14.18 144.32 14.18L144.32 14.18Q146.88 14.18 149.06 15.01Q151.23 15.84 152.85 17.36Q154.46 18.88 155.36 20.99Q156.26 23.10 156.26 25.66L156.26 25.66Q156.26 28.48 155.06 30.54Q153.86 32.61 151.87 34.02Q149.89 35.42 147.46 36.18Q145.02 36.93 142.56 37.09ZM136.61 31.20L136.61 31.20Q137.34 31.20 138.24 30.38Q139.14 29.57 140 28.14Q140.86 26.72 141.58 24.91Q142.30 23.10 142.74 21.14Q143.17 19.17 143.17 17.25L143.17 17.25L143.17 15.49Q140.51 15.78 138.43 17.30Q136.35 18.82 135.18 21.15Q134.02 23.49 134.02 26.34L134.02 26.34Q134.02 28.48 134.74 29.84Q135.46 31.20 136.61 31.20ZM170.11 38.59L170.11 38.59Q169.86 38.50 169.74 38.27Q169.63 38.05 169.73 37.82L169.73 37.82Q171.01 37.18 172.32 36.30Q173.63 35.42 174.69 34.14Q175.74 32.86 176.22 31.07L176.22 31.07Q176.13 31.10 176.05 31.12Q175.97 31.14 175.87 31.14L175.87 31.14Q175.01 31.30 174.34 31.09Q173.66 30.88 173.41 30.30L173.41 30.30Q173.12 29.66 172.78 29.28Q172.45 28.90 172.14 28.46Q171.84 28.03 171.68 27.33L171.68 27.33Q171.33 25.50 171.95 24.32Q172.58 23.14 174.05 22.82L174.05 22.82Q175.23 22.56 176.32 23.26L176.32 23.26Q176.29 22.24 176.26 21.33Q176.22 20.42 176.22 19.81L176.22 19.81L176.22 19.62Q172.74 19.94 169.54 20.74L169.54 20.74Q168.61 20.96 167.74 21.33Q166.88 21.70 166.11 21.70L166.11 21.70Q165.15 21.70 164.53 21.14Q163.90 20.58 163.55 19.74Q163.20 18.91 163.04 18.11L163.04 18.11Q163.26 17.66 163.68 17.89L163.68 17.89Q163.90 18.50 164.50 18.88Q165.09 19.26 166.18 19.26L166.18 19.26Q168.29 19.26 170.93 18.90Q173.57 18.53 176.22 18.21L176.22 18.21Q176.19 16.48 176.21 15.52Q176.22 14.56 176.26 13.95L176.26 13.95Q176.32 13.44 176.26 13.18Q176.19 12.93 175.97 12.80L175.97 12.80Q175.81 12.70 175.47 12.69Q175.14 12.67 174.94 12.70L174.94 12.70Q174.62 12.38 174.91 12.03L174.91 12.03Q175.46 11.87 176.16 11.87Q176.86 11.87 177.38 12.03L177.38 12.03Q177.82 12.13 178.21 12.45Q178.59 12.77 178.74 13.14Q178.88 13.50 178.56 13.86L178.56 13.86Q178.21 14.30 178.05 15.28Q177.89 16.26 177.82 18.02L177.82 18.02Q178.56 17.95 179.28 17.89Q180 17.82 180.67 17.79L180.67 17.79Q180.90 17.79 180.91 17.65Q180.93 17.50 180.70 17.38L180.70 17.38Q180.32 17.12 179.63 16.75Q178.94 16.38 178.59 16.19L178.59 16.19Q178.50 15.71 178.91 15.62L178.91 15.62Q179.39 15.81 180.45 16.22Q181.50 16.64 182.50 16.90L182.50 16.90Q183.23 17.06 183.74 17.12Q184.26 17.18 185.34 17.09L185.34 17.09Q186.27 17.02 186.93 17.22Q187.58 17.41 188.29 18.08L188.29 18.08Q188.99 18.78 188.64 19.31Q188.29 19.84 187.46 19.71L187.46 19.71Q185.41 19.36 182.91 19.31Q180.42 19.26 177.79 19.46L177.79 19.46L177.79 19.74Q177.79 21.66 177.86 22.74Q177.92 23.81 178.03 24.43Q178.14 25.06 178.27 25.63L178.27 25.63Q178.53 26.24 178.66 26.91Q178.78 27.58 178.78 28.32L178.78 28.32Q178.78 30.78 177.95 32.53Q177.12 34.27 175.79 35.44Q174.46 36.61 172.96 37.36Q171.46 38.11 170.11 38.59ZM175.33 29.06L175.33 29.06Q176.16 28.90 176.32 28.40Q176.48 27.90 176.45 27.20L176.45 27.20L176.45 26.91Q176.22 25.34 175.63 24.75Q175.04 24.16 174.40 24.29L174.40 24.29Q173.34 24.51 173.14 25.30Q172.93 26.08 173.15 27.17L173.15 27.17Q173.41 28.19 174.02 28.69Q174.62 29.18 175.33 29.06ZM219.62 32.80L219.62 32.80Q216.80 31.26 214.26 29.31Q211.71 27.36 209.54 25.34Q207.36 23.33 205.54 21.63L205.54 21.63Q205.02 21.18 204.70 21.18Q204.38 21.18 203.94 21.66L203.94 21.66Q203.52 22.08 202.88 22.82Q202.24 23.55 201.52 24.42Q200.80 25.28 200.21 26.08Q199.62 26.88 199.30 27.39L199.30 27.39Q199.01 27.87 198.53 28.45Q198.05 29.02 197.12 29.02L197.12 29.02Q196.48 29.02 195.92 28.43Q195.36 27.84 194.93 27.02Q194.50 26.21 194.24 25.60L194.24 25.60Q194.30 25.41 194.46 25.30Q194.62 25.18 194.82 25.25L194.82 25.25Q195.17 25.63 195.58 25.97Q196 26.30 196.74 26.30L196.74 26.30Q197.12 26.30 197.74 25.82Q198.37 25.34 199.10 24.61Q199.84 23.87 200.61 23.04Q201.38 22.21 202.06 21.46Q202.75 20.70 203.20 20.26L203.20 20.26Q204.13 19.30 204.78 19.31Q205.44 19.33 206.43 20.29L206.43 20.29Q208.19 21.98 210.37 23.74Q212.54 25.50 215.06 27.04Q217.57 28.58 220.38 29.70L220.38 29.70Q220.96 29.92 221.44 30.64Q221.92 31.36 221.79 32.13L221.79 32.13Q221.66 32.96 221.09 33.14Q220.51 33.31 219.62 32.80ZM218.05 21.34L218.05 21.34Q217.76 21.41 217.47 21.33Q217.18 21.25 216.86 20.74L216.86 20.74Q216.19 19.68 215.38 18.80Q214.56 17.92 213.28 17.31L213.28 17.31Q213.12 16.83 213.54 16.67L213.54 16.67Q214.50 16.80 215.54 17.15Q216.58 17.50 217.41 18.06Q218.24 18.62 218.53 19.46L218.53 19.46Q218.78 20.16 218.59 20.70Q218.40 21.25 218.05 21.34ZM221.22 18.14L221.22 18.14Q220.96 18.27 220.64 18.24Q220.32 18.21 219.94 17.79L219.94 17.79Q219.04 16.90 218.08 16.22Q217.12 15.55 215.71 15.17L215.71 15.17Q215.58 15.01 215.63 14.82Q215.68 14.62 215.84 14.53L215.84 14.53Q216.80 14.43 217.89 14.56Q218.98 14.69 219.90 15.07Q220.83 15.46 221.28 16.19L221.28 16.19Q221.70 16.83 221.62 17.41Q221.54 17.98 221.22 18.14ZM246.94 36.83L246.94 36.83Q243.71 37.12 241.25 36.37Q238.78 35.62 237.41 33.66Q236.03 31.71 236.03 28.38L236.03 28.38Q236.03 24.54 237.55 21.82Q239.07 19.10 241.31 17.41L241.31 17.41Q239.33 17.76 237.33 18.34Q235.33 18.91 233.02 19.84L233.02 19.84Q232.42 20.06 231.71 20.43Q231.01 20.80 230.40 20.80L230.40 20.80Q229.41 20.80 228.78 20.19Q228.16 19.58 227.86 18.74Q227.55 17.89 227.46 17.18L227.46 17.18Q227.68 16.74 228.10 16.96L228.10 16.96Q228.35 17.57 228.88 17.86Q229.41 18.14 230.37 18.14L230.37 18.14Q231.20 18.14 232.67 17.87Q234.14 17.60 236.05 17.17Q237.95 16.74 240.11 16.26Q242.27 15.78 244.48 15.34Q246.69 14.91 248.74 14.62L248.74 14.62Q249.38 14.53 249.71 14.53Q250.05 14.53 250.37 14.78L250.37 14.78Q251.17 15.36 251.41 15.97Q251.65 16.58 251.36 16.93Q251.07 17.28 250.27 17.18L250.27 17.18Q249.09 17.02 247.66 16.91Q246.24 16.80 244.83 16.99Q243.42 17.18 242.27 17.98L242.27 17.98Q239.74 19.65 238.83 22.27Q237.92 24.90 237.98 28.35L237.98 28.35Q238.05 31.71 240.21 33.22Q242.37 34.72 246.27 34.30L246.27 34.30Q246.62 34.24 246.83 34.27Q247.04 34.30 247.26 34.53L247.26 34.53Q248.48 35.52 248.22 36.13Q247.97 36.74 246.94 36.83ZM302.27 38.05L302.27 38.05Q302.08 37.86 302.06 37.60Q302.05 37.34 302.24 37.18L302.24 37.18Q303.23 37.02 304.70 36.67Q306.18 36.32 307.74 35.70Q309.31 35.07 310.69 34.13Q312.06 33.18 312.93 31.86Q313.79 30.53 313.79 28.74L313.79 28.74Q313.79 26.18 312.40 24.48Q311.01 22.78 308.19 22.40L308.19 22.40Q307.97 23.46 307.30 24.67Q306.62 25.89 305.71 27.10Q304.80 28.32 303.78 29.44L303.78 29.44Q303.97 29.76 304.14 30.03Q304.32 30.30 304.48 30.50L304.48 30.50Q304.70 30.72 304.72 31.25Q304.74 31.78 304.51 32.24Q304.29 32.70 303.74 32.70L303.74 32.70Q303.20 32.70 302.80 32.32Q302.40 31.94 302.14 31.36L302.14 31.36Q302.11 31.30 302.11 31.25Q302.11 31.20 302.08 31.17L302.08 31.17Q300.13 32.96 298.13 34.06Q296.13 35.17 294.34 35.42L294.34 35.42Q291.65 35.78 291.65 33.38L291.65 33.38Q291.65 31.87 292.37 30.30Q293.09 28.74 294.35 27.25Q295.62 25.76 297.28 24.50Q298.94 23.23 300.83 22.37L300.83 22.37L300.83 21.22Q300.83 20.54 300.83 19.94Q300.83 19.33 300.86 18.78L300.86 18.78Q300.16 18.85 299.57 18.90Q298.98 18.94 298.50 18.94L298.50 18.94Q297.15 18.94 296.34 18.40Q295.52 17.86 295.12 16.98Q294.72 16.10 294.62 15.17L294.62 15.17Q294.91 14.78 295.26 15.07L295.26 15.07Q295.58 15.97 296.26 16.62Q296.93 17.28 298.40 17.28L298.40 17.28Q298.98 17.28 299.62 17.22Q300.26 17.15 300.93 17.09L300.93 17.09Q300.99 15.97 301.09 15.22Q301.18 14.46 301.22 13.95L301.22 13.95Q301.34 13.06 300.93 12.80L300.93 12.80Q300.77 12.70 300.43 12.69Q300.10 12.67 299.90 12.70L299.90 12.70Q299.52 12.38 299.87 12.03L299.87 12.03Q300.38 11.87 301.10 11.87Q301.82 11.87 302.34 12.03L302.34 12.03Q303.01 12.19 303.44 12.77Q303.87 13.34 303.42 13.86L303.42 13.86Q302.82 14.59 302.53 16.83L302.53 16.83Q304.13 16.54 305.70 16.11Q307.26 15.68 308.45 15.23L308.45 15.23Q308.77 15.10 309.06 15.07Q309.34 15.04 309.89 15.26L309.89 15.26Q310.85 15.65 310.86 16.27Q310.88 16.90 310.14 17.09L310.14 17.09Q309.34 17.31 308.05 17.60Q306.75 17.89 305.28 18.14Q303.81 18.40 302.37 18.62L302.37 18.62Q302.27 19.81 302.27 21.22L302.27 21.22L302.27 21.79Q303.36 21.44 304.46 21.23Q305.57 21.02 306.66 21.02L306.66 21.02L306.91 21.02Q306.85 20.64 306.56 20.38Q306.27 20.13 305.92 20.00L305.92 20.00Q305.70 19.39 306.27 19.23L306.27 19.23Q306.53 19.30 306.96 19.49Q307.39 19.68 307.78 20.05Q308.16 20.42 308.26 21.09L308.26 21.09Q310.40 21.31 312.22 22.22Q314.05 23.14 315.17 24.75Q316.29 26.37 316.29 28.74L316.29 28.74Q316.29 31.55 314.48 33.52Q312.67 35.49 309.50 36.61Q306.34 37.73 302.27 38.05ZM295.23 33.12L295.23 33.12Q296.54 32.83 298.21 31.94Q299.87 31.04 301.57 29.50L301.57 29.50Q301.02 27.36 300.86 23.87L300.86 23.87Q298.91 24.86 297.30 26.30Q295.68 27.74 294.72 29.25Q293.76 30.75 293.76 32.03L293.76 32.03Q293.76 33.44 295.23 33.12ZM303.14 27.90L303.14 27.90Q304.45 26.43 305.47 25.01Q306.50 23.58 306.82 22.30L306.82 22.30L306.66 22.30Q304.51 22.30 302.34 23.20L302.34 23.20Q302.43 24.70 302.64 25.87Q302.85 27.04 303.14 27.90ZM339.36 35.30L339.36 35.30Q338.18 35.36 337.10 34.38Q336.03 33.41 335.31 31.49Q334.59 29.57 334.43 26.78L334.43 26.78Q334.40 25.66 334.42 24.62Q334.43 23.58 334.46 22.56L334.46 22.56Q334.53 21.41 334.54 20.26Q334.56 19.10 334.50 17.89L334.50 17.89Q334.46 17.22 334.22 16.67Q333.98 16.13 333.76 15.90L333.76 15.90Q333.76 15.71 333.89 15.57Q334.02 15.42 334.21 15.46L334.21 15.46Q335.17 15.94 335.95 16.69Q336.74 17.44 336.80 18.50L336.80 18.50Q336.83 19.23 336.77 19.94Q336.70 20.64 336.64 21.41L336.64 21.41Q336.51 22.43 336.42 23.66Q336.32 24.90 336.42 26.56L336.42 26.56Q336.54 28.42 336.90 29.54Q337.25 30.66 337.63 31.17L337.63 31.17Q338.27 32.00 338.85 31.01L338.85 31.01Q339.20 30.37 339.82 29.34Q340.45 28.32 341.09 27.31Q341.73 26.30 342.08 25.76L342.08 25.76Q342.53 25.60 342.66 26.02L342.66 26.02Q342.50 26.37 342.18 27.12Q341.86 27.87 341.49 28.80Q341.12 29.73 340.80 30.61Q340.48 31.49 340.29 32.13L340.29 32.13Q340.19 32.51 340.26 32.74Q340.32 32.96 340.45 33.15L340.45 33.15Q340.54 33.31 340.64 33.49Q340.74 33.66 340.74 33.95L340.74 33.95Q340.77 34.37 340.50 34.80Q340.22 35.23 339.36 35.30ZM355.10 29.54L355.10 29.54Q354.59 29.57 354.34 29.39Q354.08 29.22 354.02 28.45L354.02 28.45Q353.95 26.75 353.46 25.14Q352.96 23.52 351.89 22.26Q350.82 20.99 349.02 20.38L349.02 20.38Q348.80 19.97 349.18 19.74L349.18 19.74Q351.30 19.97 353.02 21.12Q354.75 22.27 355.76 24.02Q356.77 25.76 356.67 27.78L356.67 27.78Q356.64 28.42 356.18 28.94Q355.71 29.47 355.10 29.54ZM380.35 38.46L380.35 38.46Q379.87 38.08 380.19 37.63L380.19 37.63Q382.21 37.06 384.02 36.22Q385.82 35.39 387.20 34.16Q388.58 32.93 389.36 31.20Q390.14 29.47 390.14 27.10L390.14 27.10Q390.14 24.13 389.46 22.56Q388.77 20.99 387.23 20.99L387.23 20.99Q386.37 20.99 385.54 21.60Q384.70 22.21 383.89 23.02Q383.07 23.84 382.29 24.45Q381.50 25.06 380.70 25.06L380.70 25.06Q379.81 25.06 379.34 24.59Q378.88 24.13 378.72 23.46L378.72 23.46Q378.59 22.88 378.70 22.22Q378.82 21.57 379.07 21.06L379.07 21.06Q379.23 20.93 379.42 20.99Q379.62 21.06 379.71 21.22L379.71 21.22Q379.58 21.73 379.94 22.16Q380.29 22.59 380.80 22.59L380.80 22.59Q381.44 22.59 382.18 22.16Q382.91 21.73 383.71 21.14Q384.51 20.54 385.39 20.11Q386.27 19.68 387.23 19.68L387.23 19.68Q390.14 19.68 391.36 21.65Q392.58 23.62 392.58 27.14L392.58 27.14Q392.58 29.50 391.76 31.28Q390.94 33.06 389.58 34.32Q388.22 35.58 386.59 36.42Q384.96 37.25 383.33 37.74Q381.70 38.24 380.35 38.46ZM383.58 17.76L383.58 17.76Q383.39 17.70 383.30 17.54Q383.20 17.38 383.23 17.22L383.23 17.22Q383.65 16.90 384.29 16.46Q384.93 16.03 385.44 15.81L385.44 15.81Q384.13 15.68 383.31 15.07Q382.50 14.46 382.08 13.57Q381.66 12.67 381.54 11.68L381.54 11.68Q381.63 11.52 381.82 11.47Q382.02 11.42 382.18 11.55L382.18 11.55Q382.53 12.74 383.82 13.38Q385.12 14.02 386.88 13.89L386.88 13.89Q387.81 13.82 388.22 14.11Q388.64 14.40 388.96 14.98L388.96 14.98Q389.38 15.62 389.23 16.05Q389.09 16.48 388.64 16.42L388.64 16.42Q387.14 16.22 385.97 16.67Q384.80 17.12 383.81 17.63L383.81 17.63Q383.65 17.73 383.58 17.76ZM431.94 37.15L431.94 37.15Q429.47 37.15 428.42 36.50Q427.36 35.84 427.39 33.98L427.39 33.98Q427.39 33.66 427.42 33.31Q427.46 32.96 427.49 32.58L427.49 32.58Q427.58 31.74 427.60 30.93Q427.62 30.11 427.33 29.58Q427.04 29.06 426.24 29.06L426.24 29.06Q425.25 29.06 424.70 29.26Q424.16 29.47 423.62 29.98L423.62 29.98Q422.21 31.30 420.98 33.01Q419.74 34.72 418.69 36.16L418.69 36.16Q418.40 36.54 418.08 36.67Q417.76 36.80 417.47 36.77L417.47 36.77Q416.61 36.70 416.70 35.55L416.70 35.55Q416.77 34.78 416.98 34.37Q417.18 33.95 417.79 33.44L417.79 33.44Q418.78 32.54 420.21 31.15Q421.63 29.76 423.23 28.18Q424.83 26.59 426.37 25.14Q427.90 23.68 429.09 22.62L429.09 22.62Q429.66 22.11 429.86 21.89Q430.05 21.66 430.05 21.34L430.05 21.34Q430.05 20.74 429.34 20.74L429.34 20.74Q428.54 20.74 427.58 21.06Q426.62 21.38 425.68 21.87Q424.74 22.37 423.94 22.85L423.94 22.85Q423.33 23.17 422.72 23.62Q422.11 24.06 421.54 24.06L421.54 24.06Q420.64 24.06 420.19 23.58Q419.74 23.10 419.58 22.40L419.58 22.40Q419.46 21.76 419.57 21.09Q419.68 20.42 419.90 19.87L419.90 19.87Q420.38 19.65 420.54 20.03L420.54 20.03Q420.42 20.54 420.69 21.10Q420.96 21.66 421.47 21.66L421.47 21.66Q422.34 21.66 423.38 21.31Q424.42 20.96 425.54 20.48Q426.66 20.00 427.79 19.65Q428.93 19.30 430.02 19.30L430.02 19.30Q431.36 19.30 431.98 19.84Q432.61 20.38 432.64 21.31L432.64 21.31Q432.67 21.79 432.35 22.06Q432.03 22.34 431.58 22.59L431.58 22.59Q431.42 22.69 431.28 22.78Q431.14 22.88 430.98 22.98L430.98 22.98Q429.70 23.90 428.22 25.26Q426.75 26.62 425.47 27.84L425.47 27.84Q425.34 27.97 425.39 28.05Q425.44 28.13 425.57 28.10L425.57 28.10Q425.73 28.06 425.97 28.00Q426.21 27.94 426.50 27.94L426.50 27.94Q427.65 27.94 428.26 28.34Q428.86 28.74 429.09 29.38Q429.31 30.02 429.31 30.74Q429.31 31.46 429.28 32.13L429.28 32.13Q429.25 32.38 429.23 32.62Q429.22 32.86 429.22 33.06L429.22 33.06Q429.22 34.40 429.87 34.70Q430.53 35.01 431.97 35.01L431.97 35.01Q433.34 35.01 434.61 34.72Q435.87 34.43 436.58 34.21L436.58 34.21Q436.83 34.14 437.22 34.22Q437.60 34.30 438.30 34.88L438.30 34.88Q438.82 35.30 438.80 35.76Q438.78 36.22 438.08 36.45L438.08 36.45Q437.18 36.77 435.60 36.96Q434.02 37.15 431.94 37.15ZM424.67 17.34L424.67 17.34Q424.48 17.28 424.38 17.12Q424.29 16.96 424.32 16.80L424.32 16.80Q424.74 16.48 425.26 16.11Q425.79 15.74 426.30 15.49L426.30 15.49Q425.22 15.20 424.66 14.37Q424.10 13.54 423.87 12.48L423.87 12.48Q424.10 12.06 424.48 12.29L424.48 12.29Q424.83 12.99 426.11 13.52Q427.39 14.05 429.09 13.92L429.09 13.92Q429.73 13.86 430.34 14.18Q430.94 14.50 431.17 14.94L431.17 14.94Q431.52 15.62 431.39 15.97Q431.26 16.32 430.72 16.26L430.72 16.26Q428.90 16.00 427.52 16.30Q426.14 16.61 424.67 17.34ZM473.02 35.84L473.02 35.84Q470.98 35.84 469.78 34.61Q468.58 33.38 468.22 31.78L468.22 31.78Q468.32 31.62 468.51 31.55Q468.70 31.49 468.83 31.58L468.83 31.58Q469.47 32.86 470.53 33.41Q471.58 33.95 473.06 33.95L473.06 33.95Q473.92 33.95 474.69 33.54Q475.46 33.12 475.95 32.35Q476.45 31.58 476.45 30.56L476.45 30.56Q476.45 28.67 475.26 27.57Q474.08 26.46 472.19 26.46L472.19 26.46Q470.14 26.46 468.16 27.20Q466.18 27.94 464.45 28.96L464.45 28.96Q464.61 30.78 464.88 31.90Q465.15 33.02 465.15 33.38L465.15 33.38Q465.15 33.98 464.88 34.62Q464.61 35.26 463.68 35.65L463.68 35.65Q463.01 35.97 462.48 35.70Q461.95 35.42 461.82 34.59L461.82 34.59Q461.76 34.14 461.07 33.65Q460.38 33.15 459.39 32.83L459.39 32.83Q459.07 33.15 458.80 33.41Q458.53 33.66 458.37 33.82L458.37 33.82Q457.89 34.27 457.20 34.32Q456.51 34.37 455.97 33.73L455.97 33.73Q455.55 33.28 455.18 33.09Q454.82 32.90 454.82 32.35L454.82 32.35Q454.82 31.30 456.58 31.30L456.58 31.30Q457.15 31.30 457.82 31.39L457.82 31.39Q458.75 30.85 460.06 29.98Q461.38 29.12 462.91 28.22L462.91 28.22L462.91 27.68Q462.91 26.27 462.96 24.93Q463.01 23.58 463.04 22.34L463.04 22.34Q462.21 22.46 461.38 22.56Q460.54 22.66 459.81 22.66L459.81 22.66Q458.75 22.66 457.95 22.16Q457.15 21.66 456.74 20.88Q456.32 20.10 456.35 19.23L456.35 19.23Q456.64 18.85 456.99 19.14L456.99 19.14Q457.12 20.13 458.00 20.62Q458.88 21.12 459.90 21.12L459.90 21.12Q460.54 21.12 461.39 20.96Q462.24 20.80 463.10 20.54L463.10 20.54Q463.17 19.23 463.26 18.21Q463.36 17.18 463.42 16.51L463.42 16.51Q463.52 15.58 463.10 15.39L463.10 15.39Q462.94 15.26 462.62 15.25Q462.30 15.23 462.08 15.26L462.08 15.26Q461.73 14.91 462.08 14.62L462.08 14.62Q462.59 14.46 463.30 14.45Q464.00 14.43 464.51 14.59L464.51 14.59Q464.96 14.69 465.34 15.01Q465.73 15.33 465.87 15.71Q466.02 16.10 465.70 16.45L465.70 16.45Q465.38 16.83 465.14 17.76Q464.90 18.69 464.74 20.00L464.74 20.00Q465.86 19.55 466.53 19.14L466.53 19.14Q466.88 18.94 467.97 19.65L467.97 19.65Q468.38 19.94 468.40 20.38Q468.42 20.83 467.87 21.09L467.87 21.09Q466.69 21.60 464.54 22.05L464.54 22.05Q464.48 23.26 464.45 24.61Q464.42 25.95 464.42 27.39L464.42 27.39Q466.37 26.34 468.46 25.58Q470.56 24.83 472.58 24.83L472.58 24.83Q474.59 24.83 476.02 25.58Q477.44 26.34 478.21 27.63Q478.98 28.93 478.98 30.56L478.98 30.56Q478.98 32.00 478.21 33.20Q477.44 34.40 476.10 35.12Q474.75 35.84 473.02 35.84ZM477.22 21.63L477.22 21.63Q477.02 21.60 476.91 21.44Q476.80 21.28 476.83 21.12L476.83 21.12Q477.12 20.83 477.63 20.43Q478.14 20.03 478.59 19.78L478.59 19.78Q478.34 19.36 477.74 19.04Q477.15 18.72 476.32 18.72L476.32 18.72Q474.62 18.72 473.54 19.25Q472.45 19.78 471.52 20.54L471.52 20.54Q471.01 20.48 471.07 20.06L471.07 20.06Q471.46 19.58 472.24 18.88Q473.02 18.18 474.19 17.62Q475.36 17.06 476.86 17.06L476.86 17.06Q478.94 17.06 480.16 17.98Q481.38 18.91 481.38 20.13L481.38 20.13Q481.38 20.83 480.93 21.12Q480.48 21.41 479.84 21.18L479.84 21.18Q478.94 20.86 478.32 21.09Q477.70 21.31 477.22 21.63ZM462.27 33.02L462.27 33.02Q463.04 33.60 463.04 32.61L463.04 32.61Q463.04 32.29 463.02 31.57Q463.01 30.85 462.98 29.95L462.98 29.95Q462.21 30.46 461.52 31.01Q460.83 31.55 460.29 32.03L460.29 32.03Q461.47 32.48 462.27 33.02Z"/></svg>